<?xml version="1.0" standalone="no"?>
<!DOCTYPE svg PUBLIC "-//W3C//DTD SVG 20010904//EN"
 "http://www.w3.org/TR/2001/REC-SVG-20010904/DTD/svg10.dtd">
<svg version="1.0" xmlns="http://www.w3.org/2000/svg"
 width="665.000000pt" height="369.000000pt" viewBox="0 0 665.000000 369.000000"
 preserveAspectRatio="xMidYMid meet">

<g transform="translate(0.000000,369.000000) scale(0.100000,-0.100000)"
fill="#000000" stroke="none">
<path d="M5906 2848 c-10 -5 -27 -7 -38 -4 -12 2 -33 -1 -48 -9 -16 -8 -32
-10 -40 -5 -8 5 -27 3 -47 -5 -22 -10 -41 -11 -56 -5 -22 9 -22 9 3 11 50 4
-78 17 -173 18 -89 1 -181 -12 -199 -28 -4 -3 58 -5 137 -3 97 2 145 0 145 -7
0 -6 21 -11 47 -11 l47 0 -29 -30 c-40 -41 -16 -38 36 5 23 20 51 41 62 47 17
9 19 8 12 -8 -34 -82 -43 -124 -26 -124 5 0 12 -18 16 -40 9 -56 21 -58 16 -3
l-3 46 45 -6 c39 -6 48 -3 71 20 l26 26 0 -31 c0 -17 4 -33 9 -36 5 -4 8 12 6
36 -1 23 2 51 8 62 33 67 34 72 9 85 -11 6 -24 6 -36 -1z"/>
<path d="M1297 2830 c-3 -14 -9 -53 -11 -85 -5 -60 -5 -60 9 15 14 71 15 123
2 70z"/>
<path d="M1697 2790 c3 -36 10 -72 15 -80 11 -18 -1 96 -13 125 -5 12 -6 -7
-2 -45z"/>
<path d="M2330 2828 c15 -36 42 -150 36 -155 -2 -3 -28 0 -56 6 -28 6 -62 11
-76 11 -27 0 -44 -27 -25 -40 15 -9 -60 -20 -135 -20 -29 0 -56 -4 -59 -10 -3
-5 -12 -10 -20 -10 -13 0 -13 41 0 150 3 24 2 30 -5 20 -5 -8 -12 -49 -16 -91
l-6 -76 -136 -7 c-74 -3 -223 -6 -331 -6 -108 0 -216 -5 -241 -11 -47 -11 -83
-36 -74 -50 7 -11 7 -11 -161 6 -115 12 -142 12 -150 1 -17 -21 -111 -30 -305
-29 -596 5 -563 8 -568 -52 l-3 -38 58 7 c162 20 289 29 498 36 127 4 277 13
334 20 94 12 104 11 113 -3 5 -10 15 -17 22 -17 16 0 25 -60 27 -169 l2 -76 8
70 c5 39 7 95 3 125 -5 48 -4 53 8 37 11 -14 25 -18 68 -15 l55 3 -1 37 -1 36
121 7 c67 3 173 5 236 3 l115 -3 -3 -32 c-5 -50 19 -377 28 -388 5 -5 10 -23
12 -40 1 -16 2 70 1 193 -1 123 -5 228 -9 233 -15 25 37 -14 89 -66 34 -35 58
-68 62 -88 10 -45 32 -77 54 -77 10 0 21 -7 25 -15 7 -20 32 -19 40 1 3 9 6
39 6 68 0 39 -5 56 -19 68 -20 17 -20 18 7 80 24 55 27 59 30 35 5 -40 23 -29
40 24 18 54 25 59 86 59 42 0 52 -4 80 -34 17 -18 38 -36 46 -39 12 -4 11 -6
-2 -6 -10 -1 -18 -5 -18 -11 0 -5 7 -7 15 -4 8 3 22 -2 32 -11 16 -16 17 -16
30 1 16 21 12 39 -8 39 -8 0 -24 10 -37 23 -17 17 -19 22 -6 22 32 0 10 35
-26 41 -35 6 -35 6 8 8 34 1 45 5 49 20 5 21 17 21 151 5 49 -6 57 -24 10 -24
-39 0 -51 -7 -67 -38 -10 -19 -10 -28 3 -47 9 -13 25 -25 37 -27 14 -2 27 -18
41 -53 11 -27 25 -60 30 -72 6 -12 8 -51 5 -90 -5 -53 -4 -61 4 -35 5 17 16
32 24 32 8 0 15 2 15 4 0 2 7 40 15 83 8 43 15 86 15 96 0 27 -27 20 -38 -10
l-10 -28 -1 28 c-1 15 8 45 19 66 21 43 28 45 180 57 91 7 130 17 130 34 0 6
-37 11 -92 12 l-93 1 96 6 c59 4 102 11 112 20 15 12 17 11 17 -7 0 -12 -4
-24 -10 -27 -15 -9 -12 -76 4 -94 13 -14 13 -24 1 -76 -8 -33 -17 -89 -20
-124 -3 -36 -8 -75 -11 -86 -9 -37 -20 -215 -12 -207 3 4 18 79 32 167 15 88
34 195 43 237 l17 77 56 24 c30 14 78 30 105 37 60 16 75 26 75 52 0 19 6 20
243 13 380 -10 381 -10 437 19 34 18 35 18 19 0 -32 -38 -71 -115 -65 -130 7
-18 26 -9 26 13 0 9 18 47 40 85 l40 70 -30 -7 c-33 -7 -41 8 -12 24 9 6 12
11 7 11 -6 0 -16 -5 -22 -11 -7 -7 -13 11 -18 65 -4 42 -10 76 -14 76 -4 0 -2
-36 4 -81 14 -96 15 -95 -91 -93 -48 1 -85 8 -118 23 -27 11 -63 21 -81 21
-77 0 -91 8 -109 66 -9 29 -21 56 -26 59 -5 3 -3 -9 4 -27 7 -18 16 -45 20
-60 l6 -28 -143 0 c-79 0 -147 -4 -153 -9 -5 -5 -34 -16 -64 -24 -30 -9 -46
-16 -35 -16 30 -2 -34 -28 -90 -36 l-45 -7 0 106 c0 64 -4 106 -10 106 -6 0
-10 -36 -10 -88 l0 -87 -97 -18 c-111 -20 -170 -20 -298 -4 l-90 12 -24 93
c-13 50 -28 92 -32 92 -5 0 -4 -10 1 -22z m510 -178 c-8 -5 -31 -9 -50 -9
l-35 1 30 8 c17 4 39 8 50 9 16 1 17 -1 5 -9z m-255 -30 c-45 -11 -85 -11 -85
0 0 6 25 9 58 9 47 -1 52 -3 27 -9z m-57 -42 c-5 -32 -28 -35 -28 -4 0 17 5
26 16 26 10 0 14 -7 12 -22z m-563 -18 c-3 -5 -21 -9 -38 -9 l-32 2 35 7 c19
4 36 8 38 9 2 0 0 -3 -3 -9z m-63 -124 c5 -123 -3 -134 -42 -56 -42 83 -68
120 -85 120 -7 0 -15 -7 -17 -15 -2 -12 -9 -10 -33 9 l-30 24 102 -1 102 -1 3
-80z"/>
<path d="M4091 2814 c0 -11 3 -14 6 -6 3 7 2 16 -1 19 -3 4 -6 -2 -5 -13z"/>
<path d="M4710 2798 c-14 -6 -81 -12 -150 -13 -143 -2 -274 -20 -307 -41 -21
-13 -23 -22 -23 -97 -1 -92 -11 -148 -42 -225 -15 -35 -19 -55 -12 -62 14 -14
37 -4 53 23 13 21 12 21 -13 -2 -14 -14 -28 -22 -31 -20 -8 8 18 81 31 86 7 3
11 10 8 18 -3 7 1 19 8 26 8 8 18 23 22 34 7 15 12 -2 21 -63 7 -46 14 -85 16
-87 2 -2 4 44 4 101 0 57 -2 104 -4 104 -2 0 -13 -8 -24 -17 -20 -18 -20 -17
-14 16 4 18 7 46 7 62 0 42 29 65 91 72 42 5 55 3 62 -8 4 -8 14 -15 21 -15 8
0 16 -7 20 -15 3 -8 14 -15 25 -15 27 0 71 21 73 34 0 6 2 16 3 21 2 6 3 16 4
23 1 7 17 12 46 12 25 0 72 9 105 21 35 12 72 18 88 15 15 -3 43 -1 62 4 l35
9 -37 -2 c-20 -1 -40 2 -44 6 -11 10 -75 7 -104 -5z m-195 -58 c-3 -5 -16 -15
-28 -21 -21 -10 -21 -9 2 10 25 23 36 27 26 11z"/>
<path d="M5164 2798 c-4 -7 -7 -27 -6 -46 2 -19 -3 -41 -10 -51 -12 -14 -11
-14 4 -3 15 12 20 11 39 -7 l23 -21 12 36 c16 46 23 53 57 56 15 1 27 4 27 5
0 1 -18 12 -40 23 -44 22 -95 26 -106 8z"/>
<path d="M1468 2718 c-3 -81 -2 -96 6 -87 7 7 11 169 4 169 -3 0 -8 -37 -10
-82z"/>
<path d="M4955 2785 c-27 -12 -28 -13 -7 -14 12 -1 22 -5 22 -9 0 -11 -30 -38
-50 -45 -10 -4 -9 -6 6 -6 11 -1 29 8 39 19 27 29 47 27 35 -5 -5 -14 -9 -43
-7 -64 2 -31 5 -37 15 -28 11 8 12 5 7 -16 -6 -21 -3 -27 8 -27 10 0 23 23 37
65 12 36 27 65 33 65 7 0 6 4 -2 9 -12 8 -12 12 -2 25 7 9 11 23 7 31 -7 19
-99 20 -141 0z"/>
<path d="M6143 2790 c-27 -11 -28 -33 -13 -350 24 -492 6 -886 -45 -995 -42
-87 -66 -277 -86 -665 -12 -251 -8 -465 11 -517 14 -38 18 -39 198 -35 l133 3
-2 441 c-3 390 -5 445 -20 474 -15 30 -16 61 -7 341 5 169 7 425 4 568 -5 279
-18 376 -53 405 -15 12 -21 33 -27 90 -7 87 -46 242 -61 246 -5 1 -20 -1 -32
-6z"/>
<path d="M5950 2778 c1 -23 55 -122 69 -126 10 -4 9 5 -6 29 -11 19 -26 51
-33 72 -11 35 -30 51 -30 25z"/>
<path d="M555 2693 c4 -43 11 -85 17 -93 7 -11 8 -8 4 10 -3 14 -6 55 -6 93 0
42 -4 67 -11 67 -8 0 -9 -23 -4 -77z"/>
<path d="M936 2740 c20 -43 24 -47 24 -29 0 8 -10 25 -21 39 l-20 25 17 -35z"/>
<path d="M3991 2740 c-34 -8 -54 -27 -45 -42 3 -4 -2 -8 -10 -8 -8 0 -17 -4
-20 -9 -3 -5 15 -2 42 6 26 8 93 23 150 33 57 10 106 21 109 24 9 9 -186 5
-226 -4z"/>
<path d="M331 2653 c2 -79 6 -70 11 25 2 28 0 52 -4 52 -5 0 -7 -35 -7 -77z"/>
<path d="M3866 2574 c-51 -70 -68 -105 -48 -104 4 1 18 24 32 51 22 46 33 63
71 107 6 7 9 16 6 18 -3 3 -30 -29 -61 -72z"/>
<path d="M3790 2618 c0 -11 28 -10 35 1 3 6 -4 9 -15 8 -11 -1 -20 -5 -20 -9z"/>
<path d="M3872 2538 c-30 -50 -52 -107 -52 -137 1 -19 7 -9 24 35 13 34 32 76
41 94 22 43 12 50 -13 8z"/>
<path d="M3902 2487 c-18 -22 -82 -161 -82 -179 0 -34 17 -26 29 14 7 23 27
72 45 110 30 63 34 86 8 55z"/>
<path d="M1221 2416 c-8 -21 -9 -57 -2 -138 5 -60 12 -112 14 -115 11 -10 17
145 9 212 -8 67 -9 69 -21 41z"/>
<path d="M437 2393 c-10 -9 -8 -140 3 -188 6 -30 8 -9 7 77 -1 65 -2 118 -3
118 0 0 -4 -3 -7 -7z"/>
<path d="M1318 2295 c2 -55 6 -102 8 -104 7 -8 3 125 -5 164 -6 26 -7 5 -3
-60z"/>
<path d="M3871 2303 c-46 -79 -61 -123 -42 -123 6 0 10 3 9 8 -4 10 30 86 64
145 15 26 24 47 20 47 -4 -1 -27 -35 -51 -77z"/>
<path d="M5805 2354 c-52 -19 -101 -68 -120 -118 -20 -55 -45 -206 -45 -273 0
-65 24 -117 76 -163 57 -50 97 -63 137 -47 46 20 124 110 138 160 7 25 10 98
7 182 -3 126 -6 144 -28 185 -26 45 -80 91 -109 89 -9 0 -34 -7 -56 -15z m106
-101 c23 -27 26 -293 4 -349 -17 -44 -69 -95 -96 -93 -8 0 -4 4 8 9 31 13 50
47 62 114 14 76 14 241 1 267 -15 26 -46 24 -62 -5 -7 -13 -26 -43 -43 -67
-29 -42 -30 -46 -29 -156 1 -73 6 -119 14 -130 7 -10 -6 2 -30 26 l-43 43 6
107 c3 60 13 132 24 166 18 59 19 60 61 66 23 3 45 8 48 12 13 13 62 7 75 -10z
m-62 -248 c-6 -49 -16 -101 -22 -115 l-10 -25 -7 25 c-17 56 -11 178 13 235
l22 55 8 -42 c4 -24 2 -82 -4 -133z"/>
<path d="M5373 2334 c-61 -31 -133 -216 -133 -345 0 -79 26 -214 48 -247 22
-34 64 -52 122 -52 61 0 104 20 124 58 66 128 90 448 39 535 -36 60 -131 85
-200 51z m122 -76 c23 -20 27 -33 32 -99 9 -124 -24 -342 -60 -387 -6 -8 -27
-12 -55 -10 -56 4 -75 27 -98 118 -24 97 -16 205 25 301 20 48 40 80 54 87 36
17 74 13 102 -10z"/>
<path d="M5365 2166 c-18 -43 -29 -319 -14 -347 14 -27 51 -23 81 9 23 24 28
41 38 135 7 59 9 115 6 123 -3 8 0 24 7 35 10 16 9 24 -3 47 -13 22 -24 28
-58 30 -40 3 -43 1 -57 -32z m78 -56 c18 -89 -19 -280 -53 -280 -12 0 -7 284
5 313 13 32 39 15 48 -33z"/>
<path d="M5086 2284 c-9 -8 -16 -24 -16 -35 0 -12 -14 -35 -32 -52 -23 -23
-33 -42 -33 -67 -3 -65 -15 -205 -21 -232 -3 -15 -12 -32 -20 -39 -20 -17 -17
-72 6 -101 15 -19 35 -27 89 -36 38 -7 79 -12 89 -12 30 0 35 29 11 69 -19 32
-21 45 -14 116 4 44 10 116 13 161 6 68 11 85 35 113 34 40 34 74 2 106 -28
29 -85 34 -109 9z m48 -40 c21 -8 20 -19 -6 -55 -18 -23 -20 -34 -11 -47 7
-13 7 -42 -3 -107 -18 -119 -17 -204 1 -249 l16 -37 -48 7 c-26 3 -56 11 -65
16 -21 10 -24 51 -4 67 21 17 34 85 41 204 5 78 3 107 -5 107 -7 0 0 13 13 30
14 16 28 39 32 50 7 21 14 24 39 14z"/>
<path d="M3848 2184 c-40 -88 -64 -159 -72 -219 l-5 -40 16 35 c27 61 104 282
100 293 -1 5 -19 -26 -39 -69z"/>
<path d="M1895 2148 c-3 -24 -5 -88 -3 -143 l3 -100 10 143 c6 78 7 142 3 142
-4 0 -10 -19 -13 -42z"/>
<path d="M2061 2128 c5 -35 9 -100 10 -146 3 -123 21 -85 22 50 1 75 -3 121
-11 136 -22 38 -29 24 -21 -40z"/>
<path d="M2172 2030 l1 -95 9 64 c7 42 7 74 0 95 -8 25 -10 13 -10 -64z"/>
<path d="M2287 2074 c3 -27 7 -51 9 -53 8 -9 3 75 -5 88 -5 8 -7 -5 -4 -35z"/>
<path d="M455 1645 c6 -32 -13 -58 -59 -82 -17 -9 -19 -25 -21 -169 -2 -129 0
-163 13 -182 13 -20 13 -32 2 -90 -7 -37 -14 -101 -15 -142 -2 -74 -2 -74 11
-35 12 39 12 39 7 -25 -3 -36 -7 -67 -9 -68 -1 -2 -21 -6 -44 -9 l-41 -6 6 39
c14 101 37 317 42 394 4 68 2 89 -11 105 -15 19 -15 18 -16 -23 0 -23 -9 -108
-21 -190 -12 -81 -22 -186 -23 -234 0 -51 -5 -88 -11 -88 -5 0 -63 9 -127 19
-64 10 -123 14 -130 10 -42 -26 254 -65 346 -46 l39 8 -6 -29 c-5 -26 -4 -29
17 -25 22 5 23 11 29 104 8 129 -2 329 -18 352 -9 13 -11 57 -7 160 5 139 5
143 33 175 30 34 36 66 18 92 -8 11 -9 7 -4 -15z"/>
<path d="M2085 1590 c2 -4 -7 -12 -20 -18 -16 -8 -25 -19 -24 -34 1 -13 -6
-58 -15 -101 -9 -44 -19 -131 -23 -194 -6 -105 -8 -116 -29 -130 -30 -19 -48
-72 -35 -104 13 -34 52 -68 90 -79 34 -9 135 10 171 33 12 7 31 7 63 -1 69
-18 102 -15 135 13 31 26 42 24 42 -7 0 -20 16 -25 18 -5 1 11 19 106 41 207
5 25 15 107 22 182 l13 137 50 7 c66 10 547 6 560 -5 6 -4 22 -2 36 5 14 8 20
14 15 14 -6 0 -9 17 -7 40 2 22 0 40 -4 40 -14 0 -36 -16 -35 -26 0 -5 -8 -8
-17 -6 -28 6 -45 4 -87 -7 -51 -13 -115 -14 -115 -1 0 6 -17 10 -38 10 -20 0
-53 5 -72 12 -23 7 -143 12 -345 14 -170 1 -329 4 -352 6 -23 3 -40 1 -38 -2z
m825 -50 c-8 -5 -40 -9 -70 -9 -50 2 -52 2 -20 9 55 12 108 12 90 0z m-275
-10 l-50 -7 49 -1 c67 -3 56 -8 -31 -16 -69 -6 -73 -5 -73 14 0 18 6 20 78 18
72 -1 74 -2 27 -8z m-403 -47 c17 -9 -14 -53 -37 -53 -23 1 -56 36 -49 53 5
14 14 16 43 11 20 -4 39 -8 43 -11z"/>
<path d="M3775 1561 c-3 -2 -1 -9 3 -15 4 -6 7 -20 7 -31 0 -16 7 -20 35 -21
81 -1 111 -4 107 -11 -3 -5 9 -8 26 -9 105 -3 214 -18 230 -32 14 -12 22 -14
36 -5 23 14 288 17 616 6 143 -5 292 -8 330 -7 l70 1 -3 34 c-4 63 -15 66
-259 68 -152 1 -254 -4 -335 -15 -94 -13 -134 -14 -205 -5 -48 6 -123 11 -165
11 -65 0 -79 3 -91 20 -12 18 -16 18 -33 5 -10 -8 -14 -15 -9 -16 6 0 -26 -7
-70 -13 -96 -15 -210 -2 -226 27 -9 15 -52 21 -64 8z"/>
<path d="M3230 1538 c-23 -9 -20 -11 40 -29 94 -27 206 -39 356 -39 99 0 134
3 143 14 27 32 -14 40 -238 48 -119 4 -229 9 -246 12 -16 3 -41 0 -55 -6z"/>
<path d="M4 1456 c-3 -8 -4 -25 -2 -38 l3 -23 145 4 c139 3 210 17 210 39 0 5
-36 10 -80 11 -44 1 -106 6 -137 11 -84 14 -133 13 -139 -4z"/>
<path d="M5303 1437 c-3 -61 -24 -329 -28 -353 -5 -31 -7 -32 -72 -39 -63 -7
-93 -21 -93 -44 0 -6 -7 -8 -15 -5 -23 9 -18 -7 12 -38 33 -35 40 -99 24 -224
-18 -135 -15 -129 -66 -129 -39 0 -45 3 -50 25 l-7 25 -14 -27 c-14 -26 -19
-28 -77 -28 -35 0 -68 5 -74 11 -6 6 -51 13 -99 16 -61 3 -86 1 -79 -6 6 -6
45 -12 88 -13 42 -2 77 -6 77 -10 0 -5 36 -8 80 -8 65 0 81 3 89 18 9 15 10
15 11 1 0 -18 28 -29 74 -29 23 0 27 -3 23 -20 -3 -11 -1 -20 4 -20 5 0 9 10
10 23 0 12 2 29 3 37 2 8 9 63 16 121 15 130 10 211 -15 239 -18 20 -18 20 9
20 23 0 26 3 20 25 -6 24 -5 25 49 25 50 0 55 -2 61 -25 4 -14 4 -35 1 -48 -9
-33 -21 -397 -14 -397 4 0 9 30 12 68 3 37 15 146 27 242 24 199 38 564 23
573 -5 3 -10 1 -10 -6z"/>
<path d="M3044 1363 c-11 -78 -10 -175 2 -195 6 -11 9 30 9 118 0 74 0 134 -2
134 -1 0 -5 -26 -9 -57z"/>
<path d="M2720 1307 l5 -92 3 84 c2 46 -1 88 -5 92 -4 5 -6 -33 -3 -84z"/>
<path d="M3288 1195 c2 -93 5 -174 7 -180 7 -20 3 291 -4 320 -4 17 -6 -46 -3
-140z"/>
<path d="M4115 1295 c2 -11 7 -58 11 -105 10 -125 25 -154 19 -38 -2 55 -11
111 -20 130 -8 18 -13 24 -10 13z"/>
<path d="M3656 1239 c-8 -84 -8 -189 2 -189 4 0 8 56 10 125 1 69 1 125 -1
125 -2 0 -7 -28 -11 -61z"/>
<path d="M4921 1254 c1 -27 5 -74 9 -104 6 -40 7 -27 3 45 -6 104 -14 144 -12
59z"/>
<path d="M4408 1183 c-2 -49 0 -110 3 -138 3 -31 6 3 7 88 2 152 -5 186 -10
50z"/>
<path d="M5168 1208 c5 -95 9 -104 11 -25 0 42 -2 77 -6 77 -5 0 -7 -24 -5
-52z"/>
<path d="M4731 1188 c-6 -18 -13 -53 -16 -78 -3 -25 -8 -60 -11 -78 -4 -23 -2
-32 5 -27 6 3 11 23 11 43 0 20 7 66 14 102 15 72 14 90 -3 38z"/>
<path d="M2548 1108 c-19 -24 -27 -28 -33 -18 -6 9 -4 11 6 5 11 -6 11 -5 2 5
-20 22 -33 2 -17 -28 20 -38 18 -55 -5 -49 -17 4 -18 2 -9 -19 6 -13 16 -24
22 -24 6 -1 -2 -7 -19 -14 l-30 -14 28 -11 c16 -6 32 -11 37 -11 5 0 24 -21
41 -47 18 -27 37 -50 43 -52 5 -2 20 -14 33 -27 31 -31 91 -47 193 -50 78 -2
191 -13 327 -30 36 -4 60 -2 81 9 17 8 41 12 55 10 22 -4 23 -7 16 -46 -14
-74 -23 -257 -12 -257 10 0 23 141 23 243 0 41 3 48 18 45 15 -3 17 -17 15
-123 -1 -87 1 -109 7 -80 5 22 9 77 9 123 l1 82 -44 12 c-25 6 -43 15 -40 20
9 14 -44 28 -104 28 -32 0 -70 7 -87 16 -19 10 -42 13 -63 9 -34 -6 -126 11
-149 27 -6 5 -27 6 -46 3 -45 -9 -107 13 -107 36 0 10 -19 33 -42 53 -41 33
-42 36 -25 53 16 17 18 16 47 0 l30 -18 0 29 c0 44 -30 66 -85 60 -50 -6 -56
1 -22 32 22 21 22 22 3 36 -34 24 -71 17 -98 -18z m182 -79 c15 -27 10 -30
-26 -21 -42 12 -63 4 -71 -26 -3 -15 -14 -37 -23 -49 l-17 -22 -22 24 c-11 14
-17 25 -12 25 6 0 11 15 13 33 2 27 9 34 38 44 57 20 108 16 120 -8z"/>
<path d="M2964 980 c1 -61 6 -114 12 -120 5 -6 8 36 6 110 -2 66 -7 120 -12
120 -5 0 -8 -50 -6 -110z"/>
<path d="M3787 960 c-58 -63 -67 -83 -43 -97 29 -17 63 -193 37 -193 -17 0
-21 16 -12 46 9 31 5 54 -10 54 -4 0 -6 -7 -3 -15 3 -8 -3 -31 -15 -50 l-20
-35 27 -14 c43 -22 103 -28 170 -17 41 7 83 7 124 0 38 -6 65 -6 70 -1 20 20
-19 25 -159 24 -135 0 -143 1 -143 19 0 10 5 19 10 19 6 0 10 9 10 20 0 11 20
49 45 86 46 67 55 94 32 94 -8 0 -25 27 -38 61 l-25 61 -57 -62z m76 -31 c17
-55 19 -46 -29 -125 l-16 -27 -27 49 -26 49 35 52 c19 29 37 53 40 53 4 0 14
-23 23 -51z"/>
<path d="M4630 939 c0 -16 -15 -59 -34 -94 -36 -68 -38 -110 -6 -120 11 -3 21
-20 24 -40 8 -43 37 -47 63 -8 10 14 30 38 45 53 17 17 23 31 18 40 -4 7 -12
10 -18 6 -5 -3 -12 9 -16 27 -25 125 -76 217 -76 136z m25 -96 c3 -21 12 -49
19 -62 12 -22 11 -30 -7 -64 l-20 -39 -13 32 c-8 17 -22 34 -32 37 -18 4 -18
8 7 69 14 35 29 64 33 64 3 0 9 -17 13 -37z"/>
<path d="M4160 815 l-51 -94 27 -43 c75 -122 90 -132 124 -76 18 30 22 32 87
34 38 2 81 7 96 13 18 7 35 8 46 2 12 -7 31 -5 57 4 32 11 36 15 20 21 -10 4
-26 2 -36 -4 -13 -8 -21 -7 -29 1 -8 8 -23 8 -56 -1 -78 -21 -158 -12 -141 17
15 24 -48 181 -73 181 -5 0 -7 9 -4 20 13 49 -20 12 -67 -75z m80 -29 c0 -17
6 -42 13 -56 12 -23 11 -29 -13 -62 l-27 -37 -33 41 -33 40 34 70 c30 61 35
67 46 52 7 -10 13 -32 13 -48z"/>
<path d="M4912 770 l2 -135 5 125 c4 69 3 129 -1 135 -5 5 -7 -52 -6 -125z"/>
<path d="M3512 757 c-1 -33 -8 -64 -16 -72 -11 -11 -16 -8 -30 22 -9 20 -19
33 -22 31 -2 -3 7 -25 21 -49 13 -24 25 -38 25 -31 0 15 112 17 141 1 22 -11
79 -3 79 12 0 5 -11 9 -23 9 -13 0 -38 7 -56 16 -22 11 -44 14 -71 9 l-39 -7
-4 59 -3 58 -2 -58z"/>
</g>
</svg>
