<?xml version="1.0" standalone="no"?>
<!DOCTYPE svg PUBLIC "-//W3C//DTD SVG 20010904//EN"
 "http://www.w3.org/TR/2001/REC-SVG-20010904/DTD/svg10.dtd">
<svg version="1.0" xmlns="http://www.w3.org/2000/svg"
 width="1660.000000pt" height="1021.000000pt" viewBox="0 0 1660.000000 1021.000000"
 preserveAspectRatio="xMidYMid meet">

<g transform="translate(0.000000,1021.000000) scale(0.100000,-0.100000)"
fill="#000000" stroke="none">
<path d="M9755 10100 c-31 -124 -30 -162 5 -255 46 -118 156 -202 322 -244
338 -86 844 35 1094 263 64 58 113 138 159 261 41 109 28 98 -18 -16 -48 -117
-86 -178 -144 -230 -135 -122 -363 -222 -608 -266 -119 -22 -354 -22 -452 0
-170 38 -287 123 -333 243 -34 89 -34 119 -6 231 29 112 30 123 17 123 -5 0
-21 -50 -36 -110z"/>
<path d="M9633 9519 c4 -12 -2 -18 -23 -23 -66 -13 -132 -124 -116 -193 11
-46 74 -129 129 -172 71 -54 205 -117 306 -142 199 -50 350 7 442 166 45 79
37 135 -23 154 -18 5 -139 26 -268 46 -129 20 -254 41 -277 47 -50 12 -127 64
-155 105 -11 15 -18 21 -15 12z m33 -50 c26 -29 91 -65 140 -78 22 -6 155 -29
295 -51 223 -35 256 -43 272 -62 26 -32 17 -75 -32 -147 -71 -104 -153 -146
-281 -146 -195 1 -443 129 -527 272 -44 75 -22 157 57 211 41 27 52 28 76 1z"/>
<path d="M9200 8991 c-59 -14 -65 -16 -72 -26 -12 -16 -9 -28 6 -22 8 3 19 -7
29 -28 61 -127 221 -200 304 -139 39 29 44 95 11 143 -41 61 -69 74 -160 77
-46 2 -99 -1 -118 -5z m210 -26 c45 -23 70 -66 70 -120 0 -43 -2 -47 -35 -61
-19 -7 -46 -14 -60 -14 -59 0 -151 59 -198 127 -37 54 -37 66 -2 74 58 13 195
10 225 -6z"/>
<path d="M12444 8090 c-11 -4 -35 -25 -53 -46 -31 -35 -33 -41 -28 -93 2 -31
7 -63 11 -72 6 -15 2 -15 -46 -3 -29 8 -57 12 -63 10 -5 -2 8 -7 30 -11 22 -4
56 -16 76 -26 87 -43 192 -206 192 -296 0 -64 -33 -92 -223 -188 -259 -132
-509 -304 -590 -407 -22 -27 -53 -78 -70 -114 -17 -35 -42 -72 -56 -80 -13 -9
-63 -21 -112 -27 -157 -18 -326 7 -917 135 -279 61 -280 61 -335 104 -71 55
-145 89 -267 120 -155 40 -279 20 -378 -60 -63 -52 -89 -112 -83 -190 9 -102
46 -155 148 -206 88 -44 146 -52 450 -59 328 -8 319 -6 393 -100 64 -81 83
-129 96 -240 22 -179 59 -210 253 -211 115 0 283 23 411 56 33 8 91 18 129 21
66 6 70 5 108 -26 21 -17 41 -31 44 -31 3 0 26 16 52 35 25 19 53 35 61 35 9
0 32 -17 52 -38 52 -55 95 -82 163 -103 108 -34 199 -22 505 66 584 167 806
253 1040 404 138 88 174 148 108 181 -25 13 -83 15 -370 12 -482 -4 -617 12
-684 82 l-34 35 20 33 c29 51 139 121 353 225 222 109 283 148 358 227 93 98
128 216 102 340 -20 96 -93 161 -237 210 -128 44 -153 64 -222 183 -35 61 -47
73 -83 87 -89 32 -254 47 -304 26z m254 -21 c67 -14 94 -37 134 -112 52 -97
89 -128 203 -167 118 -41 191 -90 225 -150 21 -39 25 -58 25 -135 0 -78 -4
-97 -27 -145 -62 -125 -169 -211 -387 -311 -234 -107 -373 -196 -407 -260 -14
-28 -13 -32 6 -59 27 -38 64 -57 148 -77 55 -13 140 -16 477 -18 226 0 422 -4
437 -9 35 -10 44 -40 23 -72 -39 -60 -325 -223 -525 -299 -193 -74 -740 -236
-914 -271 -151 -31 -271 0 -372 96 -29 28 -58 50 -64 50 -18 0 -64 -27 -84
-49 -25 -28 -32 -27 -73 9 -44 39 -91 39 -266 1 -183 -41 -291 -54 -417 -49
-90 3 -114 7 -137 24 -42 30 -63 82 -73 180 -7 64 -19 106 -40 149 -34 70
-111 162 -149 177 -15 7 -149 14 -311 19 -310 8 -365 15 -453 62 -97 51 -137
113 -137 215 0 56 29 110 85 160 90 79 212 99 367 58 116 -30 206 -71 270
-124 32 -27 63 -42 100 -50 29 -6 179 -38 333 -72 464 -100 548 -113 725 -114
202 -1 218 6 274 120 29 58 58 98 111 150 95 94 347 260 541 357 83 42 165 87
182 102 76 64 62 168 -41 303 -23 30 -57 65 -76 79 l-36 24 30 -6 c25 -5 27
-4 8 4 -23 10 -43 63 -43 113 0 30 50 94 84 109 25 11 172 4 244 -12z"/>
<path d="M4546 5688 c-70 -9 -124 -39 -190 -107 -41 -41 -51 -60 -62 -108 -6
-32 -15 -65 -18 -74 -10 -24 24 -59 69 -70 22 -5 88 -6 147 -3 l107 7 18 -32
c22 -37 30 -38 92 -7 66 34 108 71 131 117 29 55 25 96 -12 159 -57 94 -153
135 -282 118z m173 -34 c56 -28 102 -81 121 -140 27 -80 -48 -176 -172 -223
-24 -9 -29 -7 -40 17 l-13 27 -136 0 c-114 0 -139 3 -163 18 -26 17 -28 23
-22 60 15 94 25 114 91 176 74 68 124 89 221 90 46 1 72 -5 113 -25z"/>
<path d="M10052 5520 c-60 -13 -112 -40 -134 -71 -32 -43 -16 -73 103 -190 60
-58 109 -111 109 -118 0 -20 -54 -5 -145 39 -96 47 -153 92 -172 137 -7 19
-20 36 -27 39 -16 6 -361 -161 -438 -213 -95 -63 -162 -127 -193 -184 -26 -48
-30 -64 -30 -136 0 -74 3 -85 30 -125 20 -27 44 -47 65 -55 39 -13 267 -16
370 -5 36 4 79 5 95 2 29 -5 30 -7 37 -72 3 -39 18 -92 33 -125 27 -60 89
-133 112 -133 8 0 37 12 66 27 93 48 176 35 302 -47 110 -72 166 -82 296 -55
137 29 203 29 340 1 227 -47 311 -37 579 64 74 28 191 72 259 97 69 26 150 64
181 85 66 44 154 134 145 148 -10 16 -102 12 -213 -10 -56 -11 -117 -20 -134
-20 -27 0 -30 3 -23 23 15 47 11 60 -20 68 -39 11 -253 -5 -430 -31 -196 -29
-315 -29 -383 0 -49 21 -82 57 -82 90 0 18 82 100 127 127 24 14 42 27 39 30
-2 2 -38 -3 -80 -11 -148 -31 -218 -14 -202 48 3 14 61 80 128 146 67 66 120
121 117 123 -2 3 -46 -1 -97 -9 -52 -7 -99 -11 -105 -9 -7 2 -24 6 -39 9 -20
5 -53 37 -113 114 -92 114 -134 149 -223 182 -63 24 -186 34 -250 20z m230
-30 c83 -25 136 -65 196 -143 26 -34 70 -86 98 -114 l51 -53 69 0 c38 1 87 5
109 9 l40 8 -107 -107 c-59 -59 -110 -119 -114 -134 -10 -41 3 -75 34 -87 26
-10 137 -4 171 9 9 3 -8 -18 -36 -47 -42 -43 -53 -60 -53 -86 0 -46 32 -80 96
-104 74 -28 168 -27 392 4 99 13 236 26 304 27 122 3 123 3 121 -19 -2 -13 -4
-33 -5 -45 -3 -21 1 -23 48 -21 29 1 97 11 152 23 107 21 172 26 172 11 0 -20
-129 -124 -189 -153 -35 -17 -152 -62 -260 -101 -108 -38 -234 -84 -281 -101
-79 -29 -94 -31 -210 -30 -88 1 -154 7 -224 22 -121 27 -149 27 -278 2 -185
-36 -216 -30 -380 72 -65 40 -157 63 -203 49 -17 -4 -51 -18 -77 -30 -35 -17
-51 -20 -65 -12 -51 27 -113 166 -113 252 0 38 -4 51 -20 59 -13 7 -89 8 -227
4 -251 -8 -280 -3 -321 58 -23 36 -27 52 -27 112 0 115 54 190 209 295 52 36
409 211 429 211 7 0 21 -16 31 -35 24 -44 103 -105 187 -145 61 -28 131 -41
145 -27 13 12 -23 57 -122 152 -90 86 -104 104 -104 132 0 64 78 101 216 102
55 1 103 -6 146 -19z"/>
<path d="M11396 5209 c-59 -9 -127 -41 -159 -76 -15 -17 -23 -18 -70 -10 -67
12 -110 -5 -115 -45 -3 -23 2 -28 45 -41 26 -8 75 -18 108 -21 37 -4 87 -19
130 -39 118 -56 147 -68 152 -63 3 2 -10 12 -28 21 l-33 17 25 14 c74 41 188
25 270 -38 124 -93 218 -111 345 -63 36 14 68 25 70 25 2 0 4 -9 4 -20 0 -12
12 -32 26 -47 40 -40 95 -30 257 51 92 46 155 70 198 77 82 14 306 3 379 -18
46 -13 88 -15 250 -9 227 8 255 13 255 46 0 29 -79 75 -199 116 -77 27 -88 28
-236 25 -366 -8 -343 -10 -461 36 -59 23 -129 45 -156 49 -58 7 -154 -14 -226
-51 -62 -32 -66 -31 -112 5 -26 21 -49 30 -74 30 -21 0 -77 -13 -126 -30 -105
-36 -126 -37 -151 -9 -29 32 -90 60 -142 64 -118 11 -171 12 -226 4z m283 -45
c20 -8 54 -29 75 -46 l39 -31 111 36 c62 20 124 37 138 37 15 0 49 -14 77 -31
l50 -31 43 24 c51 30 125 54 189 63 39 6 69 -1 200 -45 l154 -53 100 7 c55 3
141 9 190 12 126 9 233 -13 357 -73 157 -75 136 -89 -149 -99 -171 -6 -206 -5
-249 10 -92 30 -354 46 -442 26 -23 -6 -96 -35 -162 -66 -169 -79 -220 -82
-220 -14 0 50 -19 54 -111 20 -130 -47 -203 -37 -308 43 -118 88 -255 101
-333 30 -17 -15 -22 -14 -80 15 -39 20 -92 36 -138 42 -41 6 -90 16 -108 22
-28 8 -31 12 -20 25 10 12 26 14 83 8 67 -6 71 -5 95 20 30 32 66 52 117 65
53 13 258 2 302 -16z"/>
<path d="M4921 5186 c2 -2 42 -11 89 -21 91 -18 241 -72 299 -107 47 -29 189
-166 207 -200 8 -15 14 -41 14 -58 0 -59 -151 -180 -224 -180 -18 0 -36 15
-68 58 -61 80 -75 84 -290 77 -212 -7 -218 -6 -218 66 0 61 12 73 177 186 59
40 103 73 99 73 -15 0 -247 -163 -266 -187 -27 -35 -28 -113 0 -138 18 -16 35
-17 197 -11 216 7 230 4 291 -76 39 -52 47 -58 80 -58 67 0 189 87 227 161 24
45 5 89 -77 175 -84 88 -150 133 -254 175 -86 35 -305 85 -283 65z"/>
<path d="M2280 4484 c-52 -8 -155 -28 -227 -44 -169 -38 -321 -57 -548 -70
-99 -5 -219 -17 -267 -26 -79 -15 -88 -18 -88 -38 0 -32 23 -40 264 -97 342
-80 483 -124 791 -247 216 -86 267 -100 463 -122 278 -33 463 -59 518 -75 28
-8 138 -26 245 -40 107 -14 210 -30 229 -35 19 -6 62 -9 95 -9 33 1 49 4 35 6
-14 2 -70 13 -125 23 -55 11 -172 29 -260 40 -88 11 -180 27 -205 35 -46 15
-308 52 -557 79 -161 18 -225 36 -475 135 -237 94 -413 149 -673 211 -255 60
-325 80 -325 91 0 19 125 38 335 49 226 13 377 32 558 71 281 60 462 73 638
43 148 -24 577 -203 829 -344 325 -183 357 -191 551 -145 63 14 146 29 185 32
l70 6 74 -82 c91 -101 130 -130 293 -217 137 -73 168 -97 199 -158 l20 -39
-21 -20 c-27 -28 -55 -26 -276 18 -202 41 -270 45 -365 21 -165 -42 -313 -124
-558 -310 -143 -107 -204 -146 -231 -146 -23 0 -31 38 -20 92 18 82 60 155
145 251 44 49 99 111 123 138 30 34 39 49 27 49 -9 0 -15 -4 -13 -8 1 -5 -48
-63 -109 -130 -116 -127 -157 -191 -180 -276 -18 -67 -18 -96 2 -117 13 -14
21 -16 47 -7 38 13 55 24 222 149 157 117 248 175 357 230 89 45 245 89 314
89 24 0 132 -18 240 -40 236 -48 257 -49 289 -14 22 24 23 27 8 62 -33 82 -54
98 -268 213 -86 46 -115 69 -208 163 l-107 109 -78 -6 c-42 -3 -124 -17 -182
-31 -182 -45 -227 -36 -435 84 -259 149 -678 338 -870 392 -96 27 -361 33
-495 12z"/>
<path d="M14852 4090 c-38 -9 -65 -31 -93 -77 -25 -40 -20 -39 -324 -58 -427
-27 -545 -42 -670 -82 -150 -48 -195 -80 -324 -231 -108 -128 -219 -168 -566
-207 -180 -21 -248 -37 -363 -86 -52 -22 -121 -47 -153 -55 -67 -17 -81 -16
-368 37 -177 32 -219 30 -242 -13 -23 -42 58 -98 275 -189 69 -29 76 -34 61
-45 -10 -7 -42 -18 -72 -24 -29 -7 -84 -22 -121 -34 -52 -18 -68 -28 -70 -44
-2 -12 1 -22 7 -22 6 0 11 -4 11 -9 0 -16 -77 -47 -345 -139 -474 -163 -729
-276 -804 -356 -51 -54 -10 -121 94 -152 219 -65 736 -78 1175 -28 178 20 424
70 480 97 66 32 64 53 -9 125 -66 64 -74 87 -38 120 28 26 178 92 275 121 69
21 91 35 77 49 -3 3 -55 9 -116 12 -129 7 -149 17 -130 72 39 112 125 161 407
235 174 45 183 46 319 45 93 0 163 4 208 14 l68 16 28 62 c34 75 89 139 145
169 34 18 58 22 136 22 89 0 98 -2 139 -30 l45 -30 155 0 c145 1 166 3 306 38
128 31 160 36 220 30 64 -5 81 -2 178 32 77 26 116 35 137 30 19 -4 30 -3 30
5 0 34 349 290 446 327 14 5 16 3 10 -13 -8 -21 -7 -21 50 46 21 25 29 37 18
27 -20 -16 -28 -17 -90 -6 -38 7 -73 15 -77 19 -4 4 20 17 55 30 81 29 228
100 228 110 0 15 -79 20 -320 20 -160 0 -280 5 -345 15 -55 8 -102 14 -105 14
-3 -1 -20 -5 -38 -9z m183 -30 c39 -5 187 -10 330 -10 l260 -1 -67 -33 c-36
-18 -107 -48 -157 -67 -50 -19 -89 -38 -88 -44 2 -5 46 -16 98 -24 52 -8 88
-16 81 -18 -6 -3 -9 -10 -6 -15 4 -7 2 -8 -4 -4 -14 9 -76 -23 -172 -87 -96
-65 -261 -189 -279 -210 -7 -10 -26 -17 -41 -17 -14 0 -71 -16 -126 -35 -86
-30 -112 -35 -194 -35 -72 0 -125 -7 -214 -30 -238 -60 -428 -62 -509 -7 -46
31 -101 41 -175 32 -117 -14 -185 -66 -251 -191 -34 -66 -38 -70 -85 -81 -27
-7 -124 -14 -215 -16 -144 -4 -182 -8 -286 -35 -161 -41 -290 -86 -345 -120
-58 -36 -110 -112 -110 -162 0 -49 26 -61 150 -69 l95 -6 -100 -33 c-55 -19
-136 -52 -180 -75 -77 -41 -80 -43 -83 -81 -3 -36 1 -44 59 -102 52 -53 60
-65 50 -78 -40 -48 -420 -115 -776 -136 -611 -36 -1048 29 -1010 150 22 70
305 201 805 373 291 100 333 116 365 142 20 16 20 16 0 31 -17 13 -18 16 -5
24 15 10 140 50 156 50 43 0 114 37 114 59 0 8 -56 35 -192 91 -82 33 -168 92
-168 114 0 8 14 19 31 26 27 12 58 8 245 -25 270 -47 296 -46 464 22 153 62
180 68 400 93 372 44 443 76 628 288 50 57 78 79 135 106 147 70 279 91 791
125 l279 18 51 56 c28 30 58 58 66 61 16 6 68 2 185 -14z"/>
<path d="M5069 3469 c-94 -10 -189 -49 -189 -78 0 -48 19 -70 84 -100 94 -43
167 -121 245 -265 66 -120 103 -163 197 -225 l43 -28 -77 -36 c-95 -43 -157
-63 -247 -78 -154 -25 -387 -113 -650 -244 -253 -126 -359 -165 -449 -165 -68
0 -218 36 -276 65 -100 51 -129 57 -300 65 -181 8 -209 16 -298 82 -37 28 -52
33 -100 33 -104 0 -187 -62 -155 -114 11 -17 131 -91 148 -91 5 0 -17 16 -50
35 -111 62 -120 95 -36 135 69 32 146 25 198 -17 75 -60 96 -65 269 -74 179
-8 219 -16 314 -64 78 -40 192 -65 289 -65 101 0 206 37 416 145 277 144 479
220 701 264 100 21 217 63 279 101 18 11 40 20 49 20 10 0 15 4 12 8 -3 5 26
40 64 77 39 38 70 73 70 77 0 4 -36 -29 -80 -74 l-79 -80 -32 19 c-84 54 -145
121 -194 214 -90 168 -174 260 -280 303 -110 46 -52 116 116 137 52 6 120 6
202 0 204 -17 329 -50 441 -117 106 -64 152 -75 346 -84 96 -5 189 -13 205
-20 67 -25 98 -85 76 -144 -6 -15 -34 -54 -62 -87 -69 -79 -66 -91 54 -170 50
-34 104 -72 119 -84 34 -29 119 -61 212 -81 43 -9 168 -19 314 -24 255 -10
329 -18 427 -51 55 -18 117 -47 105 -49 -3 0 -79 -5 -170 -10 -295 -17 -429
-67 -407 -152 12 -42 114 -145 174 -175 53 -25 65 -27 168 -26 60 1 174 11
253 22 78 12 154 21 167 21 14 0 47 11 73 24 55 28 190 65 347 96 135 27 140
29 194 74 50 42 74 44 276 25 155 -15 153 -16 598 160 395 156 564 215 659
230 114 19 476 32 584 21 54 -5 143 -10 198 -10 94 0 101 2 182 40 47 22 91
40 100 40 24 0 67 -26 99 -60 35 -37 81 -63 145 -81 l45 -12 -35 -8 c-69 -15
-321 -30 -680 -39 -381 -10 -536 -25 -644 -61 -84 -29 -230 -104 -418 -216
-197 -117 -413 -228 -528 -272 -206 -79 -449 -130 -760 -161 -241 -24 -299
-34 -340 -55 -81 -42 1 -73 391 -144 179 -33 343 -66 364 -73 39 -13 71 -48
77 -82 2 -14 -18 -36 -72 -78 -109 -84 -131 -93 -195 -78 -49 12 -60 10 -146
-15 -267 -80 -339 -90 -394 -57 -16 10 -42 43 -60 77 -50 97 -58 100 -253 97
-92 -1 -177 0 -189 3 -16 4 -34 27 -58 76 -37 73 -67 99 -137 120 -20 7 -48 9
-61 5 -14 -3 -93 -51 -176 -106 -188 -124 -239 -150 -310 -157 -72 -7 -66 0
87 92 100 61 120 78 140 116 64 124 -75 196 -264 138 -83 -26 -130 -49 -173
-85 -34 -28 -137 -174 -124 -174 4 0 24 23 43 51 85 124 209 197 355 206 169
10 219 -103 83 -190 -29 -19 -92 -58 -140 -88 -49 -29 -88 -59 -88 -66 0 -17
62 -27 113 -19 51 8 111 42 286 158 157 106 178 115 231 99 56 -17 91 -50 124
-119 18 -38 38 -64 54 -72 18 -8 72 -9 182 -4 189 8 215 0 250 -74 26 -56 54
-88 94 -109 44 -23 139 -11 297 37 168 50 185 53 237 42 61 -14 95 -2 192 72
73 55 86 62 95 47 8 -13 10 -11 15 14 7 42 118 121 190 135 74 14 189 12 241
-3 24 -8 114 -44 200 -80 173 -74 265 -94 379 -82 114 12 254 65 338 128 19
14 67 65 107 112 110 130 194 188 313 214 75 16 276 14 369 -4 102 -20 135
-19 213 5 98 31 282 60 374 60 98 0 138 -17 376 -161 175 -107 237 -133 433
-184 185 -47 271 -82 397 -158 58 -36 146 -89 195 -119 50 -30 115 -63 145
-73 30 -10 104 -37 164 -62 133 -53 215 -74 411 -107 173 -29 219 -43 281 -88
38 -27 56 -33 113 -36 37 -2 112 3 168 12 150 24 195 21 472 -31 l254 -48
-159 -6 c-139 -6 -172 -11 -264 -38 -115 -35 -317 -73 -625 -119 -300 -45
-319 -46 -411 -23 -125 31 -219 42 -361 42 -153 0 -228 -12 -327 -50 -123 -49
-245 -66 -471 -66 -181 0 -212 3 -335 29 -260 55 -428 48 -750 -31 -195 -47
-330 -53 -605 -24 -424 44 -482 41 -805 -39 -165 -41 -225 -51 -390 -65 -258
-21 -450 -43 -531 -60 -36 -8 -135 -21 -220 -30 -378 -38 -451 -47 -564 -70
-149 -30 -346 -85 -626 -175 -180 -58 -219 -74 -233 -95 -19 -29 -14 -61 12
-67 10 -3 89 1 177 9 170 16 499 13 516 -4 21 -21 -36 -45 -215 -91 -201 -52
-245 -72 -159 -72 47 0 332 68 371 89 56 30 66 87 19 113 -26 15 -398 18 -571
4 -75 -5 -106 -5 -102 2 4 6 102 42 219 81 410 135 621 186 902 216 83 9 213
23 290 31 77 8 156 19 175 24 54 14 251 38 510 60 209 19 257 26 431 70 318
80 377 83 824 34 226 -24 400 -16 585 29 327 79 464 84 755 28 133 -26 183
-31 305 -32 210 0 365 24 519 81 151 55 382 61 594 13 160 -35 204 -34 562 22
292 46 448 77 555 111 73 23 107 28 245 31 l161 5 94 -50 c52 -28 129 -62 172
-76 142 -46 471 -87 568 -71 35 6 41 10 38 28 -8 59 -354 162 -690 207 -87 11
-276 43 -420 70 -288 55 -332 58 -481 34 -56 -9 -133 -14 -171 -12 -60 3 -78
8 -116 34 -64 44 -116 60 -302 89 -190 29 -269 50 -405 104 -54 21 -116 44
-138 50 -42 11 -108 48 -322 179 -154 94 -232 126 -443 181 -176 47 -279 93
-450 200 -170 107 -232 134 -314 139 -92 6 -222 -13 -383 -54 -132 -34 -133
-34 -195 -18 -35 8 -124 18 -198 21 -275 11 -378 -38 -578 -274 -60 -71 -142
-122 -260 -161 -65 -22 -95 -26 -192 -26 -127 0 -127 0 -410 120 l-115 49
-125 0 c-140 -1 -172 -11 -262 -80 -34 -26 -48 -32 -48 -22 0 32 -51 77 -103
92 -29 8 -187 38 -352 66 -299 51 -395 74 -402 96 -8 23 44 33 372 67 521 56
772 140 1240 418 327 194 427 239 585 262 151 22 409 36 685 36 341 0 584 27
573 62 -2 6 -31 17 -64 24 -88 18 -130 38 -179 88 -25 24 -58 47 -73 51 -29 6
-93 -12 -134 -38 -13 -9 -45 -22 -71 -31 -44 -15 -66 -15 -254 -1 -114 9 -214
13 -222 10 -9 -4 -83 -9 -166 -11 -82 -2 -184 -9 -225 -14 -101 -14 -301 -82
-695 -238 -426 -168 -422 -167 -555 -156 -58 4 -141 8 -185 9 -79 0 -81 -1
-131 -41 -48 -38 -62 -43 -190 -68 -162 -33 -290 -68 -346 -97 -23 -12 -75
-24 -122 -29 -44 -5 -115 -14 -156 -21 -123 -19 -297 -17 -352 4 -65 25 -181
147 -176 185 7 62 173 108 431 118 86 4 157 10 157 14 0 15 -40 41 -98 65 -90
37 -216 53 -487 64 -332 14 -378 26 -571 155 -104 69 -134 94 -134 113 0 7 22
37 49 67 103 113 85 223 -41 257 -22 5 -117 14 -211 19 -191 9 -213 14 -333
84 -44 25 -117 56 -164 69 -139 40 -345 60 -481 46z m9931 -2454 c199 -26 338
-58 518 -121 56 -20 102 -41 102 -46 0 -23 -322 8 -474 44 -97 24 -372 152
-306 143 19 -2 91 -12 160 -20z"/>
<path d="M1993 2360 c-92 -10 -176 -35 -383 -116 -294 -116 -490 -223 -490
-269 0 -23 126 -145 199 -193 113 -75 192 -85 430 -57 91 10 139 21 175 39 68
34 170 128 258 239 77 96 192 195 280 240 29 15 46 27 40 27 -23 0 -128 -58
-183 -101 -29 -24 -119 -109 -199 -190 -178 -180 -202 -193 -381 -214 -228
-27 -299 -17 -405 56 -68 47 -164 138 -164 155 0 38 345 199 645 301 143 48
245 57 595 50 270 -4 291 -4 250 10 -83 28 -489 41 -667 23z"/>
<path d="M2855 2269 l-50 -29 62 6 c60 6 64 5 122 -33 52 -35 108 -57 288
-111 21 -7 20 -9 -20 -77 -48 -82 -86 -188 -94 -265 -5 -54 -4 -58 28 -95 42
-48 83 -65 154 -65 70 0 205 54 205 82 0 15 -11 12 -75 -19 -69 -32 -81 -35
-146 -31 -67 4 -73 6 -105 41 -39 42 -41 64 -19 152 19 74 86 216 116 246 15
15 19 26 13 37 -5 8 -61 33 -124 56 -132 48 -160 62 -214 105 -48 38 -75 38
-141 0z"/>
<path d="M15505 2045 c-51 -25 -49 -26 18 -4 33 11 40 10 55 -4 13 -14 14 -17
2 -17 -10 0 -11 -3 -4 -8 28 -18 24 -49 -11 -95 -44 -58 -100 -91 -190 -111
-322 -73 -348 -80 -380 -115 -19 -22 -18 -22 29 -70 l47 -48 -36 -47 c-20 -27
-35 -50 -33 -51 6 -6 628 174 673 194 46 21 90 65 80 80 -3 6 -38 11 -78 11
-103 0 -108 7 -53 69 25 28 46 57 46 64 0 7 -11 29 -25 47 -19 26 -24 42 -19
62 3 17 1 28 -5 28 -6 0 -20 9 -31 20 -25 25 -25 25 -85 -5z m115 -35 c0 -5
-5 -10 -11 -10 -5 0 -7 5 -4 10 3 6 8 10 11 10 2 0 4 -4 4 -10z m14 -82 c24
-34 20 -47 -30 -100 -25 -27 -44 -54 -41 -61 2 -8 31 -13 78 -15 100 -3 107
-7 80 -36 -13 -14 -35 -29 -49 -35 -28 -11 -616 -181 -627 -181 -3 0 5 18 17
40 l23 39 -44 45 c-37 38 -42 48 -32 60 20 23 102 50 261 86 181 40 233 62
290 128 25 28 48 51 52 52 4 0 14 -10 22 -22z"/>
<path d="M6255 1603 c-16 -3 -34 -9 -40 -14 -11 -11 52 -1 75 12 16 9 14 9
-35 2z"/>
<path d="M5825 1221 c-9 -8 -372 -101 -690 -176 -149 -35 -254 -68 -371 -116
-307 -126 -426 -163 -829 -260 -559 -135 -935 -249 -1108 -335 -185 -93 -338
-142 -522 -164 -55 -7 -254 -11 -506 -11 -398 1 -423 0 -561 -23 -164 -28
-491 -98 -558 -120 l-45 -14 93 -1 c71 -1 137 8 285 38 356 73 375 75 717 67
584 -12 789 20 1105 174 197 96 465 179 1118 344 363 92 532 147 747 241 91
40 212 89 270 108 158 54 859 239 872 231 4 -3 5 2 2 10 -7 19 -7 19 -19 7z"/>
<path d="M13315 373 c-320 -7 -627 -34 -985 -88 -308 -47 -465 -62 -740 -75
-129 -5 -390 -22 -580 -35 -232 -18 -494 -29 -800 -35 -611 -12 -861 -28
-1455 -95 -170 -19 -330 -36 -355 -38 -25 -2 39 -4 143 -5 130 -1 240 4 360
17 433 49 763 69 1340 81 304 6 561 17 787 34 184 14 443 30 575 36 292 13
368 20 702 70 503 75 747 93 1328 94 339 1 449 -2 480 -12 27 -9 147 -16 375
-22 213 -6 408 -17 535 -30 167 -18 342 -29 870 -54 28 -1 59 -7 70 -13 17 -9
157 -17 460 -27 39 -1 94 -6 123 -10 51 -8 52 -8 52 16 0 23 -5 26 -72 37 -40
7 -179 15 -308 18 -216 4 -236 6 -253 24 -18 19 -19 19 -43 0 -20 -15 -31 -17
-62 -10 -20 5 -156 16 -302 24 -275 16 -388 25 -600 51 -69 9 -280 20 -470 25
-190 5 -444 13 -565 18 -210 9 -343 10 -610 4z"/>
<path d="M14420 120 c-917 -6 -1059 -9 -1160 -24 -124 -18 -261 -45 -380 -75
l-75 -19 50 -1 c28 -1 100 10 160 23 314 70 433 76 1775 77 1333 1 1455 -3
1660 -60 41 -12 93 -20 115 -20 39 1 39 2 -10 9 -28 4 -91 19 -140 33 -103 30
-233 44 -495 52 -365 11 -469 11 -1500 5z"/>
<path d="M7748 3 c12 -2 30 -2 40 0 9 3 -1 5 -23 4 -22 0 -30 -2 -17 -4z"/>
</g>
</svg>
