<?xml version="1.0" standalone="no"?>
<!DOCTYPE svg PUBLIC "-//W3C//DTD SVG 20010904//EN"
 "http://www.w3.org/TR/2001/REC-SVG-20010904/DTD/svg10.dtd">
<svg version="1.0" xmlns="http://www.w3.org/2000/svg"
 width="1660.000000pt" height="1660.000000pt" viewBox="0 0 1660.000000 1660.000000"
 preserveAspectRatio="xMidYMid meet">

<g transform="translate(0.000000,1660.000000) scale(0.100000,-0.100000)"
fill="#000000" stroke="none">
<path d="M4546 15398 c-70 -9 -124 -39 -190 -107 -41 -41 -51 -60 -62 -108 -6
-32 -15 -65 -18 -74 -10 -24 24 -59 69 -70 22 -5 88 -6 147 -3 l107 7 18 -32
c22 -37 30 -38 92 -7 66 34 108 71 131 117 29 55 25 96 -12 159 -57 94 -153
135 -282 118z m173 -34 c56 -28 102 -81 121 -140 27 -80 -48 -176 -172 -223
-24 -9 -29 -7 -40 17 l-13 27 -136 0 c-114 0 -139 3 -163 18 -26 17 -28 23
-22 60 15 94 25 114 91 176 74 68 124 89 221 90 46 1 72 -5 113 -25z"/>
<path d="M10052 15230 c-60 -13 -112 -40 -134 -71 -32 -43 -16 -73 103 -190
60 -58 109 -111 109 -118 0 -20 -54 -5 -145 39 -96 47 -153 92 -172 137 -7 19
-20 36 -27 39 -16 6 -361 -161 -438 -213 -95 -63 -162 -127 -193 -184 -26 -48
-30 -64 -30 -136 0 -74 3 -85 30 -125 20 -27 44 -47 65 -55 39 -13 267 -16
370 -5 36 4 79 5 95 2 29 -5 30 -7 37 -72 3 -39 18 -92 33 -125 27 -60 89
-133 112 -133 8 0 37 12 66 27 93 48 176 35 302 -47 110 -72 166 -82 296 -55
137 29 203 29 340 1 227 -47 311 -37 579 64 74 28 191 72 259 97 69 26 150 64
181 85 66 44 154 134 145 148 -10 16 -102 12 -213 -10 -56 -11 -117 -20 -134
-20 -27 0 -30 3 -23 23 15 47 11 60 -20 68 -39 11 -253 -5 -430 -31 -196 -29
-315 -29 -383 0 -49 21 -82 57 -82 90 0 18 82 100 127 127 24 14 42 27 39 30
-2 2 -38 -3 -80 -11 -148 -31 -218 -14 -202 48 3 14 61 80 128 146 67 66 120
121 117 123 -2 3 -46 -1 -97 -9 -52 -7 -99 -11 -105 -9 -7 2 -24 6 -39 9 -20
5 -53 37 -113 114 -92 114 -134 149 -223 182 -63 24 -186 34 -250 20z m230
-30 c83 -25 136 -65 196 -143 26 -34 70 -86 98 -114 l51 -53 69 0 c38 1 87 5
109 9 l40 8 -107 -107 c-59 -59 -110 -119 -114 -134 -10 -41 3 -75 34 -87 26
-10 137 -4 171 9 9 3 -8 -18 -36 -47 -42 -43 -53 -60 -53 -86 0 -46 32 -80 96
-104 74 -28 168 -27 392 4 99 13 236 26 304 27 122 3 123 3 121 -19 -2 -13 -4
-33 -5 -45 -3 -21 1 -23 48 -21 29 1 97 11 152 23 107 21 172 26 172 11 0 -20
-129 -124 -189 -153 -35 -17 -152 -62 -260 -101 -108 -38 -234 -84 -281 -101
-79 -29 -94 -31 -210 -30 -88 1 -154 7 -224 22 -121 27 -149 27 -278 2 -185
-36 -216 -30 -380 72 -65 40 -157 63 -203 49 -17 -4 -51 -18 -77 -30 -35 -17
-51 -20 -65 -12 -51 27 -113 166 -113 252 0 38 -4 51 -20 59 -13 7 -89 8 -227
4 -251 -8 -280 -3 -321 58 -23 36 -27 52 -27 112 0 115 54 190 209 295 52 36
409 211 429 211 7 0 21 -16 31 -35 24 -44 103 -105 187 -145 61 -28 131 -41
145 -27 13 12 -23 57 -122 152 -90 86 -104 104 -104 132 0 64 78 101 216 102
55 1 103 -6 146 -19z"/>
<path d="M4921 14896 c2 -2 42 -11 89 -21 91 -18 241 -72 299 -107 47 -29 189
-166 207 -200 8 -15 14 -41 14 -58 0 -59 -151 -180 -224 -180 -18 0 -36 15
-68 58 -61 80 -75 84 -290 77 -212 -7 -218 -6 -218 66 0 61 12 73 177 186 59
40 103 73 99 73 -15 0 -247 -163 -266 -187 -27 -35 -28 -113 0 -138 18 -16 35
-17 197 -11 216 7 230 4 291 -76 39 -52 47 -58 80 -58 67 0 189 87 227 161 24
45 5 89 -77 175 -84 88 -150 133 -254 175 -86 35 -305 85 -283 65z"/>
<path d="M2280 14194 c-52 -8 -155 -28 -227 -44 -169 -38 -321 -57 -548 -70
-99 -5 -219 -17 -267 -26 -79 -15 -88 -18 -88 -38 0 -32 23 -40 264 -97 342
-80 483 -124 791 -247 216 -86 267 -100 463 -122 278 -33 463 -59 518 -75 28
-8 138 -26 245 -40 107 -14 210 -30 229 -35 19 -6 62 -9 95 -9 33 1 49 4 35 6
-14 2 -70 13 -125 23 -55 11 -172 29 -260 40 -88 11 -180 27 -205 35 -46 15
-308 52 -557 79 -161 18 -225 36 -475 135 -237 94 -413 149 -673 211 -255 60
-325 80 -325 91 0 19 125 38 335 49 226 13 377 32 558 71 281 60 462 73 638
43 148 -24 577 -203 829 -344 325 -183 357 -191 551 -145 63 14 146 29 185 32
l70 6 74 -82 c91 -101 130 -130 293 -217 137 -73 168 -97 199 -158 l20 -39
-21 -20 c-27 -28 -55 -26 -276 18 -202 41 -270 45 -365 21 -165 -42 -313 -124
-558 -310 -143 -107 -204 -146 -231 -146 -23 0 -31 38 -20 92 18 82 60 155
145 251 44 49 99 111 123 138 30 34 39 49 27 49 -9 0 -15 -4 -13 -8 1 -5 -48
-63 -109 -130 -116 -127 -157 -191 -180 -276 -18 -67 -18 -96 2 -117 13 -14
21 -16 47 -7 38 13 55 24 222 149 157 117 248 175 357 230 89 45 245 89 314
89 24 0 132 -18 240 -40 236 -48 257 -49 289 -14 22 24 23 27 8 62 -33 82 -54
98 -268 213 -86 46 -115 69 -208 163 l-107 109 -78 -6 c-42 -3 -124 -17 -182
-31 -182 -45 -227 -36 -435 84 -259 149 -678 338 -870 392 -96 27 -361 33
-495 12z"/>
<path d="M14852 13800 c-38 -9 -65 -31 -93 -77 -25 -40 -20 -39 -324 -58 -427
-27 -545 -42 -670 -82 -150 -48 -195 -80 -324 -231 -108 -128 -219 -168 -566
-207 -180 -21 -248 -37 -363 -86 -52 -22 -121 -47 -153 -55 -67 -17 -81 -16
-368 37 -177 32 -219 30 -242 -13 -23 -42 58 -98 275 -189 69 -29 76 -34 61
-45 -10 -7 -42 -18 -72 -24 -29 -7 -84 -22 -121 -34 -52 -18 -68 -28 -70 -44
-2 -12 1 -22 7 -22 6 0 11 -4 11 -9 0 -16 -77 -47 -345 -139 -474 -163 -729
-276 -804 -356 -51 -54 -10 -121 94 -152 219 -65 736 -78 1175 -28 178 20 424
70 480 97 66 32 64 53 -9 125 -66 64 -74 87 -38 120 28 26 178 92 275 121 69
21 91 35 77 49 -3 3 -55 9 -116 12 -129 7 -149 17 -130 72 39 112 125 161 407
235 174 45 183 46 319 45 93 0 163 4 208 14 l68 16 28 62 c34 75 89 139 145
169 34 18 58 22 136 22 89 0 98 -2 139 -30 l45 -30 155 0 c145 1 166 3 306 38
128 31 160 36 220 30 64 -5 81 -2 178 32 77 26 116 35 137 30 19 -4 30 -3 30
5 0 34 349 290 446 327 14 5 16 3 10 -13 -8 -21 -7 -21 50 46 21 25 29 37 18
27 -20 -16 -28 -17 -90 -6 -38 7 -73 15 -77 19 -4 4 20 17 55 30 81 29 228
100 228 110 0 15 -79 20 -320 20 -160 0 -280 5 -345 15 -55 8 -102 14 -105 14
-3 -1 -20 -5 -38 -9z m183 -30 c39 -5 187 -10 330 -10 l260 -1 -67 -33 c-36
-18 -107 -48 -157 -67 -50 -19 -89 -38 -88 -44 2 -5 46 -16 98 -24 52 -8 88
-16 81 -18 -6 -3 -9 -10 -6 -15 4 -7 2 -8 -4 -4 -14 9 -76 -23 -172 -87 -96
-65 -261 -189 -279 -210 -7 -10 -26 -17 -41 -17 -14 0 -71 -16 -126 -35 -86
-30 -112 -35 -194 -35 -72 0 -125 -7 -214 -30 -238 -60 -428 -62 -509 -7 -46
31 -101 41 -175 32 -117 -14 -185 -66 -251 -191 -34 -66 -38 -70 -85 -81 -27
-7 -124 -14 -215 -16 -144 -4 -182 -8 -286 -35 -161 -41 -290 -86 -345 -120
-58 -36 -110 -112 -110 -162 0 -49 26 -61 150 -69 l95 -6 -100 -33 c-55 -19
-136 -52 -180 -75 -77 -41 -80 -43 -83 -81 -3 -36 1 -44 59 -102 52 -53 60
-65 50 -78 -40 -48 -420 -115 -776 -136 -611 -36 -1048 29 -1010 150 22 70
305 201 805 373 291 100 333 116 365 142 20 16 20 16 0 31 -17 13 -18 16 -5
24 15 10 140 50 156 50 43 0 114 37 114 59 0 8 -56 35 -192 91 -82 33 -168 92
-168 114 0 8 14 19 31 26 27 12 58 8 245 -25 270 -47 296 -46 464 22 153 62
180 68 400 93 372 44 443 76 628 288 50 57 78 79 135 106 147 70 279 91 791
125 l279 18 51 56 c28 30 58 58 66 61 16 6 68 2 185 -14z"/>
<path d="M5069 13179 c-94 -10 -189 -49 -189 -78 0 -48 19 -70 84 -100 94 -43
167 -121 245 -265 66 -120 103 -163 197 -225 l43 -28 -77 -36 c-95 -43 -157
-63 -247 -78 -154 -25 -387 -113 -650 -244 -253 -126 -359 -165 -449 -165 -68
0 -218 36 -276 65 -100 51 -129 57 -300 65 -181 8 -209 16 -298 82 -37 28 -52
33 -100 33 -104 0 -187 -62 -155 -114 11 -17 131 -91 148 -91 5 0 -17 16 -50
35 -111 62 -120 95 -36 135 69 32 146 25 198 -17 75 -60 96 -65 269 -74 179
-8 219 -16 314 -64 78 -40 192 -65 289 -65 101 0 206 37 416 145 277 144 479
220 701 264 100 21 217 63 279 101 18 11 40 20 49 20 10 0 15 4 12 8 -3 5 26
40 64 77 39 38 70 73 70 77 0 4 -36 -29 -80 -74 l-79 -80 -32 19 c-84 54 -145
121 -194 214 -90 168 -174 260 -280 303 -110 46 -52 116 116 137 52 6 120 6
202 0 204 -17 329 -50 441 -117 106 -64 152 -75 346 -84 96 -5 189 -13 205
-20 67 -25 98 -85 76 -144 -6 -15 -34 -54 -62 -87 -69 -79 -66 -91 54 -170 50
-34 104 -72 119 -84 34 -29 119 -61 212 -81 43 -9 168 -19 314 -24 255 -10
329 -18 427 -51 55 -18 117 -47 105 -49 -3 0 -79 -5 -170 -10 -295 -17 -429
-67 -407 -152 12 -42 114 -145 174 -175 53 -25 65 -27 168 -26 60 1 174 11
253 22 78 12 154 21 167 21 14 0 47 11 73 24 55 28 190 65 347 96 135 27 140
29 194 74 50 42 74 44 276 25 155 -15 153 -16 598 160 395 156 564 215 659
230 114 19 476 32 584 21 54 -5 143 -10 198 -10 94 0 101 2 182 40 47 22 91
40 100 40 24 0 67 -26 99 -60 35 -37 81 -63 145 -81 l45 -12 -35 -8 c-69 -15
-321 -30 -680 -39 -381 -10 -536 -25 -644 -61 -84 -29 -230 -104 -418 -216
-197 -117 -413 -228 -528 -272 -206 -79 -449 -130 -760 -161 -241 -24 -299
-34 -340 -55 -81 -42 1 -73 391 -144 179 -33 343 -66 364 -73 39 -13 71 -48
77 -82 2 -14 -18 -36 -72 -78 -109 -84 -131 -93 -195 -78 -49 12 -60 10 -146
-15 -267 -80 -339 -90 -394 -57 -16 10 -42 43 -60 77 -50 97 -58 100 -253 97
-92 -1 -177 0 -189 3 -16 4 -34 27 -58 76 -37 73 -67 99 -137 120 -20 7 -48 9
-61 5 -14 -3 -93 -51 -176 -106 -188 -124 -239 -150 -310 -157 -72 -7 -66 0
87 92 100 61 120 78 140 116 64 124 -75 196 -264 138 -83 -26 -130 -49 -173
-85 -34 -28 -137 -174 -124 -174 4 0 24 23 43 51 85 124 209 197 355 206 169
10 219 -103 83 -190 -29 -19 -92 -58 -140 -88 -49 -29 -88 -59 -88 -66 0 -17
62 -27 113 -19 51 8 111 42 286 158 157 106 178 115 231 99 56 -17 91 -50 124
-119 18 -38 38 -64 54 -72 18 -8 72 -9 182 -4 189 8 215 0 250 -74 26 -56 54
-88 94 -109 44 -23 139 -11 297 37 168 50 185 53 237 42 61 -14 95 -2 192 72
73 55 86 62 95 47 8 -13 10 -11 15 14 7 42 118 121 190 135 74 14 189 12 241
-3 24 -8 114 -44 200 -80 173 -74 265 -94 379 -82 114 12 254 65 338 128 19
14 67 65 107 112 110 130 194 188 313 214 75 16 276 14 369 -4 102 -20 135
-19 213 5 98 31 282 60 374 60 98 0 138 -17 376 -161 175 -107 237 -133 433
-184 185 -47 271 -82 397 -158 58 -36 146 -89 195 -119 50 -30 115 -63 145
-73 30 -10 104 -37 164 -62 133 -53 215 -74 411 -107 173 -29 219 -43 281 -88
38 -27 56 -33 113 -36 37 -2 112 3 168 12 150 24 195 21 472 -31 l254 -48
-159 -6 c-139 -6 -172 -11 -264 -38 -115 -35 -317 -73 -625 -119 -300 -45
-319 -46 -411 -23 -125 31 -219 42 -361 42 -153 0 -228 -12 -327 -50 -123 -49
-245 -66 -471 -66 -181 0 -212 3 -335 29 -260 55 -428 48 -750 -31 -195 -47
-330 -53 -605 -24 -424 44 -482 41 -805 -39 -165 -41 -225 -51 -390 -65 -258
-21 -450 -43 -531 -60 -36 -8 -135 -21 -220 -30 -378 -38 -451 -47 -564 -70
-149 -30 -346 -85 -626 -175 -180 -58 -219 -74 -233 -95 -19 -29 -14 -61 12
-67 10 -3 89 1 177 9 170 16 499 13 516 -4 21 -21 -36 -45 -215 -91 -184 -48
-233 -69 -209 -93 8 -8 128 -15 380 -21 416 -10 511 -6 993 47 604 66 854 82
1473 95 304 6 561 17 787 34 184 14 443 30 575 36 292 13 368 20 702 70 503
75 747 93 1328 94 339 1 449 -2 480 -12 27 -9 147 -16 375 -22 213 -6 408 -17
535 -30 167 -18 342 -29 870 -54 28 -1 59 -7 70 -13 17 -9 157 -17 460 -27 39
-1 94 -6 123 -10 51 -8 52 -8 52 16 0 23 -5 26 -72 37 -40 7 -179 15 -308 18
-216 4 -236 6 -253 24 -18 19 -19 19 -43 0 -20 -15 -31 -17 -62 -10 -20 5
-156 16 -302 24 -275 16 -389 25 -600 51 -69 9 -276 20 -460 24 -184 5 -447
14 -585 20 -257 11 -627 6 -910 -11 -220 -13 -410 -34 -675 -74 -308 -47 -465
-62 -740 -75 -129 -5 -390 -22 -580 -35 -232 -18 -494 -29 -800 -35 -611 -12
-861 -28 -1455 -95 -429 -48 -607 -58 -800 -48 -88 4 -223 6 -300 4 -77 -2
-138 -1 -135 2 3 3 52 17 110 32 154 38 195 53 220 80 27 29 22 68 -13 87 -26
15 -398 18 -571 4 -75 -5 -106 -5 -102 2 4 6 102 42 219 81 410 135 621 186
902 216 83 9 213 23 290 31 77 8 156 19 175 24 54 14 251 38 510 60 209 19
257 26 431 70 318 80 377 83 824 34 226 -24 400 -16 585 29 327 79 464 84 755
28 133 -26 183 -31 305 -32 210 0 365 24 519 81 151 55 382 61 594 13 160 -35
204 -34 562 22 292 46 448 77 555 111 73 23 107 28 245 31 l161 5 94 -50 c52
-28 129 -62 172 -76 142 -46 471 -87 568 -71 35 6 41 10 38 28 -8 59 -354 162
-690 207 -87 11 -276 43 -420 70 -288 55 -332 58 -481 34 -56 -9 -133 -14
-171 -12 -60 3 -78 8 -116 34 -64 44 -116 60 -302 89 -190 29 -269 50 -405
104 -54 21 -116 44 -138 50 -42 11 -108 48 -322 179 -154 94 -232 126 -443
181 -176 47 -279 93 -450 200 -170 107 -232 134 -314 139 -92 6 -222 -13 -383
-54 -132 -34 -133 -34 -195 -18 -35 8 -124 18 -198 21 -275 11 -378 -38 -578
-274 -60 -71 -142 -122 -260 -161 -65 -22 -95 -26 -192 -26 -127 0 -127 0
-410 120 l-115 49 -125 0 c-140 -1 -172 -11 -262 -80 -34 -26 -48 -32 -48 -22
0 32 -51 77 -103 92 -29 8 -187 38 -352 66 -299 51 -395 74 -402 96 -8 23 44
33 372 67 521 56 772 140 1240 418 327 194 427 239 585 262 151 22 409 36 685
36 341 0 584 27 573 62 -2 6 -31 17 -64 24 -88 18 -130 38 -179 88 -25 24 -58
47 -73 51 -29 6 -93 -12 -134 -38 -13 -9 -45 -22 -71 -31 -44 -15 -66 -15
-254 -1 -114 9 -214 13 -222 10 -9 -4 -83 -9 -166 -11 -82 -2 -184 -9 -225
-14 -101 -14 -301 -82 -695 -238 -426 -168 -422 -167 -555 -156 -58 4 -141 8
-185 9 -79 0 -81 -1 -131 -41 -48 -38 -62 -43 -190 -68 -162 -33 -290 -68
-346 -97 -23 -12 -75 -24 -122 -29 -44 -5 -115 -14 -156 -21 -123 -19 -297
-17 -352 4 -65 25 -181 147 -176 185 7 62 173 108 431 118 86 4 157 10 157 14
0 15 -40 41 -98 65 -90 37 -216 53 -487 64 -332 14 -378 26 -571 155 -104 69
-134 94 -134 113 0 7 22 37 49 67 103 113 85 223 -41 257 -22 5 -117 14 -211
19 -191 9 -213 14 -333 84 -44 25 -117 56 -164 69 -139 40 -345 60 -481 46z
m9931 -2454 c199 -26 338 -58 518 -121 56 -20 102 -41 102 -46 0 -23 -322 8
-474 44 -97 24 -372 152 -306 143 19 -2 91 -12 160 -20z"/>
<path d="M1993 12070 c-92 -10 -176 -35 -383 -116 -294 -116 -490 -223 -490
-269 0 -23 126 -145 199 -193 113 -75 192 -85 430 -57 91 10 139 21 175 39 68
34 170 128 258 239 77 96 192 195 280 240 29 15 46 27 40 27 -23 0 -128 -58
-183 -101 -29 -24 -119 -109 -199 -190 -178 -180 -202 -193 -381 -214 -228
-27 -299 -17 -405 56 -68 47 -164 138 -164 155 0 38 345 199 645 301 143 48
245 57 595 50 270 -4 291 -4 250 10 -83 28 -489 41 -667 23z"/>
<path d="M2860 11979 l-45 -29 61 6 c58 6 63 5 106 -28 45 -34 128 -68 255
-105 l62 -18 -36 -60 c-47 -79 -92 -203 -100 -275 -5 -55 -4 -58 32 -98 64
-72 159 -82 283 -31 68 28 87 43 167 126 104 107 109 109 465 229 165 56 206
66 269 68 50 1 75 -3 78 -11 3 -7 -45 -64 -106 -127 -61 -63 -111 -118 -111
-123 0 -22 30 -45 100 -76 151 -69 302 -87 410 -49 30 11 141 63 245 117 134
68 205 99 238 102 63 7 62 -1 -13 -141 -67 -126 -73 -152 -35 -162 34 -8 144
4 231 26 93 24 160 59 317 164 139 93 213 123 328 133 78 7 130 -8 159 -44 30
-38 25 -62 -30 -138 -53 -73 -61 -104 -33 -126 18 -16 104 -15 131 0 13 8 9 9
-18 5 -19 -3 -41 -7 -48 -10 -18 -5 -58 12 -65 29 -3 8 18 48 49 93 58 83 62
99 39 144 -32 62 -124 82 -250 56 -104 -22 -160 -48 -297 -142 -172 -117 -264
-153 -435 -170 -92 -8 -93 -6 -13 136 67 120 76 164 36 179 -42 16 -106 -7
-333 -121 -222 -111 -222 -112 -307 -116 -70 -4 -100 0 -175 22 -99 28 -191
70 -191 87 0 5 42 54 94 107 106 109 123 138 100 171 -32 45 -167 19 -489 -94
-241 -85 -289 -112 -355 -192 -46 -57 -69 -75 -140 -111 -81 -42 -88 -43 -158
-40 -71 3 -76 5 -108 41 -39 42 -42 68 -18 160 17 67 72 184 111 235 33 43 27
49 -97 92 -115 40 -184 73 -230 111 -43 36 -73 36 -130 -2z"/>
<path d="M15505 11755 c-51 -25 -49 -26 18 -4 33 11 40 10 55 -4 13 -14 14
-17 2 -17 -10 0 -11 -3 -4 -8 28 -18 24 -49 -11 -95 -44 -58 -100 -91 -190
-111 -322 -73 -348 -80 -380 -115 -19 -22 -18 -22 29 -70 l47 -48 -36 -47
c-20 -27 -35 -50 -33 -51 6 -6 628 174 673 194 46 21 90 65 80 80 -3 6 -38 11
-78 11 -103 0 -108 7 -53 69 25 28 46 57 46 64 0 7 -11 29 -25 47 -19 26 -24
42 -19 62 3 17 1 28 -5 28 -6 0 -20 9 -31 20 -25 25 -25 25 -85 -5z m115 -35
c0 -5 -5 -10 -11 -10 -5 0 -7 5 -4 10 3 6 8 10 11 10 2 0 4 -4 4 -10z m14 -82
c24 -34 20 -47 -30 -100 -25 -27 -44 -54 -41 -61 2 -8 31 -13 78 -15 100 -3
107 -7 80 -36 -13 -14 -35 -29 -49 -35 -28 -11 -616 -181 -627 -181 -3 0 5 18
17 40 l23 39 -44 45 c-37 38 -42 48 -32 60 20 23 102 50 261 86 181 40 233 62
290 128 25 28 48 51 52 52 4 0 14 -10 22 -22z"/>
<path d="M5735 10904 c-71 -19 -267 -68 -435 -109 -346 -84 -400 -100 -619
-189 -211 -86 -370 -136 -666 -207 -626 -152 -1001 -264 -1193 -358 -193 -96
-330 -138 -517 -161 -55 -7 -254 -11 -506 -11 -398 1 -423 0 -560 -23 -338
-57 -577 -117 -732 -182 -80 -33 -105 -53 -91 -75 9 -15 28 -11 98 20 110 50
242 87 471 134 385 79 400 81 745 73 584 -12 786 19 1105 174 188 91 400 159
925 294 140 37 318 83 395 103 184 47 366 110 523 179 249 111 400 158 992
310 102 26 189 51 195 56 5 4 7 8 5 7 -3 0 -63 -16 -135 -35z"/>
<path d="M14420 9830 c-1230 -8 -1147 -1 -1692 -136 -451 -112 -496 -115
-1718 -119 l-895 -2 -240 -31 c-282 -37 -558 -65 -850 -87 -115 -8 -318 -27
-450 -40 -190 -20 -312 -26 -590 -29 -409 -5 -608 -23 -1075 -101 -429 -71
-688 -59 -1085 50 -222 61 -236 62 -420 31 -108 -19 -214 -45 -325 -81 -216
-71 -333 -98 -575 -134 -110 -17 -272 -44 -359 -61 -104 -20 -172 -28 -195
-24 -72 14 -143 44 -184 79 -40 34 -45 36 -92 30 -27 -4 -106 -19 -175 -35
-69 -16 -193 -40 -275 -55 -185 -32 -218 -42 -233 -66 -14 -22 -5 -47 31 -86
l20 -22 -29 -11 c-29 -12 -335 1 -412 16 l-33 7 50 28 c27 16 52 37 56 47 13
43 -24 87 -100 121 -48 22 -228 26 -310 7 -112 -27 -129 -56 -69 -117 l36 -37
-22 -12 c-40 -21 -167 -4 -221 31 -25 16 -51 29 -56 29 -6 0 -20 16 -32 35
-20 34 -34 40 -86 36 -32 -3 -115 -32 -182 -63 -77 -36 -129 -37 -215 -5 -92
35 -340 87 -413 87 -93 0 -314 -29 -344 -45 -38 -19 -53 -40 -49 -67 5 -35 43
-48 144 -48 73 0 111 -6 190 -30 69 -22 134 -34 214 -40 117 -8 170 -3 245 24
22 8 63 16 90 16 35 1 44 4 30 9 -16 7 -9 10 33 20 29 6 74 22 100 35 75 37
192 71 192 55 0 -5 -7 -9 -15 -9 -9 0 -18 -8 -22 -17 -3 -10 -15 -28 -25 -39
-19 -22 -19 -22 4 -44 13 -12 39 -30 60 -41 20 -10 53 -39 73 -64 35 -42 41
-45 86 -45 26 0 50 -4 53 -9 5 -8 -100 -61 -123 -61 -6 0 -27 18 -47 40 -53
58 -77 50 -33 -11 l21 -29 -23 -19 c-20 -16 -23 -30 -27 -108 -5 -100 5 -133
41 -133 35 0 48 14 54 58 6 44 16 51 98 66 27 6 32 2 53 -34 25 -44 53 -52 88
-25 16 12 17 14 2 15 -9 0 -33 20 -54 45 -42 52 -71 57 -141 25 -24 -10 -43
-15 -43 -9 0 5 8 12 18 16 111 37 211 106 199 136 -4 11 4 17 28 21 36 7 65
38 65 69 0 10 -11 29 -24 42 l-24 24 27 9 c73 27 85 67 35 117 -38 38 -38 38
36 54 59 14 207 14 215 1 7 -11 6 -11 -69 -14 -82 -3 -107 -57 -51 -113 12
-12 27 -40 33 -61 9 -29 20 -43 41 -52 21 -8 31 -20 33 -38 2 -21 9 -28 30
-30 22 -3 32 3 47 28 10 17 17 39 14 49 -4 16 2 17 57 10 113 -13 326 -21 369
-14 44 7 81 37 81 65 0 10 -11 33 -24 53 l-24 35 96 17 c98 17 331 63 452 90
128 28 200 -21 200 -137 0 -19 9 -33 26 -45 24 -15 38 -16 168 -4 194 16 394
2 473 -34 31 -14 66 -25 78 -25 27 0 75 36 75 57 0 10 6 13 18 8 50 -19 146
-35 217 -35 59 0 92 -6 125 -21 33 -15 73 -22 151 -26 105 -6 106 -5 190 31
47 20 92 36 100 36 9 0 37 -11 63 -25 63 -33 78 -32 107 13 32 50 102 86 149
76 19 -4 94 -6 166 -5 101 1 173 -5 325 -28 302 -46 365 -48 464 -16 11 4 -12
-11 -50 -32 -93 -51 -137 -82 -129 -94 3 -6 21 -1 42 12 21 12 65 37 100 55
58 31 65 33 86 19 12 -8 49 -20 82 -26 98 -17 144 -38 144 -65 0 -29 30 -61
66 -70 20 -5 49 4 113 34 75 36 103 43 216 58 72 9 162 27 200 40 39 13 111
30 160 37 86 11 100 10 300 -21 206 -33 314 -56 505 -108 86 -23 107 -25 230
-21 74 3 169 13 210 22 116 26 268 24 365 -4 67 -20 91 -22 155 -16 138 14
193 10 374 -28 98 -20 198 -37 221 -37 24 0 116 18 206 40 90 23 198 43 239
46 111 8 120 11 172 65 l47 49 154 0 153 0 12 -97 c7 -54 12 -134 13 -178 0
-48 7 -100 17 -130 l17 -50 -37 -102 c-29 -79 -38 -118 -38 -166 0 -91 12
-100 143 -103 56 -2 140 -6 186 -11 54 -6 90 -5 101 2 45 26 179 142 179 154
1 8 -17 74 -39 146 -21 72 -37 141 -34 152 3 12 -1 79 -10 148 -9 70 -14 130
-11 133 3 3 16 0 29 -8 17 -9 43 -10 93 -5 37 4 307 9 600 10 435 3 542 6 590
18 83 22 129 43 156 72 15 17 65 41 138 66 98 35 131 42 237 49 l122 8 128 61
c139 67 192 76 258 45 51 -24 58 -38 38 -69 -14 -21 -15 -30 -5 -52 11 -24 15
-25 57 -19 61 8 99 28 98 49 -1 11 16 28 45 45 41 24 58 27 151 30 69 3 134
-2 189 -12 46 -9 98 -16 116 -16 31 0 34 -2 33 -31 -1 -35 22 -59 58 -59 18 0
72 52 106 104 4 7 13 5 25 -5 10 -9 26 -19 36 -22 21 -8 105 9 123 24 18 15 6
39 -18 39 -17 0 -18 3 -8 15 11 13 15 12 32 -10 30 -38 78 -42 134 -11 26 14
52 26 60 26 7 0 21 11 32 25 19 24 20 24 37 5 29 -32 76 -24 214 35 70 30 135
55 144 55 44 0 63 72 27 105 -28 25 -76 16 -202 -37 l-105 -45 -27 22 -26 21
167 62 c168 62 168 62 275 62 104 0 108 1 124 25 15 23 15 27 0 50 -9 14 -29
28 -44 32 -15 4 -187 8 -382 8 -297 0 -373 -3 -462 -18 -106 -18 -107 -18
-195 4 -48 11 -124 25 -168 29 -77 7 -81 7 -103 -17 -18 -20 -20 -28 -11 -39
15 -19 9 -24 -32 -28 -19 -2 -45 -8 -60 -13 -101 -43 -249 -83 -349 -97 -464
-62 -438 -60 -547 -46 -119 14 -137 12 -338 -40 -163 -43 -266 -61 -475 -85
-190 -22 -294 -21 -445 5 -71 13 -173 23 -225 24 -84 1 -102 -2 -155 -27 -33
-15 -76 -41 -95 -56 -47 -37 -160 -94 -161 -81 -1 5 -2 16 -3 23 -2 19 -102
20 -253 3 -126 -15 -136 -15 -161 2 -21 14 -46 17 -132 15 -116 -2 -146 -6
-395 -58 -225 -46 -322 -53 -449 -30 -133 24 -281 17 -389 -19 -93 -31 -116
-32 -198 -6 -110 33 -300 77 -396 91 -85 12 -101 11 -200 -8 -88 -18 -129 -32
-219 -79 -67 -34 -123 -56 -140 -55 -274 12 -325 12 -471 -4 -154 -17 -402
-17 -445 0 -11 4 -18 3 -18 -4 0 -6 10 -11 22 -11 42 0 8 -12 -71 -26 l-80
-14 -27 25 c-25 23 -34 25 -128 25 -56 0 -148 -7 -205 -15 -70 -10 -108 -12
-115 -5 -5 5 -19 10 -30 10 -11 0 -47 9 -80 19 -230 74 -253 76 -290 29 l-25
-33 -113 1 c-94 1 -330 31 -552 69 -16 3 -69 0 -117 -7 -79 -10 -93 -10 -124
5 -20 9 -48 17 -63 17 -29 0 -152 -54 -152 -67 0 -4 -7 -16 -14 -26 -14 -17
-16 -18 -40 -2 -14 9 -45 23 -70 30 -43 13 -46 13 -118 -23 -70 -36 -77 -37
-178 -37 -87 0 -114 4 -158 23 -39 17 -76 23 -150 26 -53 2 -128 12 -165 22
-76 20 -76 20 -113 -42 -10 -17 -14 -17 -72 9 -100 45 -330 57 -578 31 l-62
-7 -3 47 c-2 25 -4 46 -4 46 0 0 25 -7 55 -15 77 -21 115 -19 285 14 83 17
231 42 330 56 238 35 355 62 565 130 187 61 395 105 498 105 44 0 123 -15 255
-49 473 -122 640 -127 1187 -36 386 65 619 85 1035 89 253 2 373 8 515 24 102
12 304 30 450 42 367 28 530 45 860 87 l285 37 575 0 c528 1 1271 17 1465 31
127 10 290 41 570 110 267 66 419 96 585 116 121 14 2136 28 2519 17 330 -9
447 -20 566 -53 49 -14 108 -24 130 -24 39 1 39 2 -10 9 -28 4 -91 19 -140 33
-103 30 -233 44 -495 52 -365 11 -469 11 -1500 5z m76 -386 c11 -44 -7 -76
-66 -111 -61 -36 -163 -63 -242 -63 -77 0 -161 48 -111 63 10 3 66 23 124 46
91 35 259 89 281 90 4 1 11 -11 14 -25z m973 -12 l55 -7 -162 -52 c-123 -41
-176 -53 -222 -53 l-62 0 -63 -60 c-68 -66 -66 -65 -222 -74 -38 -2 -60 -9
-76 -24 -21 -20 -25 -20 -43 -7 -10 8 -37 15 -60 15 -22 0 -83 7 -135 16 -64
11 -130 15 -209 12 -100 -4 -123 -8 -173 -32 -31 -15 -71 -39 -87 -53 l-30
-24 -36 28 c-33 24 -48 28 -118 31 l-81 3 -115 -57 c-113 -56 -117 -57 -225
-64 -114 -8 -154 -17 -292 -68 -80 -30 -81 -30 -99 -11 -23 25 -51 24 -116 -6
-67 -31 -175 -45 -323 -43 -60 1 -246 -4 -412 -10 l-302 -11 -133 -46 c-75
-26 -145 -45 -163 -43 -28 3 -30 6 -37 53 -6 42 -3 58 18 101 22 45 32 54 96
85 39 19 87 47 107 63 20 16 65 43 101 60 57 27 74 30 145 29 44 -1 127 -9
185 -18 58 -10 154 -20 214 -22 187 -9 509 34 741 99 149 42 151 42 325 43
117 1 205 6 265 17 50 9 142 24 205 33 63 8 126 17 140 20 20 3 18 1 -8 -11
-18 -8 -32 -20 -30 -27 2 -7 28 -25 58 -40 49 -26 62 -28 120 -23 88 8 153 28
223 70 39 24 57 30 57 21 0 -17 36 -38 50 -30 6 3 10 15 10 26 0 17 3 18 21 8
17 -9 29 -6 68 19 36 22 53 27 70 21 12 -5 41 -5 64 0 22 6 44 8 48 6 3 -3 48
3 100 11 177 29 422 41 548 26z m-302 -148 c-3 -3 -12 -4 -19 -1 -8 3 -5 6 6
6 11 1 17 -2 13 -5z m-4020 -233 c40 -37 79 -110 61 -116 -36 -11 -109 -17
-258 -21 -220 -6 -222 -6 -267 -59 -42 -50 -68 -61 -168 -69 -38 -3 -143 -23
-233 -46 -90 -22 -182 -40 -206 -40 -24 0 -124 17 -222 37 -182 38 -244 43
-369 29 -58 -7 -85 -4 -155 14 -102 27 -246 30 -360 6 -41 -9 -120 -20 -176
-26 -123 -13 -199 -3 -367 46 -105 30 -193 47 -427 81 -41 6 -36 8 60 19 222
26 376 36 450 29 161 -16 178 -14 255 32 80 48 131 68 228 89 130 27 262 12
543 -62 73 -18 146 -34 163 -34 17 0 31 -4 31 -8 0 -5 33 2 73 16 100 34 248
40 387 17 141 -24 308 -7 570 55 103 25 192 37 285 39 64 1 73 -1 102 -28z
m-8527 -26 c0 -12 -36 -45 -50 -45 -3 0 -5 20 -5 44 l0 44 28 -14 c15 -8 27
-21 27 -29z m-1452 10 c70 -14 156 -35 191 -47 l64 -21 -49 -19 c-43 -17 -66
-19 -184 -14 -114 4 -151 9 -234 35 -80 25 -116 31 -192 31 -90 0 -119 10 -71
26 28 9 225 31 295 33 29 0 110 -10 180 -24z m10362 0 c-17 -18 -20 -28 -13
-37 7 -8 7 -22 2 -35 -9 -24 -29 -32 -29 -12 0 7 -19 9 -57 5 -194 -19 -193
-19 -193 -1 0 9 -9 30 -21 47 -12 16 -20 31 -18 33 3 2 205 17 323 23 l29 2
-23 -25z m-9642 -114 c8 -5 12 -17 10 -27 -3 -15 -6 -14 -21 9 -18 27 -13 34
11 18z m9576 -29 c3 -5 17 -91 32 -193 16 -109 34 -200 46 -224 16 -34 80
-266 75 -271 -1 -1 -39 -29 -85 -63 -94 -70 -110 -73 -261 -46 -47 8 -99 12
-117 9 -18 -3 -42 -3 -53 1 -33 10 -28 84 15 204 38 107 40 136 10 136 -10 0
-22 9 -26 20 -4 12 -9 108 -11 215 l-4 195 110 11 c139 14 262 16 269 6z"/>
<path d="M14468 9393 c7 -3 16 -2 19 1 4 3 -2 6 -13 5 -11 0 -14 -3 -6 -6z"/>
<path d="M11141 8826 c-14 -17 -5 -60 16 -78 12 -10 17 -9 28 5 7 9 25 17 42
17 33 0 56 19 45 36 -10 16 -54 25 -68 13 -8 -6 -15 -4 -24 6 -15 19 -24 19
-39 1z"/>
<path d="M11344 8826 c-15 -12 -17 -18 -8 -33 15 -24 82 -25 97 -1 25 38 -46
65 -89 34z"/>
<path d="M11180 8655 c-27 -33 26 -48 68 -19 12 8 20 20 17 25 -10 14 -71 11
-85 -6z"/>
<path d="M11395 8662 c-29 -6 -47 -32 -34 -49 16 -18 33 -16 60 6 21 17 22 21
9 34 -8 7 -24 12 -35 9z"/>
<path d="M11408 8514 c-26 -8 -50 -19 -53 -24 -8 -13 57 -23 97 -15 46 10 61
24 47 41 -14 17 -31 17 -91 -2z"/>
<path d="M11150 8485 c-10 -12 -10 -18 1 -31 10 -13 24 -15 62 -10 59 6 83 22
66 42 -16 20 -113 19 -129 -1z"/>
<path d="M11158 8229 c-29 -11 -46 -39 -24 -39 8 0 13 -8 12 -17 -1 -15 8 -19
47 -21 45 -3 48 -2 61 30 10 23 11 37 4 46 -12 14 -61 15 -100 1z"/>
<path d="M11346 8204 c-20 -19 -20 -28 -1 -44 33 -27 112 19 83 48 -17 17 -64
15 -82 -4z"/>
<path d="M4375 9654 c-49 -7 -193 -22 -320 -34 -454 -42 -555 -71 -1010 -283
-230 -107 -360 -141 -545 -141 -116 0 -176 11 -205 41 -8 8 -15 10 -15 4 0
-39 130 -66 288 -58 188 8 282 39 632 205 254 120 467 177 755 202 153 13 498
62 510 72 5 4 7 7 5 7 -3 -1 -45 -7 -95 -15z"/>
<path d="M2720 8781 c-43 -6 -44 -7 -15 -13 17 -4 60 -10 98 -13 82 -8 89 -25
10 -25 -58 -1 -150 -35 -147 -56 1 -5 21 -19 44 -31 37 -20 58 -23 146 -23
126 0 154 -9 154 -49 0 -47 22 -57 72 -31 24 12 59 34 78 48 19 15 42 27 52
28 25 2 140 69 167 97 25 27 21 50 -7 40 -9 -4 -48 -27 -86 -52 -64 -43 -70
-45 -80 -27 -28 47 -53 69 -104 94 l-55 26 -61 -21 c-57 -20 -62 -21 -79 -5
-20 18 -112 25 -187 13z m388 -52 c24 -17 52 -49 63 -70 l19 -39 -20 0 c-12 0
-31 -5 -42 -11 -19 -10 -20 -9 -15 11 9 35 -8 57 -65 86 l-52 26 30 13 c39 18
35 19 82 -16z"/>
<path d="M14974 8753 c-9 -15 -85 -95 -168 -177 -151 -149 -148 -154 19 -25
145 111 225 157 225 129 0 -4 -28 -27 -62 -50 -35 -24 -79 -59 -98 -78 -19
-18 -51 -42 -70 -52 -19 -11 -46 -29 -60 -40 -18 -15 -8 -13 33 9 32 17 55 26
52 21 -8 -13 62 -13 78 0 7 6 35 25 62 43 28 17 64 44 80 59 17 16 37 30 46
33 9 3 19 14 22 25 4 15 12 18 35 15 17 -2 39 -8 50 -14 12 -6 29 -11 40 -11
10 0 37 -13 58 -28 44 -32 135 -77 177 -87 25 -7 38 -25 18 -25 -5 0 -37 -17
-70 -37 -46 -29 -61 -43 -59 -58 3 -23 58 -36 58 -13 0 21 144 118 174 118 16
0 36 10 49 24 l21 24 17 -49 c10 -27 21 -93 24 -147 4 -53 9 -108 10 -122 3
-26 7 -256 6 -321 -1 -39 -12 -45 -97 -54 -31 -4 -118 -28 -162 -46 -13 -5
-27 -9 -31 -9 -5 0 -11 44 -15 98 -14 194 -54 362 -88 362 -16 1 52 59 70 60
6 0 12 5 12 11 0 14 -44 4 -85 -20 -28 -16 -49 -71 -27 -71 26 0 55 -151 68
-353 6 -98 9 -110 30 -123 26 -17 38 -16 174 21 52 14 115 28 140 31 25 3 51
10 58 16 10 9 12 61 8 242 -3 127 -7 247 -10 266 -2 19 -7 58 -10 85 -7 58
-11 74 -20 95 -3 9 -5 37 -3 63 6 62 -9 75 -63 57 -22 -7 -49 -23 -60 -35 -18
-19 -26 -21 -71 -14 -28 4 -56 12 -62 17 -7 5 -31 15 -55 22 -24 8 -53 24 -65
36 -11 12 -26 20 -33 17 -6 -2 -14 2 -17 11 -5 12 -61 29 -137 42 -109 18
-137 22 -150 22 -8 0 -23 3 -32 7 -12 5 -21 -2 -34 -22z"/>
<path d="M2536 8738 c-11 -43 -7 -66 15 -73 25 -8 34 0 43 37 5 21 3 26 -8 22
-9 -3 -17 3 -21 15 -8 27 -21 27 -29 -1z"/>
<path d="M2460 8535 c-23 -28 6 -71 69 -102 52 -26 64 -28 186 -28 150 0 177
5 193 39 9 20 7 27 -8 41 -15 14 -43 17 -167 18 -132 2 -153 4 -191 25 -50 26
-65 27 -82 7z"/>
<path d="M14150 8440 c0 -5 -8 -10 -19 -10 -16 0 -20 -12 -30 -75 -12 -84 -14
-161 -5 -216 8 -47 41 -65 74 -42 20 14 21 21 16 87 -14 168 -14 156 8 156 12
1 108 3 214 6 l193 6 -20 -38 c-16 -30 -21 -57 -21 -121 0 -78 -1 -83 -27
-101 -35 -24 -116 -23 -290 3 -75 11 -102 -25 -69 -90 17 -33 122 -88 151 -78
31 10 76 15 128 13 34 0 59 6 83 21 24 14 39 18 46 11 12 -12 -30 -35 -102
-53 -57 -14 -92 -42 -84 -64 4 -8 18 -15 33 -16 14 0 51 -1 81 -2 30 -2 89 3
130 11 41 7 98 15 125 18 28 3 52 7 55 9 3 2 71 6 150 10 145 7 145 7 235 50
50 24 100 52 113 62 21 17 22 22 11 46 -14 31 -51 36 -102 13 -101 -44 -121
-47 -272 -50 -60 -1 -116 -5 -123 -10 -7 -4 -19 -3 -27 4 -8 7 -31 10 -50 8
-40 -5 -42 -2 -17 26 16 20 16 20 -1 7 -10 -8 -32 -15 -48 -16 -30 -2 -30 -1
-24 32 6 31 4 35 -28 48 l-34 14 -2 84 c-2 78 0 87 24 115 15 18 43 36 66 42
44 12 43 10 27 41 -15 27 0 26 -263 33 -104 3 -216 8 -247 11 -36 3 -58 1 -58
-5z"/>
<path d="M8270 8369 c-63 -10 -167 -28 -231 -39 l-117 -22 -32 -50 c-31 -47
-32 -52 -20 -87 9 -29 9 -43 1 -59 -18 -33 -13 -52 12 -52 13 0 28 5 33 10 18
18 42 0 48 -35 4 -18 13 -38 21 -45 15 -13 37 6 92 78 29 37 43 40 68 13 11
-13 31 -20 59 -21 84 -1 172 -8 190 -16 12 -4 41 0 75 12 43 15 59 26 70 49 8
17 29 48 48 69 42 50 42 72 0 90 -18 7 -60 39 -94 70 -69 63 -59 62 -223 35z
m185 -50 c22 -22 61 -53 87 -68 l46 -27 -56 -61 c-57 -62 -99 -87 -127 -77 -8
3 -37 1 -65 -6 -46 -11 -52 -10 -77 10 -20 16 -36 20 -59 16 -23 -5 -35 -1
-49 14 -30 33 -59 25 -105 -30 -42 -50 -72 -68 -48 -30 11 17 10 26 -4 50 -13
24 -14 35 -6 58 10 25 19 31 56 36 79 11 129 7 136 -9 7 -20 38 -19 138 4 46
10 100 22 121 25 20 4 37 11 37 16 0 16 -58 11 -148 -10 -98 -24 -119 -25
-137 -7 -8 9 -51 16 -115 20 -100 6 -147 21 -118 38 7 4 97 21 198 38 218 36
232 38 245 40 6 0 29 -17 50 -40z m-528 -115 c-9 -9 -28 6 -21 18 4 6 10 6 17
-1 6 -6 8 -13 4 -17z"/>
<path d="M6438 8359 c-11 -6 -18 -22 -18 -38 0 -21 -9 -34 -37 -52 -20 -13
-51 -44 -68 -69 -43 -61 -56 -61 -82 0 -19 44 -25 50 -50 50 -40 0 -70 -34
-99 -115 -31 -85 -31 -120 1 -149 l24 -22 -22 -23 -22 -22 22 -19 23 -18 -39
-16 c-22 -8 -42 -20 -46 -26 -10 -17 26 -65 74 -100 49 -36 46 -15 25 -178 -6
-47 -5 -48 32 -74 22 -15 72 -34 114 -44 41 -9 98 -29 125 -43 l50 -27 -5
-134 c-3 -75 -9 -129 -13 -122 -5 6 -16 12 -26 12 -9 0 -41 20 -70 45 -29 25
-56 45 -60 45 -4 0 -16 -8 -25 -19 -15 -17 -16 -26 -5 -87 15 -91 33 -134 56
-134 29 0 39 12 49 55 11 44 37 58 58 29 7 -9 18 -14 24 -10 7 4 12 2 12 -4 0
-6 5 -8 10 -5 7 5 10 -41 8 -144 -2 -83 -3 -151 -4 -151 0 0 -15 7 -32 15 -42
21 -127 34 -284 43 -115 6 -140 5 -187 -11 -99 -33 -239 -104 -251 -127 -25
-47 14 -64 83 -35 56 23 66 20 78 -29 13 -51 39 -83 84 -102 43 -18 56 -36 66
-92 16 -85 48 -133 112 -171 46 -27 55 -36 43 -43 -23 -13 -20 -27 7 -39 20
-9 34 -5 88 24 56 31 64 39 63 64 0 15 -4 36 -8 46 -13 28 19 21 59 -14 l36
-32 78 21 c42 12 97 21 122 20 33 -2 62 7 114 32 40 19 82 33 98 31 16 -1 46
9 72 23 24 14 46 26 49 26 2 0 6 -12 8 -26 4 -37 32 -54 54 -32 27 27 10 73
-40 107 -42 29 -42 30 -41 88 1 32 10 96 20 141 l19 84 35 -7 c20 -4 78 -9
129 -11 87 -4 108 -1 361 61 243 59 312 73 300 61 -2 -2 -130 -41 -284 -86
-265 -78 -306 -93 -293 -105 2 -3 128 31 279 76 151 45 288 85 306 90 18 6 35
14 38 19 9 15 65 12 65 -2 0 -7 -7 -58 -15 -113 -17 -115 -19 -185 -6 -185 5
0 12 6 14 13 3 7 6 5 6 -6 1 -10 -6 -20 -14 -23 -26 -10 -16 -41 30 -95 25
-29 45 -62 45 -74 0 -12 -14 -34 -31 -51 l-30 -29 -19 25 c-11 14 -20 28 -20
32 0 11 -65 42 -129 63 -46 15 -55 15 -67 3 -22 -21 -7 -45 34 -59 55 -18 132
-58 132 -69 0 -6 -9 -19 -20 -30 -15 -15 -33 -20 -75 -20 -77 0 -128 30 -159
93 -8 16 -22 23 -50 25 -40 4 -245 -35 -260 -49 -22 -20 8 -19 103 0 55 12
118 21 140 21 35 0 43 -4 56 -29 51 -99 207 -122 279 -42 13 14 26 19 45 15
22 -5 35 1 64 29 53 49 50 80 -13 154 -39 46 -46 59 -35 66 18 9 20 75 5 127
-6 22 -6 56 0 99 17 114 17 113 53 110 60 -4 75 1 124 38 l48 37 115 3 c149 4
210 19 228 55 14 29 26 33 146 42 72 6 132 29 150 58 7 12 6 30 -7 65 -19 55
-22 130 -12 288 11 159 0 261 -31 292 -14 14 -31 22 -39 20 -7 -3 -16 1 -19 9
-15 39 -133 41 -143 3 -4 -14 -14 -19 -39 -19 -49 0 -135 -20 -163 -37 -24
-15 -24 -17 -18 -136 6 -107 16 -155 29 -130 3 4 0 56 -5 115 -12 136 -11 138
92 138 85 0 124 15 129 48 3 18 10 22 43 22 33 0 41 -4 49 -26 8 -21 15 -25
35 -20 19 5 28 1 40 -18 13 -19 15 -53 13 -192 l-3 -168 -27 -16 c-23 -12 -31
-13 -49 -2 -17 11 -34 10 -102 -4 -97 -19 -127 -30 -127 -44 0 -16 250 0 277
17 27 18 31 11 33 -62 1 -33 2 -78 3 -100 2 -38 0 -40 -38 -53 -22 -7 -77 -18
-123 -25 -79 -10 -114 -27 -124 -59 -4 -10 -36 -12 -144 -10 l-139 3 -73 -46
c-42 -28 -89 -49 -112 -52 l-40 -6 15 43 c15 43 19 145 6 190 -5 18 -14 25
-31 25 l-25 0 4 -121 3 -121 -83 -5 c-57 -3 -173 -27 -356 -72 -197 -48 -278
-64 -291 -57 -11 6 -24 6 -35 0 -12 -7 -39 -4 -90 10 -85 24 -120 26 -135 8
-6 -7 -18 -54 -28 -105 l-17 -92 -23 25 c-29 31 -55 32 -90 2 -18 -16 -27 -33
-26 -53 1 -70 12 -144 24 -163 16 -26 2 -41 -60 -65 -61 -23 -72 -21 -113 27
-29 33 -40 39 -50 30 -9 -9 -8 -17 5 -38 10 -15 16 -28 14 -30 -2 -1 -33 -12
-70 -23 l-67 -20 -21 23 c-12 13 -35 29 -50 35 -36 15 -41 29 -28 74 12 39 7
52 -17 42 -13 -5 -15 -20 -11 -93 2 -49 6 -97 8 -107 2 -13 -8 -26 -30 -39
-33 -19 -33 -19 -47 0 -7 11 -32 25 -54 31 -76 23 -118 75 -135 167 -11 58
-31 91 -66 105 -39 16 -80 65 -80 95 0 12 -9 33 -19 46 l-20 24 -62 -22 c-68
-25 -81 -23 -55 6 16 18 205 103 257 116 28 7 395 -67 569 -114 101 -28 104
-29 75 -40 -92 -35 -136 -54 -141 -62 -3 -5 0 -9 5 -9 8 0 185 56 299 95 7 3
11 9 7 14 -3 6 -23 5 -51 -4 -30 -9 -52 -10 -63 -5 -9 5 -53 19 -99 31 -62 16
-82 25 -78 36 6 15 -21 93 -38 108 -6 6 -12 53 -13 115 -1 58 -4 161 -8 230
-4 94 -3 121 5 110 9 -12 10 -5 6 28 -4 27 -2 42 5 42 6 0 30 14 55 30 24 17
44 27 44 22 0 -4 7 -17 16 -28 15 -18 15 -18 9 9 -4 18 -1 27 7 27 8 0 30 11
49 24 44 30 60 20 49 -30 -7 -31 -6 -33 11 -23 10 5 19 15 19 21 0 6 6 19 14
27 29 33 29 59 -1 87 -15 14 -23 24 -18 23 6 -1 18 1 28 6 15 6 14 10 -12 40
-25 29 -29 42 -30 94 0 58 1 61 23 61 13 0 27 -8 30 -17 6 -14 9 -15 16 -4 5
10 11 -5 15 -42 4 -32 10 -57 14 -57 4 0 16 7 27 16 19 15 18 15 -3 11 -22 -5
-23 -2 -23 52 0 48 -4 61 -24 80 -51 48 -134 0 -124 -70 4 -28 1 -33 -31 -46
-27 -11 -40 -12 -53 -4 -25 15 -30 14 -24 -6 5 -15 -12 -24 -99 -54 l-104 -36
-22 23 c-16 17 -29 22 -48 18 -22 -5 -34 3 -76 48 -26 29 -73 79 -103 110
l-54 57 49 24 c26 13 59 28 73 32 14 4 37 16 53 27 15 11 27 15 27 9 0 -24 33
-41 81 -41 36 0 49 -4 49 -14 0 -18 38 -46 62 -46 12 0 20 15 29 55 12 55 23
61 39 20 8 -20 18 -24 79 -30 39 -4 74 -5 78 -4 5 2 8 17 8 32 0 17 9 35 22
45 48 38 93 132 62 132 -5 0 -7 -4 -4 -10 9 -14 -19 -61 -59 -99 -20 -19 -36
-41 -36 -48 0 -16 -11 -17 -33 0 -15 10 -16 17 -5 44 9 25 9 35 -1 47 -19 22
-36 20 -58 -7 -13 -17 -27 -23 -55 -22 -49 2 -66 -8 -49 -29 11 -12 11 -26 1
-66 -7 -27 -14 -50 -17 -50 -17 0 -43 24 -43 40 0 22 -62 66 -100 72 -13 2
-24 11 -26 21 -7 50 -38 62 -78 32 -11 -8 -32 -15 -46 -15 -28 0 -70 37 -70
61 0 33 44 145 65 168 31 31 51 22 75 -34 15 -35 24 -45 43 -45 28 0 46 14 76
60 13 20 41 48 62 63 25 18 39 36 39 50 0 12 12 31 28 44 24 20 25 22 7 22
-11 0 -28 -4 -37 -10z m109 -444 c9 -24 -1 -27 -15 -5 -8 13 -8 20 -2 20 6 0
13 -7 17 -15z m139 -262 c-2 -3 -14 -2 -27 2 -16 6 -18 9 -8 16 13 7 45 -9 35
-18z m-457 -32 c11 -15 18 -30 15 -33 -8 -9 20 -25 62 -35 37 -9 51 -6 123 23
148 59 149 60 179 32 15 -14 50 -40 77 -58 68 -45 80 -65 49 -77 -9 -3 -20 0
-24 7 -6 10 -20 5 -61 -20 -29 -18 -65 -33 -81 -34 -15 -1 -36 -10 -46 -19
-31 -28 -66 -20 -124 29 -28 22 -94 47 -158 58 -19 4 -43 13 -53 20 -17 13
-17 19 -6 75 7 34 16 61 20 61 4 0 17 -13 28 -29z m445 -27 c27 -27 17 -36
-14 -14 -16 12 -30 23 -30 26 0 10 30 3 44 -12z m-178 -871 c-8 -9 -24 26 -29
67 l-6 45 19 -54 c11 -30 18 -56 16 -58z m357 -181 c21 -21 35 -41 31 -44 -3
-3 2 -20 11 -38 19 -36 12 -51 -36 -70 -27 -12 -33 -11 -52 8 -17 17 -19 25
-10 44 5 13 8 49 5 81 -2 31 0 57 5 57 5 0 26 -17 46 -38z"/>
<path d="M6582 7568 c-24 -24 -9 -54 22 -42 19 7 21 28 3 43 -10 8 -17 7 -25
-1z"/>
<path d="M6506 7524 c-22 -22 -15 -39 15 -39 19 0 24 5 24 24 0 30 -17 37 -39
15z"/>
<path d="M6680 8240 c-9 -127 -7 -150 11 -166 16 -14 19 -14 38 5 17 17 19 25
11 41 -6 11 -17 20 -25 20 -15 0 -22 30 -28 110 l-4 45 -3 -55z"/>
<path d="M6547 8239 c-9 -6 -22 -7 -27 -4 -13 8 -91 -27 -108 -48 -8 -9 -12
-33 -10 -59 2 -35 7 -44 24 -46 12 -2 35 8 52 22 40 34 63 33 91 -5 20 -27 25
-29 38 -16 13 13 12 19 -6 56 -13 25 -19 50 -16 64 8 30 -13 49 -38 36z m-17
-78 c0 -5 -7 -12 -16 -15 -14 -5 -15 -4 -4 9 14 17 20 19 20 6z"/>
<path d="M6488 8098 c-8 -21 2 -38 21 -38 25 0 32 10 20 31 -11 22 -35 25 -41
7z"/>
<path d="M12275 8018 c-11 -6 -47 -32 -80 -58 -33 -26 -82 -61 -110 -78 -27
-17 -70 -43 -94 -57 -25 -16 -46 -23 -50 -18 -4 6 -57 7 -140 2 -74 -5 -137
-7 -139 -5 -2 2 -23 -17 -47 -43 -38 -41 -44 -52 -40 -82 2 -19 6 -59 9 -90
l4 -57 -76 5 c-80 5 -144 -9 -125 -28 6 -6 46 -6 114 -1 105 9 177 9 304 -2
64 -6 72 -5 99 18 27 23 29 29 34 120 l5 96 96 46 c53 25 98 49 101 53 3 4 25
19 50 33 25 15 62 42 82 61 61 59 68 61 150 31 40 -15 135 -42 211 -62 120
-30 136 -37 125 -50 -11 -13 -10 -14 9 -4 12 7 34 12 50 12 18 0 23 3 15 8 -8
6 -2 13 22 24 38 19 80 13 136 -19 50 -28 79 -33 125 -22 92 22 242 49 275 49
50 -1 74 -22 68 -59 -4 -25 -1 -31 15 -31 23 0 210 49 217 57 3 3 -8 2 -25 -2
-16 -4 -41 -9 -55 -11 -14 -3 -41 -9 -60 -14 -59 -16 -73 -13 -68 15 3 15 -1
30 -11 38 -17 15 -69 34 -86 32 -83 -9 -158 -19 -222 -30 -77 -14 -79 -14
-128 11 -62 32 -124 54 -139 49 -6 -2 -24 -6 -40 -10 -16 -3 -41 -19 -56 -35
l-27 -29 -79 19 c-43 10 -95 23 -114 30 -19 6 -43 13 -52 15 -10 2 -56 22
-104 44 -91 43 -116 48 -149 29z m-493 -242 l93 5 -27 -21 c-68 -53 -73 -59
-63 -69 7 -7 24 -1 55 19 l45 30 6 -68 c3 -37 9 -79 13 -93 6 -20 3 -27 -16
-36 -14 -6 -35 -7 -53 -1 -16 5 -73 11 -126 15 l-96 6 -11 69 c-10 69 -10 70
20 113 25 36 34 42 49 35 10 -6 59 -7 111 -4z"/>
<path d="M14060 7920 c-58 -17 -69 -23 -75 -47 -3 -13 -3 -33 0 -44 5 -16 1
-19 -30 -19 -44 0 -38 -17 11 -26 25 -5 39 -15 50 -36 16 -30 17 -31 80 -25
49 3 64 2 64 -9 0 -16 7 -20 45 -28 25 -5 40 1 91 39 46 34 63 54 68 77 3 18
2 36 -4 42 -5 5 -10 18 -10 27 0 31 -25 42 -77 31 -37 -8 -53 -7 -75 4 -15 8
-28 11 -28 7 0 -4 -5 -2 -12 5 -13 13 -58 14 -98 2z"/>
<path d="M1147 7869 c-71 -6 -107 -14 -131 -28 -30 -19 -47 -21 -177 -18 -113
1 -149 -1 -169 -13 -14 -8 -40 -19 -59 -25 -43 -13 -60 -37 -42 -59 8 -9 22
-16 32 -16 10 0 33 -9 50 -19 25 -15 43 -18 80 -14 41 5 57 1 131 -36 95 -47
160 -59 239 -41 56 12 92 14 419 25 107 4 200 11 205 15 6 5 33 -6 65 -26 58
-36 79 -41 98 -22 33 33 2 115 -58 153 -30 19 -39 32 -42 57 -3 29 -8 35 -43
46 -41 14 -77 12 -242 -9 -92 -12 -93 -12 -145 14 -56 29 -58 29 -211 16z
m618 -83 c1 -27 14 -43 75 -86 24 -18 40 -90 20 -90 -7 0 -35 14 -61 31 -31
19 -58 30 -76 28 -15 -2 -38 2 -50 9 -29 16 -54 15 -81 -3 -14 -11 -68 -20
-162 -27 -118 -10 -146 -10 -173 2 -22 10 -74 14 -167 14 l-135 1 -72 38 c-40
20 -96 41 -125 45 l-53 9 37 7 c20 4 77 6 128 3 77 -4 94 -8 111 -26 16 -17
24 -20 35 -10 8 6 14 20 14 30 0 30 36 41 159 46 95 5 122 3 148 -10 28 -15
40 -15 129 -2 53 8 100 17 103 20 3 3 48 4 101 3 l95 -3 0 -29z"/>
<path d="M10754 7853 c-17 -2 -42 -15 -55 -29 -21 -23 -22 -27 -10 -57 11 -26
51 -222 51 -249 0 -4 10 -16 21 -27 22 -20 38 -78 39 -138 0 -35 18 -89 26
-80 5 5 -21 162 -31 190 -4 9 48 12 238 12 215 0 246 2 270 18 14 9 30 17 34
17 4 0 5 -46 2 -102 -3 -57 -2 -108 3 -115 7 -9 -6 -17 -49 -29 -32 -9 -61
-19 -65 -23 -14 -13 5 -60 28 -68 23 -8 22 -8 -16 -40 l-39 -33 -71 66 c-51
47 -76 64 -88 59 -39 -16 -53 -16 -102 0 -57 19 -139 17 -165 -5 -8 -7 -15
-23 -15 -36 0 -48 106 -83 162 -53 15 8 26 8 43 -1 29 -16 62 1 76 38 l11 27
34 -40 c18 -22 41 -39 49 -37 8 2 24 -3 35 -11 20 -14 20 -14 1 -31 -13 -12
-42 -18 -97 -21 -44 -3 -101 -10 -127 -16 -40 -9 -51 -9 -65 4 -9 9 -30 19
-47 23 -16 3 -38 13 -47 22 -17 14 -79 13 -208 -4 l-35 -4 36 14 c97 38 154
80 161 120 3 18 -3 19 -60 17 -35 -1 -82 -9 -105 -18 -30 -10 -71 -14 -142
-11 -96 3 -100 2 -111 -21 -16 -31 0 -67 37 -87 16 -8 58 -14 96 -15 l68 0
-50 -16 c-51 -15 -88 -42 -107 -77 -11 -20 -12 -146 -2 -178 6 -21 50 -25 57
-5 5 16 37 -9 37 -30 0 -36 214 -224 272 -238 21 -5 33 -1 53 19 15 15 24 33
22 41 -4 8 3 15 17 19 21 5 23 11 24 78 1 40 -4 86 -10 101 -9 23 -8 31 6 45
19 19 17 34 21 -163 1 -77 8 -169 14 -204 14 -75 54 -159 79 -168 9 -4 27 -14
40 -24 19 -15 27 -16 42 -6 19 11 19 12 0 30 -20 18 -24 44 -14 85 6 21 11 22
95 22 78 0 89 -2 89 -17 0 -25 -11 -38 -45 -56 -30 -15 -29 -17 15 -30 10 -3
2 -11 -22 -22 -45 -22 -49 -35 -9 -35 37 0 106 38 198 108 85 65 80 62 151 93
30 13 63 36 73 51 17 23 24 26 39 18 25 -14 25 -14 62 19 31 26 40 29 138 33
58 3 113 9 122 13 11 4 20 0 28 -15 11 -21 11 -22 -42 -15 -81 10 -94 -4 -91
-100 2 -56 9 -92 29 -138 15 -34 28 -79 29 -99 2 -47 27 -75 79 -90 23 -7 51
-18 62 -25 17 -11 30 -11 70 -1 27 6 55 17 63 23 8 5 53 30 100 55 115 61 117
66 97 223 -17 134 -32 165 -84 182 -17 6 -34 14 -38 17 -3 4 7 31 24 60 17 29
31 62 32 73 4 41 0 57 -14 52 -11 -5 -14 19 -18 128 -3 111 -7 137 -21 153
-12 13 -15 22 -8 27 16 9 13 25 -4 25 -8 0 -23 17 -34 38 -23 44 -93 111 -119
113 -23 2 -53 -1 -78 -6 -25 -6 -32 18 -35 123 -1 35 -6 65 -11 68 -15 9 -213
14 -243 6 -26 -7 -31 -15 -39 -55 -9 -46 4 -84 25 -71 11 6 12 -7 1 -22 -12
-18 -39 -23 -75 -13 -46 12 -55 47 -28 100 l21 39 -23 14 c-24 16 -135 25
-154 13 -7 -4 -10 -14 -7 -21 3 -7 -2 -19 -11 -26 -18 -15 -20 -53 -4 -83 26
-49 66 -49 114 -2 l35 36 0 -30 c0 -20 8 -35 22 -45 27 -19 104 -21 115 -3 4
6 8 39 8 72 l0 60 106 3 106 3 7 -87 c3 -48 5 -88 3 -90 -2 -2 -36 -8 -77 -14
-84 -12 -220 -5 -333 16 -43 9 -90 14 -105 13 -42 -5 -53 6 -40 42 6 17 8 67
5 117 -4 78 -2 93 19 138 29 59 39 113 25 133 -5 8 -21 14 -36 15 -24 1 -29 7
-40 48 -6 26 -17 53 -23 61 -7 8 -10 16 -8 18 3 2 -62 2 -142 -1 -108 -4 -152
-2 -167 8 -19 11 -173 15 -251 5z m565 -52 c5 -14 13 -45 16 -67 5 -35 3 -42
-12 -46 -25 -7 -50 -55 -35 -70 8 -8 16 -2 31 23 25 43 39 59 51 59 16 0 11
-20 -25 -110 -32 -81 -35 -85 -62 -82 -15 2 -136 5 -268 5 l-240 2 -12 50 c-7
28 -16 71 -19 96 -6 45 -5 47 22 50 54 8 61 2 69 -59 8 -68 13 -77 31 -61 8 7
14 30 14 55 0 42 1 44 30 44 30 0 31 -1 29 -43 -3 -58 7 -74 32 -51 14 13 19
31 19 68 0 28 -4 56 -8 62 -9 14 -99 28 -192 29 l-75 0 0 30 0 30 124 3 c150
3 168 -1 123 -30 -17 -11 -32 -24 -32 -29 0 -12 38 7 68 35 26 24 94 33 229
33 79 0 82 -1 92 -26z m209 -571 c85 -14 309 -18 370 -7 36 6 42 5 43 -10 0
-15 2 -14 11 4 8 17 23 23 65 29 48 6 58 4 93 -21 21 -15 47 -39 56 -54 11
-17 0 -10 -34 22 -71 65 -89 59 -25 -9 29 -31 53 -62 53 -69 0 -26 -348 -96
-480 -97 -63 0 -67 -2 -123 -49 -32 -27 -67 -49 -78 -49 -16 0 -14 6 16 46 30
38 33 49 23 61 -10 12 -26 14 -79 9 -75 -7 -132 -28 -212 -80 -33 -20 -59 -31
-67 -26 -15 9 -46 2 -60 -15 -6 -7 -19 -11 -29 -8 -24 6 -57 -36 -66 -84 -4
-21 -14 -51 -23 -68 -15 -27 -17 -28 -20 -9 -2 12 -15 27 -29 35 -34 18 -56
70 -44 102 12 31 53 55 171 101 87 34 107 47 228 152 87 74 140 113 150 110
10 -2 50 -10 90 -16z m-637 -51 c43 -15 58 -28 27 -23 -80 11 -98 16 -93 25 8
12 25 11 66 -2z m1301 -131 c3 -7 -2 -61 -10 -119 l-15 -106 -29 11 c-28 10
-32 8 -63 -26 -22 -26 -41 -38 -58 -38 -40 0 -77 -38 -84 -87 -3 -23 -12 -44
-20 -47 -7 -3 -50 -9 -94 -12 l-81 -7 16 31 c12 24 13 33 3 39 -20 13 -31 9
-53 -16 -20 -24 -23 -24 -79 -13 -33 7 -62 18 -67 25 -10 15 -10 57 0 58 4 0
45 2 92 4 56 2 106 10 145 25 33 12 73 23 88 23 15 1 31 7 35 13 6 9 110 39
162 47 24 3 27 14 19 70 -13 90 -13 91 34 114 50 26 54 27 59 11z m-130 -110
c2 -35 3 -64 3 -66 -1 -1 -28 -7 -61 -12 -32 -6 -68 -13 -80 -15 -18 -4 -22 3
-33 47 -6 28 -9 53 -7 55 2 3 30 11 63 20 32 8 65 19 73 24 31 18 38 9 42 -53z
m-636 20 c-35 -49 -11 -88 53 -88 31 0 31 -1 25 -39 -4 -22 -2 -41 4 -45 6 -4
8 -28 5 -60 -5 -48 -3 -57 18 -78 13 -13 24 -33 23 -44 0 -10 4 -25 9 -31 7
-10 2 -13 -21 -13 -16 0 -49 -9 -73 -20 -24 -11 -63 -20 -85 -20 -24 0 -47 -6
-54 -15 -10 -12 -7 -18 19 -32 17 -10 31 -20 31 -23 0 -6 -106 -90 -114 -90
-3 0 -6 14 -6 31 0 59 -13 69 -88 68 -37 0 -91 -4 -119 -8 l-53 -7 -6 35 c-4
20 -14 76 -24 124 l-17 89 23 10 c14 7 30 29 40 54 14 36 19 42 34 34 12 -6
23 -5 36 5 28 21 31 19 37 -26 5 -38 30 -79 48 -79 25 0 39 35 39 100 0 65 2
70 32 93 l31 25 25 -29 c35 -43 57 -52 76 -33 14 14 14 18 1 44 -28 55 -14 90
38 90 27 0 28 -1 13 -22z m417 -135 c-57 -33 -229 -56 -258 -35 -6 4 -11 26
-12 50 -1 59 31 81 129 88 40 2 91 8 113 12 l40 7 5 -55 c4 -49 3 -56 -17 -67z
m315 -65 c2 -26 -7 -56 -32 -105 -53 -104 -53 -104 -109 -97 l-47 7 4 65 c4
72 25 102 72 102 16 0 31 11 46 35 31 48 62 45 66 -7z m-1222 -168 c20 -96 38
-185 41 -196 3 -12 0 -24 -5 -28 -26 -16 -63 150 -84 376 -8 80 12 15 48 -152z
m1234 59 c-46 -57 -54 -57 -19 0 18 28 36 48 41 45 4 -3 -5 -23 -22 -45z m-56
-83 c-3 -9 -13 -16 -22 -16 -13 0 -12 3 3 20 20 23 29 21 19 -4z m31 -50 c17
-9 42 -16 57 -16 15 0 30 -5 34 -11 3 -6 12 -51 19 -101 l12 -89 -38 -19 c-36
-19 -39 -19 -67 -3 -26 15 -41 16 -123 6 -52 -6 -104 -14 -115 -18 -19 -6 -24
0 -44 51 -25 69 -40 173 -28 204 8 23 10 23 136 17 87 -4 137 -10 157 -21z"/>
<path d="M11256 7791 c-23 -24 -38 -30 -94 -35 -37 -4 -77 -9 -89 -13 -44 -10
-11 -23 62 -23 80 0 95 -7 64 -33 -10 -9 -19 -25 -19 -35 0 -18 18 -42 32 -42
13 0 100 139 93 150 -3 5 -16 10 -27 10 -20 0 -21 1 -3 20 29 32 12 33 -19 1z"/>
<path d="M12897 7823 c-12 -13 -22 -14 -39 -7 -13 6 -39 9 -58 8 -19 -1 -42
-3 -52 -3 -19 -1 -58 -63 -58 -94 -1 -16 -19 -34 -68 -65 l-67 -44 -70 17
c-38 9 -81 19 -95 21 -14 3 -52 11 -85 19 -137 31 -165 37 -177 33 -26 -9 193
-82 407 -136 24 -7 41 -2 87 25 l58 34 29 -22 c16 -11 44 -24 62 -28 28 -6 34
-11 31 -31 -1 -13 -9 -28 -18 -35 -9 -6 -22 -39 -30 -73 -13 -54 -13 -66 0
-97 13 -31 13 -37 1 -41 -8 -3 -18 -3 -22 -1 -20 12 -30 -12 -39 -88 -10 -88
-1 -135 26 -135 22 0 39 35 44 90 2 25 4 46 5 47 1 1 17 -9 37 -22 20 -14 54
-30 75 -37 22 -6 39 -15 39 -20 0 -4 5 -8 11 -8 5 0 30 -9 54 -20 24 -11 67
-25 95 -32 51 -12 62 -26 35 -48 -11 -9 -14 -22 -10 -41 5 -21 2 -29 -13 -33
-11 -4 -25 -5 -32 -4 -24 6 -36 -29 -21 -64 7 -18 16 -45 18 -60 6 -31 43 -41
43 -12 0 12 7 15 28 11 161 -33 222 -51 257 -73 25 -16 201 -74 224 -74 9 0
21 -4 27 -9 21 -20 300 -73 369 -70 17 1 37 0 45 -1 8 -1 31 -2 50 -4 19 -1
42 -5 50 -8 8 -4 56 -9 105 -12 142 -9 215 -18 221 -27 3 -5 18 -9 34 -9 16 0
32 -4 35 -10 3 -5 13 -10 20 -10 8 0 38 -11 67 -24 50 -23 142 -48 218 -60 19
-3 49 -8 65 -10 17 -3 64 -7 105 -10 90 -7 200 -23 207 -30 3 -3 0 -12 -7 -21
-18 -22 -70 -134 -70 -152 0 -8 14 -28 30 -45 l30 -30 -42 -44 c-53 -56 -63
-73 -50 -86 13 -13 55 -3 76 18 9 8 16 12 16 9 0 -4 23 12 51 36 46 38 50 45
45 73 -4 17 -18 41 -31 54 -14 12 -25 25 -25 27 0 2 11 16 24 30 13 14 26 38
29 54 4 16 19 44 34 63 33 38 33 72 0 90 -26 14 -204 38 -253 34 -19 -1 -37 1
-39 4 -3 4 -33 11 -67 15 -106 13 -112 14 -138 21 -48 14 -55 15 -70 18 -8 1
-28 9 -45 17 -16 9 -50 21 -75 28 -25 7 -53 17 -62 22 -10 5 -26 9 -36 9 -10
0 -22 4 -27 9 -19 18 -191 43 -315 46 -69 1 -133 6 -142 10 -10 4 -24 5 -32 2
-7 -3 -18 -1 -23 4 -4 4 -33 9 -63 10 -30 1 -66 6 -80 12 -14 5 -34 11 -45 12
-47 7 -195 53 -248 78 -32 15 -67 27 -78 27 -12 0 -32 8 -45 19 -13 10 -43 22
-68 25 -24 4 -51 12 -60 19 -21 16 -12 44 17 53 12 4 25 11 28 16 3 5 25 4 53
-2 36 -8 52 -8 62 1 19 16 18 43 -3 61 -21 18 -137 58 -190 64 -20 3 -42 8
-47 13 -6 5 -28 12 -50 15 -21 4 -46 11 -55 16 -9 5 -47 21 -86 35 -38 14 -78
30 -87 35 -10 6 -26 10 -35 10 -21 1 -104 50 -84 50 8 0 36 14 63 31 66 43 94
45 135 9 68 -61 169 -89 226 -65 39 16 43 28 28 82 -8 28 -6 34 20 57 16 14
35 26 42 26 21 0 78 47 94 77 13 26 13 52 -4 121 -3 13 -1 22 6 22 6 0 11 -9
11 -20 0 -12 9 -24 23 -29 25 -10 61 6 118 50 20 16 42 29 49 29 24 0 90 63
90 87 0 41 -41 48 -140 23 -47 -12 -98 -24 -115 -27 -16 -3 -37 -11 -45 -18
-8 -7 -32 -20 -53 -30 -41 -19 -53 -46 -43 -98 15 -72 13 -77 -34 -104 -25
-14 -53 -34 -63 -44 -10 -10 -22 -19 -27 -19 -4 0 -16 -20 -26 -45 -9 -25 -19
-45 -21 -45 -2 0 -23 12 -46 28 -23 15 -48 28 -56 30 -7 1 -20 9 -27 17 -8 8
-21 12 -29 9 -7 -3 -23 0 -35 6 -17 9 -25 9 -38 -3 -9 -9 -30 -19 -47 -23 -16
-4 -36 -11 -43 -17 -26 -20 -32 8 -11 48 30 56 69 95 96 95 29 0 67 36 59 57
-4 9 1 24 9 33 15 16 14 23 -4 78 -26 80 -36 97 -69 121 -27 18 -30 19 -45 4z
m-23 -168 c9 -14 23 -25 31 -25 8 0 15 -5 15 -11 0 -8 -26 -9 -82 -6 -92 6
-138 15 -138 27 0 14 73 38 116 38 34 1 45 -3 58 -23z"/>
<path d="M7240 7790 c-96 -22 -223 -49 -283 -62 -78 -17 -107 -27 -105 -37 5
-22 156 -98 243 -122 44 -11 89 -26 100 -32 19 -10 19 -10 0 -17 -11 -4 -35
-5 -52 -2 -39 6 -63 -11 -63 -44 0 -30 -27 -44 -88 -44 -64 0 -112 -10 -112
-23 0 -6 31 -8 88 -4 l88 7 13 -120 c12 -109 22 -144 34 -123 2 5 -2 61 -11
126 -10 86 -12 124 -4 140 6 12 14 32 17 45 13 46 45 20 45 -38 0 -45 10 -60
39 -60 37 0 64 21 55 43 -4 10 -12 16 -19 13 -14 -5 -25 14 -25 44 0 15 15 22
72 35 39 9 80 21 91 26 37 20 97 -37 97 -91 0 -28 -66 -34 -101 -9 -30 21 -49
18 -49 -8 0 -9 -8 -22 -17 -29 -15 -10 -4 -12 70 -12 48 -1 96 -4 108 -7 11
-4 26 -1 34 5 8 7 34 13 57 15 24 2 86 19 139 38 l97 35 5 -47 c3 -27 1 -49
-5 -53 -6 -3 -61 -23 -123 -43 -111 -37 -113 -37 -195 -26 -66 9 -93 8 -139
-3 -31 -8 -89 -20 -128 -26 -74 -12 -77 -15 -73 -60 3 -38 18 -50 64 -50 46 0
227 60 228 75 1 18 51 33 72 22 12 -6 55 -7 105 -3 66 5 100 13 147 36 34 17
70 30 81 30 21 0 53 29 53 49 0 7 -11 11 -27 9 -24 -3 -28 1 -36 41 -5 27 -5
66 2 104 10 57 9 63 -11 85 -20 20 -29 22 -73 17 -115 -14 -344 -57 -400 -75
-71 -24 -94 -25 -120 -6 -11 7 -60 26 -110 41 -49 15 -117 41 -150 57 -51 27
-57 32 -40 39 36 15 479 110 515 111 22 0 64 -15 115 -41 82 -41 243 -86 258
-72 12 12 4 16 -86 40 -43 12 -113 39 -157 61 -53 27 -92 40 -117 39 -21 0
-117 -18 -213 -39z m562 -235 c-3 -57 0 -52 -35 -60 -26 -7 -27 -6 -27 36 0
46 23 82 49 76 12 -2 15 -14 13 -52z m-92 -25 l0 -59 -77 -25 c-43 -13 -82
-21 -86 -17 -4 5 -7 35 -5 67 l3 59 65 17 c102 26 100 27 100 -42z m-196 -2
c10 -40 6 -95 -7 -107 -8 -6 -17 -8 -20 -4 -9 8 -9 118 0 126 12 12 21 7 27
-15z m-94 -266 c0 -9 -194 -73 -220 -72 -21 0 -40 20 -40 41 0 14 14 18 88 24
48 3 92 8 97 10 20 7 75 5 75 -3z"/>
<path d="M8616 7540 c-33 -129 -34 -134 -22 -138 8 -3 34 80 71 226 3 14 1 22
-7 22 -8 0 -24 -43 -42 -110z"/>
<path d="M8510 7633 c-35 -2 -70 -9 -78 -15 -24 -20 -53 -89 -50 -116 3 -24 8
-27 43 -30 60 -4 80 15 79 77 l-2 50 47 6 c25 4 52 7 60 8 29 4 23 27 -6 25
-15 -1 -57 -3 -93 -5z m-35 -84 c8 -35 -8 -59 -40 -59 -32 0 -36 9 -18 44 32
64 47 68 58 15z"/>
<path d="M12160 7637 c7 -7 162 -38 167 -33 3 2 -17 9 -44 14 -83 18 -128 25
-123 19z"/>
<path d="M6855 7564 c-38 -7 -79 -13 -89 -13 -11 -1 -16 -4 -13 -7 4 -4 40 -1
82 6 58 10 78 10 89 1 11 -9 20 -10 35 -1 53 28 9 34 -104 14z"/>
<path d="M11167 7440 c-16 -5 -35 -17 -43 -27 -19 -26 -17 -77 4 -103 l19 -23
15 22 c14 20 21 21 66 15 60 -8 80 6 89 59 7 47 -15 67 -75 66 -26 0 -60 -5
-75 -9z"/>
<path d="M10945 7433 c-69 -8 -71 -10 -71 -53 1 -49 15 -60 77 -60 43 0 48 2
63 34 19 41 20 58 4 74 -12 12 -17 12 -73 5z"/>
<path d="M6838 7393 c-3 -7 -3 -41 1 -100 1 -7 6 -13 11 -13 6 0 10 27 10 60
0 52 -11 77 -22 53z"/>
<path d="M12340 7366 c0 -14 17 -34 48 -57 141 -106 225 -160 254 -165 29 -5
26 -2 -18 19 -32 15 -86 60 -148 123 -99 100 -136 121 -136 80z"/>
<path d="M6496 7314 c-20 -20 -20 -28 0 -45 14 -11 19 -10 35 10 15 18 17 27
8 37 -15 18 -24 18 -43 -2z"/>
<path d="M6635 7310 c-8 -13 3 -30 20 -30 20 0 30 21 14 31 -18 11 -26 11 -34
-1z"/>
<path d="M6890 7259 c0 -15 105 -30 133 -20 46 18 30 26 -53 27 -44 1 -80 -2
-80 -7z"/>
<path d="M6913 7180 c-24 -10 -33 -36 -10 -27 38 14 56 17 61 9 3 -5 -19 -15
-49 -22 -34 -8 -55 -18 -55 -27 0 -9 6 -12 19 -8 10 3 38 11 62 18 37 11 44
17 44 37 0 19 -6 25 -25 27 -14 1 -35 -2 -47 -7z"/>
<path d="M7360 7073 c-8 -2 -21 -7 -29 -9 -8 -3 4 -14 30 -27 30 -15 45 -29
47 -45 4 -23 2 -24 -70 -22 -107 3 -101 5 -95 -36 9 -51 23 -64 74 -64 47 0
80 13 100 39 14 18 16 6 4 -24 -12 -28 6 -48 30 -34 13 6 20 21 20 42 0 18 1
48 2 67 1 63 -11 90 -48 106 -36 15 -41 15 -65 7z m30 -143 c0 -14 -9 -21 -34
-25 -49 -10 -71 -3 -74 23 -3 21 0 22 52 22 49 0 56 -2 56 -20z"/>
<path d="M7577 7074 c-3 -5 -2 -48 1 -94 l7 -85 6 80 c6 74 -1 120 -14 99z"/>
<path d="M7235 7055 c21 -17 54 -17 58 0 1 6 -16 11 -38 13 -38 2 -39 1 -20
-13z"/>
<path d="M7171 7032 c-8 -15 -7 -23 2 -30 17 -14 40 1 35 23 -5 26 -25 30 -37
7z"/>
<path d="M6355 6990 c-9 -15 14 -40 36 -40 19 0 43 33 32 44 -10 10 -61 7 -68
-4z"/>
<path d="M6803 6967 c-24 -30 -50 -40 -57 -21 -7 19 -22 18 -89 -10 -73 -29
-76 -33 -42 -46 20 -8 37 -8 58 0 24 8 34 7 47 -5 14 -13 19 -13 36 -1 10 8
16 17 12 21 -3 3 10 22 29 41 l35 36 34 -33 c28 -27 38 -31 68 -26 20 3 38 2
41 -3 10 -16 36 2 33 23 -3 18 -11 20 -72 21 -46 1 -71 5 -74 14 -6 20 -39 14
-59 -11z"/>
<path d="M7187 6984 c-14 -24 -19 -85 -7 -99 31 -37 56 49 27 90 -8 10 -16 14
-20 9z"/>
<path d="M7067 6923 c8 -82 22 -101 23 -31 0 59 -7 88 -20 88 -5 0 -6 -26 -3
-57z"/>
<path d="M5145 6735 c-174 -19 -227 -26 -222 -31 2 -2 82 3 178 12 233 23 239
22 297 -14 59 -39 239 -123 308 -146 28 -9 58 -14 66 -11 9 4 19 2 23 -4 3 -6
14 -11 23 -11 30 1 -15 27 -87 51 -80 27 -362 147 -375 160 -12 11 -68 10
-211 -6z"/>
<path d="M7643 6714 c-40 -19 -78 -44 -84 -55 -7 -14 -9 -44 -4 -85 11 -105
45 -96 45 12 0 33 3 64 6 67 4 4 19 -2 34 -13 16 -11 37 -20 48 -20 19 0 32
-18 32 -42 0 -7 -18 -9 -50 -5 -40 5 -50 3 -50 -8 0 -11 13 -15 54 -15 65 0
81 14 66 56 -13 33 -26 44 -56 44 -12 0 -27 6 -33 14 -9 11 -5 16 21 26 51 18
63 26 63 40 0 22 -17 19 -92 -16z"/>
<path d="M7481 6652 c-5 -9 -12 -34 -16 -55 -7 -36 -8 -37 -54 -37 -26 0 -56
7 -67 15 -10 8 -27 15 -37 15 -10 0 -20 7 -23 15 -4 8 -12 15 -20 15 -17 0
-17 -5 -2 -29 9 -15 7 -24 -10 -46 -32 -40 -16 -61 54 -69 31 -4 59 -4 61 -2
12 12 -11 25 -52 32 -50 7 -52 10 -29 42 l15 22 26 -20 c18 -14 41 -20 77 -20
41 0 54 -4 64 -20 15 -25 32 -17 32 15 0 13 9 45 20 71 12 26 19 53 16 61 -8
19 -44 16 -55 -5z"/>
<path d="M6164 6505 c-7 -18 3 -35 21 -35 18 0 26 15 19 34 -8 20 -33 21 -40
1z"/>
<path d="M5595 6489 c-60 -10 -133 -20 -161 -21 -51 -3 -66 -18 -18 -18 21 0
25 -4 24 -32 0 -42 19 -211 25 -217 3 -2 5 37 5 87 l0 90 30 7 c51 11 68 -1
76 -53 8 -58 21 -77 40 -61 8 6 14 17 14 24 0 8 21 44 46 81 25 38 43 76 41
86 -5 18 11 28 46 28 12 0 29 5 37 10 25 16 -82 10 -205 -11z m45 -23 c0 -2
-13 -6 -30 -8 -16 -3 -30 -1 -30 4 0 4 14 8 30 8 17 0 30 -2 30 -4z m8 -56
c-9 -13 -16 -16 -23 -9 -7 7 -5 13 5 19 24 15 31 11 18 -10z"/>
<path d="M4780 6450 c-49 -5 -52 -7 -28 -14 16 -4 25 -12 23 -17 -3 -4 6 -41
20 -82 32 -94 32 -153 0 -217 -30 -60 -42 -125 -26 -144 15 -17 16 -51 6 -143
-5 -51 -5 -73 3 -73 18 0 21 13 25 119 3 56 7 105 11 108 3 4 6 15 6 25 0 11
14 50 30 88 41 94 40 152 -5 250 l-34 75 27 7 c15 3 110 8 213 10 l185 5 -3
-26 c-2 -14 5 -41 17 -59 40 -65 78 -15 46 62 l-15 36 -223 -2 c-123 -1 -248
-4 -278 -8z"/>
<path d="M14143 6218 c19 -29 49 -79 68 -112 19 -32 40 -60 47 -63 6 -3 12
-10 12 -15 0 -6 44 -71 99 -147 97 -134 160 -224 175 -248 5 -10 -6 -13 -48
-12 -69 2 -111 -21 -102 -55 5 -21 -6 -31 -101 -87 -80 -49 -109 -72 -119 -96
-12 -27 -23 -34 -84 -53 -75 -23 -86 -34 -76 -74 8 -33 43 -40 85 -15 32 19
34 19 55 2 30 -26 60 -59 123 -135 49 -60 73 -81 73 -62 0 32 -142 188 -187
205 -25 9 -31 47 -12 66 19 19 120 3 152 -23 19 -16 41 -24 67 -24 58 0 70 8
69 44 -2 30 -2 30 -6 4 -4 -28 -7 -30 -43 -30 -41 0 -48 3 -86 33 -26 20 -46
29 -62 26 -27 -5 -54 17 -46 37 6 15 158 116 175 116 5 0 9 3 9 8 0 4 12 15
26 25 l25 19 -6 -25 c-4 -16 -2 -28 7 -34 8 -4 14 -17 13 -28 0 -12 14 -27 38
-40 47 -27 137 -24 179 6 33 23 33 23 51 5 8 -8 54 -41 102 -73 48 -32 100
-66 114 -75 17 -12 25 -25 23 -39 -3 -16 1 -20 19 -17 12 2 24 9 27 17 3 8 0
11 -7 7 -7 -5 -9 -1 -5 8 4 11 -11 32 -42 62 -60 58 -193 164 -214 172 -8 3
-21 12 -29 19 -7 8 -22 11 -32 8 -20 -7 -28 18 -9 30 6 4 8 10 5 14 -2 5 2 16
9 26 23 31 65 7 181 -104 75 -73 175 -151 254 -200 98 -60 101 -66 33 -66 -66
0 -120 -8 -147 -22 -74 -37 -234 -134 -241 -145 -13 -21 175 20 234 50 9 5 34
12 55 16 l37 7 0 -237 c0 -131 3 -234 7 -230 4 3 8 41 9 84 1 42 5 122 8 177
4 62 2 121 -5 154 -6 29 -9 55 -6 58 3 2 24 7 46 10 23 3 41 10 41 14 0 5 7 9
16 9 12 0 15 6 11 23 -6 23 -2 19 30 -30 10 -14 10 -12 2 14 -14 42 -66 94
-132 132 -51 30 -158 115 -297 239 -39 34 -85 65 -100 69 -16 3 -35 12 -41 19
-6 8 -19 14 -29 14 -18 0 -50 30 -50 46 0 5 -11 21 -25 36 -14 15 -25 29 -25
32 0 2 -24 39 -52 82 -29 42 -57 84 -63 93 -5 9 -27 41 -48 71 -21 30 -49 71
-62 90 -14 19 -35 46 -47 59 -30 31 -138 111 -149 111 -5 0 6 -24 24 -52z"/>
<path d="M5156 6193 c-77 -72 -181 -138 -229 -146 -58 -9 -68 -22 -67 -86 0
-31 -6 -81 -15 -111 -23 -77 -5 -224 24 -206 16 10 -6 -70 -32 -119 -21 -38
-27 -64 -27 -109 0 -51 4 -64 35 -106 32 -44 52 -60 75 -60 4 0 23 16 42 35
34 36 35 36 149 44 90 6 121 12 149 29 44 27 85 28 145 2 40 -17 62 -20 139
-16 50 3 121 14 159 25 37 11 98 20 135 20 37 1 78 1 92 2 14 0 32 0 40 1 8 0
26 -3 40 -7 l25 -7 -26 19 c-22 16 -24 21 -15 46 8 22 6 40 -7 76 -22 62 -22
68 6 101 l24 28 35 -20 36 -21 56 26 c42 19 82 28 149 33 51 4 97 11 104 16
14 11 17 -7 33 -167 11 -124 13 -216 4 -240 -11 -29 -67 -43 -172 -43 -116 -1
-192 -10 -192 -24 0 -6 34 -9 87 -6 86 3 88 3 113 -26 24 -26 26 -34 22 -95
-8 -115 -3 -194 13 -210 11 -11 18 -12 26 -4 8 8 20 7 45 -3 30 -13 34 -12 34
1 0 8 -14 18 -32 23 l-33 9 3 99 c4 108 12 130 65 184 31 32 36 44 42 105 7
70 -17 342 -35 396 -6 19 -4 31 7 42 18 18 11 44 -14 54 -9 4 -27 18 -40 32
-23 25 -23 26 -38 7 -8 -11 -15 -28 -15 -37 0 -10 -3 -20 -8 -23 -4 -2 -61
-12 -127 -22 -66 -9 -129 -20 -140 -24 -22 -8 -64 7 -80 28 -6 7 -18 10 -28 6
-20 -7 -23 -44 -5 -62 10 -10 8 -15 -9 -27 -36 -25 -47 -78 -29 -132 14 -41
14 -48 1 -63 -8 -9 -15 -22 -15 -28 0 -8 -22 -12 -64 -12 -35 0 -83 -7 -106
-15 -23 -8 -85 -17 -137 -20 -86 -5 -102 -3 -158 20 -79 31 -108 31 -167 0
-42 -22 -59 -25 -154 -25 l-107 0 -34 -40 c-19 -22 -38 -40 -41 -40 -4 0 -20
19 -36 41 -25 36 -28 47 -23 89 3 27 13 62 21 79 9 16 16 53 16 81 l0 50 37 0
c20 0 75 7 121 16 86 16 98 16 254 -7 138 -20 132 -29 137 192 2 101 3 197 4
212 0 16 -13 47 -29 70 -33 48 -145 127 -177 127 -13 -1 -48 -25 -81 -57z
m168 -44 c66 -44 112 -87 103 -96 -2 -1 -30 2 -63 9 -48 9 -78 8 -158 -6 -54
-9 -112 -24 -128 -32 -23 -12 -33 -13 -43 -4 -12 10 -4 19 43 50 31 22 80 59
107 84 28 25 53 45 57 46 3 0 40 -23 82 -51z m89 -114 c20 -8 21 -22 6 -170
l-12 -111 -36 0 c-120 -1 -262 -23 -316 -48 -44 -21 -68 -26 -113 -24 l-57 3
-2 95 c-2 81 -1 91 10 70 6 -14 21 -26 32 -27 11 -1 35 -5 53 -9 50 -10 66 9
58 71 -3 27 -9 60 -12 72 -5 18 1 25 35 42 79 41 287 62 354 36z m-451 -75
c-3 -33 -26 -70 -44 -70 -4 0 -8 25 -8 56 0 54 0 55 28 52 24 -3 27 -6 24 -38z
m1411 -180 c9 -11 24 -20 32 -20 20 0 20 -26 0 -34 -8 -3 -14 -11 -13 -18 2
-9 -28 -16 -103 -25 -76 -8 -121 -19 -156 -36 -46 -24 -50 -24 -76 -9 -29 18
-36 46 -13 55 8 3 68 13 133 23 148 21 163 26 163 59 0 30 10 32 33 5z"/>
<path d="M5257 5934 c-15 -16 -7 -73 12 -83 25 -14 42 7 44 51 2 28 -2 33 -23
36 -14 2 -29 0 -33 -4z"/>
<path d="M8427 6155 c-11 -33 -47 -208 -47 -227 0 -9 8 -22 19 -27 16 -9 17
-7 14 14 -3 13 3 69 12 124 16 97 18 163 2 116z"/>
<path d="M5928 6040 c-31 -24 -41 -55 -23 -70 11 -9 21 -5 44 18 34 32 38 44
17 61 -10 8 -19 6 -38 -9z"/>
<path d="M8572 6017 c-17 -17 -40 -54 -52 -82 -20 -47 -20 -50 -4 -62 10 -7
21 -13 25 -13 12 0 121 92 115 98 -3 2 -26 -14 -51 -37 -75 -69 -84 -53 -30
53 20 38 34 70 32 72 -2 2 -17 -11 -35 -29z"/>
<path d="M14984 6024 c-9 -34 0 -96 20 -135 9 -18 16 -38 16 -44 0 -7 18 -48
39 -91 21 -44 42 -90 46 -104 4 -14 13 -32 20 -40 7 -8 31 -48 54 -87 23 -40
46 -73 51 -73 5 0 17 -17 25 -37 9 -20 27 -51 40 -69 14 -18 25 -38 25 -44 0
-6 7 -13 15 -16 8 -3 17 -14 20 -25 4 -10 12 -25 18 -32 19 -20 57 -76 57 -83
0 -3 12 -21 28 -39 44 -52 56 -69 70 -96 16 -31 46 -51 67 -43 22 9 19 66 -5
92 -11 12 -20 26 -20 32 0 14 -61 129 -89 168 -11 17 -21 35 -21 41 0 6 -9 16
-20 23 -11 7 -20 22 -20 33 0 11 -18 43 -41 70 -22 27 -50 66 -60 87 -11 21
-24 38 -29 38 -6 0 -10 6 -10 13 0 8 -9 22 -20 32 -11 10 -20 23 -20 30 0 7
-9 20 -20 30 -11 10 -20 22 -20 28 0 5 -15 30 -33 56 -18 25 -43 66 -56 91
-40 80 -54 105 -62 110 -12 8 -48 98 -42 104 4 3 1 6 -5 6 -6 0 -15 -12 -18
-26z"/>
<path d="M8673 5978 c-10 -18 -15 -36 -20 -89 -6 -60 13 -69 73 -34 23 14 45
25 47 25 2 0 7 -21 10 -46 6 -53 38 -94 75 -94 17 0 42 -18 77 -55 29 -30 58
-55 64 -55 33 0 1 -41 -87 -112 -26 -21 -28 -60 -7 -112 30 -71 -3 -206 -50
-206 -6 0 -50 -29 -99 -65 -48 -36 -105 -70 -127 -77 -35 -10 -43 -9 -67 9
-15 11 -49 63 -77 115 -27 52 -55 101 -61 109 -17 22 -2 54 26 57 14 1 40 18
58 37 18 19 40 35 48 35 9 0 31 9 49 20 l32 20 11 -25 c15 -33 52 -47 93 -35
43 12 89 58 89 87 0 22 -31 63 -49 63 -5 0 -4 20 1 46 13 60 -1 92 -42 100
-19 4 -30 13 -30 24 0 45 -72 66 -104 31 -10 -11 -24 -17 -32 -14 -21 8 -72
-29 -158 -116 l-79 -79 -21 31 c-30 45 -61 45 -148 1 -149 -74 -193 -135 -132
-183 28 -22 52 -18 104 19 35 25 40 25 40 -1 0 -26 52 -79 79 -79 l20 0 -21
-46 c-26 -60 -29 -171 -5 -207 9 -14 30 -33 46 -43 26 -16 28 -20 19 -46 -14
-40 2 -74 46 -94 25 -12 37 -27 45 -56 14 -47 48 -67 85 -50 18 8 27 23 35 61
15 69 2 127 -48 213 -42 72 -78 164 -69 174 3 2 15 -22 28 -56 49 -131 110
-188 186 -174 47 9 171 91 232 155 26 27 50 49 55 49 4 0 7 -20 7 -44 l0 -44
-197 -174 c-108 -95 -209 -189 -224 -208 -38 -47 -106 -229 -120 -321 -9 -62
-8 -200 3 -354 1 -11 -2 -33 -5 -50 l-7 -30 13 28 13 28 43 -51 c37 -44 41
-54 37 -87 l-5 -38 12 37 12 38 31 -31 31 -31 -28 -91 c-33 -107 -35 -129 -12
-148 15 -12 16 -12 10 3 -7 19 80 288 94 288 5 0 9 7 9 16 0 26 -34 11 -51
-23 l-16 -32 -32 33 -32 33 21 49 c12 27 31 60 43 73 15 16 17 22 7 19 -8 -2
-29 -32 -46 -65 -36 -70 -41 -69 -83 15 l-22 43 33 57 c17 31 46 70 62 86 21
20 24 26 10 18 -22 -12 -55 -47 -86 -92 -16 -24 -16 -17 -14 135 3 149 5 166
33 245 16 47 39 103 51 125 20 40 149 171 293 298 71 63 79 67 104 57 48 -18
66 -5 64 48 -1 26 6 64 15 86 9 21 16 46 16 55 -1 14 -3 13 -15 -3 -13 -17
-14 -15 -20 18 -4 20 -4 60 -1 89 6 42 3 65 -14 108 l-22 54 24 17 c65 48 77
60 93 94 13 28 15 42 6 60 -6 13 -16 24 -24 24 -7 0 -36 24 -64 54 -36 39 -61
57 -86 61 -28 6 -38 14 -46 37 -6 17 -11 41 -11 53 0 43 -25 51 -81 27 l-50
-21 7 55 c6 53 -4 71 -23 42z m-244 -491 c-19 -40 -23 -42 -55 -39 l-34 4 52
39 c29 21 54 38 55 39 2 0 -7 -19 -18 -43z m491 -427 c0 -5 -5 -10 -11 -10 -5
0 -7 5 -4 10 3 6 8 10 11 10 2 0 4 -4 4 -10z"/>
<path d="M5602 5943 c-10 -10 -25 -19 -33 -21 -17 -4 -30 -23 -26 -37 2 -5 19
-11 38 -13 19 -2 42 -12 52 -23 10 -10 24 -19 32 -19 25 0 45 12 38 23 -3 6
-1 7 6 3 6 -4 17 -3 24 2 7 6 32 14 57 19 52 10 55 26 8 33 -18 3 -51 14 -72
24 -21 10 -48 15 -59 12 -12 -3 -27 -1 -33 5 -9 7 -18 5 -32 -8z m122 -41 c12
-20 -12 -33 -48 -27 -35 7 -43 15 -29 28 9 10 71 9 77 -1z"/>
<path d="M4961 5595 c-2 -22 -4 -25 -9 -13 -6 15 -10 13 -24 -12 -17 -30 -17
-30 9 -28 29 3 36 15 30 55 l-4 28 -2 -30z"/>
<path d="M6095 5590 c-3 -5 1 -10 9 -10 9 0 16 5 16 10 0 6 -4 10 -9 10 -6 0
-13 -4 -16 -10z"/>
<path d="M6107 5534 c-14 -14 -7 -35 11 -32 9 2 17 10 17 17 0 16 -18 25 -28
15z"/>
<path d="M14421 5434 c0 -11 3 -14 6 -6 3 7 2 16 -1 19 -3 4 -6 -2 -5 -13z"/>
<path d="M14391 5359 c-8 -22 -7 -29 1 -27 6 2 12 16 14 31 4 35 -2 34 -15 -4z"/>
<path d="M6107 5177 c-11 -27 -9 -195 3 -202 17 -10 22 41 13 132 -5 55 -11
81 -16 70z"/>
<path d="M14078 5159 c46 -72 76 -109 135 -172 56 -59 65 -73 65 -106 1 -37
-1 -39 -34 -43 -45 -5 -54 7 -58 76 -4 81 -16 82 -16 2 0 -96 7 -106 81 -106
l61 0 -3 43 -4 44 69 -59 c70 -59 96 -70 96 -43 0 8 12 17 28 21 15 3 59 14
98 25 38 10 73 19 76 19 3 0 8 -53 11 -117 5 -123 18 -195 45 -251 14 -30 17
-31 31 -17 18 17 22 102 8 168 -14 70 -11 189 7 231 20 47 20 72 2 79 -22 9
-54 -4 -163 -66 -145 -82 -145 -82 -234 -6 -41 34 -129 117 -196 184 -68 67
-115 109 -105 94z"/>
<path d="M9006 5100 c-2 -8 -7 -44 -9 -80 -3 -36 -26 -161 -51 -277 -98 -453
-90 -497 131 -768 40 -49 78 -105 83 -125 6 -21 7 -96 3 -185 -7 -173 -3 -187
88 -327 70 -106 80 -146 79 -308 -1 -74 -1 -150 -1 -169 l1 -34 22 28 c19 24
23 47 30 154 11 185 -2 239 -94 374 -77 113 -81 130 -73 295 5 99 4 161 -4
188 -7 28 -44 83 -107 160 -52 66 -111 152 -131 191 l-36 73 6 112 c4 77 20
183 51 333 48 229 56 327 32 361 -12 16 -15 16 -20 4z"/>
<path d="M14070 5033 c0 -106 13 -248 21 -227 7 21 4 187 -5 243 -9 55 -16 48
-16 -16z"/>
<path d="M13425 4921 c-55 -16 -125 -38 -155 -50 -30 -12 -129 -40 -220 -62
-91 -23 -199 -57 -241 -76 l-77 -35 -31 23 -31 23 -47 -20 c-32 -13 -58 -33
-78 -61 -17 -24 -41 -45 -55 -48 -191 -42 -561 -144 -578 -160 -2 -2 3 -19 12
-38 10 -25 13 -57 9 -114 -4 -61 0 -95 17 -158 13 -47 25 -134 30 -209 5 -71
12 -131 16 -135 10 -10 -5 278 -15 298 -17 30 -30 139 -24 190 l5 47 64 -60
c46 -44 62 -67 59 -81 -2 -11 -7 -41 -10 -68 -4 -29 -10 -45 -17 -41 -7 4 -8
-2 -2 -17 18 -57 63 -213 61 -214 -1 -1 -17 -6 -35 -11 -19 -5 -32 -13 -30
-19 6 -19 122 1 286 49 l83 24 10 -26 c18 -47 23 -118 9 -127 -9 -6 -7 -12 10
-25 l22 -17 -25 -40 c-14 -22 -32 -56 -40 -74 -13 -31 -20 -36 -77 -47 -59
-13 -63 -12 -85 8 -13 12 -28 19 -34 16 -5 -4 -17 4 -26 16 l-17 23 7 -30 c3
-16 8 -45 10 -64 3 -19 13 -44 23 -55 11 -12 34 -53 52 -93 18 -39 43 -82 56
-94 13 -12 24 -20 24 -18 0 3 -18 47 -39 97 -38 88 -38 97 -3 93 7 -1 34 10
60 24 34 18 53 37 65 63 11 23 13 38 7 40 -6 2 5 33 25 69 37 67 39 93 9 93
-12 0 -14 3 -6 13 10 12 -6 119 -22 145 -8 13 31 25 154 48 47 9 92 20 100 24
12 7 14 34 11 161 -2 84 -7 164 -12 178 -8 19 -6 27 6 33 13 8 22 38 11 38 -3
0 -42 -9 -88 -20 -46 -11 -102 -20 -126 -20 -25 0 -41 -4 -37 -10 5 -8 -20
-17 -130 -47 -11 -3 -17 -2 -13 2 11 11 -11 35 -31 35 -9 0 -50 -16 -90 -35
-42 -20 -81 -33 -92 -30 -27 9 -159 177 -151 194 4 8 74 28 318 91 190 50 244
59 244 40 0 -5 19 -21 41 -36 48 -30 91 -27 128 7 17 16 20 24 10 35 -6 8 -18
14 -26 14 -8 0 -11 5 -8 10 9 14 -7 12 -48 -5 -20 -8 -39 -15 -41 -15 -3 0 -3
7 0 15 4 9 1 15 -7 15 -20 0 49 67 84 81 29 12 32 11 59 -22 46 -53 140 -198
142 -216 0 -10 -9 -19 -24 -23 -23 -6 -28 0 -66 81 -23 47 -47 89 -53 93 -15
10 -16 13 34 -104 47 -107 83 -164 70 -107 -8 32 -2 33 46 8 34 -19 40 -19
100 -5 35 8 123 33 194 55 72 22 190 53 263 69 73 16 187 46 253 65 67 20 133
38 147 39 56 6 49 28 -38 127 -46 52 -101 118 -123 147 -37 48 -42 52 -81 51
-22 0 -86 -13 -141 -28z m182 -44 c12 -17 56 -70 97 -117 41 -47 71 -88 68
-91 -12 -10 -260 -76 -392 -104 -69 -14 -146 -32 -171 -39 l-46 -14 -24 47
c-17 36 -28 47 -44 45 -11 -1 -23 -3 -27 -3 -17 -2 -7 -51 16 -78 l24 -29
-104 -29 c-57 -15 -105 -26 -107 -24 -1 2 -13 24 -26 49 -13 25 -46 76 -73
114 -27 38 -46 72 -41 76 19 18 184 73 284 96 129 29 122 28 115 6 -6 -18 26
-62 45 -62 18 0 21 30 5 55 -9 13 -16 26 -16 29 0 12 320 103 370 105 17 1 32
-9 47 -32z m-937 -725 l0 -168 -92 -17 c-51 -9 -164 -37 -252 -62 -87 -25
-167 -45 -177 -45 -13 0 -21 12 -29 41 -6 23 -9 43 -6 46 3 3 43 9 89 14 54 5
103 17 138 34 30 13 72 25 94 26 78 1 84 18 7 18 -55 1 -83 -4 -114 -20 -23
-12 -66 -25 -97 -29 -31 -4 -72 -11 -92 -15 l-37 -7 -15 50 c-14 48 -13 59 9
180 3 13 10 21 17 19 7 -2 35 5 62 16 28 11 73 21 102 23 28 1 91 13 140 25
83 21 164 34 226 38 l27 1 0 -168z"/>
<path d="M13234 4649 c15 -17 33 -44 42 -60 8 -16 19 -29 24 -29 39 0 -39 119
-78 120 -9 0 -4 -12 12 -31z"/>
<path d="M12418 4259 c-29 -16 -24 -84 6 -105 29 -18 49 -11 75 30 23 34 16
65 -16 77 -30 11 -43 11 -65 -2z"/>
<path d="M14092 4767 c-16 -60 -25 -187 -14 -187 10 0 42 151 40 193 -1 43
-14 41 -26 -6z"/>
<path d="M14356 4718 c-17 -63 -7 -75 73 -93 32 -7 33 -6 19 8 -8 9 -31 19
-52 22 -35 7 -36 8 -30 46 7 42 0 53 -10 17z"/>
<path d="M13986 4695 c-39 -19 -79 -44 -90 -56 l-21 -21 26 4 26 5 7 -161 c4
-89 7 -169 7 -178 0 -10 5 -18 11 -18 7 0 9 60 7 192 l-4 192 45 25 c46 26 78
51 63 51 -4 0 -39 -16 -77 -35z"/>
<path d="M14240 4640 c30 -28 78 -70 105 -92 l50 -42 -40 43 c-22 23 -69 65
-105 92 l-65 50 55 -51z"/>
<path d="M14474 4415 c0 -110 2 -156 3 -103 2 53 2 143 0 200 -1 57 -3 13 -3
-97z"/>
<path d="M14035 4540 c17 -17 80 -69 140 -115 61 -45 139 -108 174 -140 l63
-59 -26 -18 c-26 -19 -73 -84 -101 -138 -9 -17 -33 -39 -54 -50 -72 -36 -98
-99 -67 -158 15 -28 105 -102 124 -102 6 0 21 -13 33 -30 44 -59 166 -81 206
-37 11 12 23 31 27 42 3 11 29 44 56 73 28 30 52 66 56 80 3 15 18 52 35 83
16 31 29 66 29 78 0 21 -108 139 -145 158 -11 6 -29 7 -40 2 -34 -13 -64 -10
-80 9 -8 9 -38 46 -66 82 -28 35 -63 77 -78 93 -26 28 -99 83 -114 86 -4 0
-31 14 -61 30 -29 15 -69 34 -87 41 -19 8 -38 16 -44 18 -5 3 4 -10 20 -28z"/>
<path d="M8502 4383 c-27 -38 -72 -129 -72 -145 0 -7 15 16 33 52 18 36 41 77
51 93 10 15 16 27 13 27 -3 0 -14 -12 -25 -27z"/>
<path d="M15176 4114 c-24 -30 -33 -34 -60 -29 -28 5 -34 1 -66 -40 -19 -25
-44 -56 -56 -68 -29 -31 -64 -83 -64 -96 0 -6 11 -11 25 -11 25 0 25 -1 11
-27 -7 -16 -17 -53 -21 -83 -4 -30 -15 -72 -26 -93 -10 -21 -19 -43 -19 -50 0
-7 -9 -18 -19 -24 -11 -7 -22 -25 -26 -41 -3 -16 -30 -67 -60 -113 -30 -46
-55 -88 -55 -94 0 -6 -11 -33 -23 -61 -52 -108 -87 -217 -96 -295 -6 -51 -5
-57 8 -48 35 20 50 37 72 79 13 25 25 47 28 50 6 5 14 19 80 145 21 39 42 79
48 90 6 11 19 40 28 65 10 25 44 100 76 167 33 68 59 127 59 133 0 5 6 10 13
10 23 0 56 44 102 136 28 56 45 102 45 125 0 20 3 38 6 42 5 4 108 -73 194
-146 8 -6 44 -35 80 -64 64 -51 109 -89 161 -134 24 -21 25 -24 11 -51 -8 -16
-25 -33 -38 -38 -13 -5 -35 -27 -49 -49 -21 -31 -27 -52 -28 -107 -2 -66 -1
-68 29 -86 30 -18 32 -18 58 3 14 11 26 29 26 39 0 9 7 23 15 30 8 7 15 18 15
25 0 7 12 48 26 91 29 87 34 142 15 176 -7 13 -37 43 -67 68 -30 24 -54 49
-54 55 0 6 3 7 8 0 4 -5 30 -28 57 -50 98 -78 95 -74 95 -129 0 -28 -5 -69
-11 -91 -5 -22 -12 -202 -14 -400 -2 -198 -6 -382 -9 -410 -2 -27 -4 -60 -5
-73 -1 -14 -10 -26 -25 -32 -13 -5 -30 -18 -38 -28 -7 -11 -48 -46 -91 -78
-42 -31 -77 -62 -77 -69 0 -6 -10 -11 -21 -12 -12 -1 -29 -9 -38 -17 -10 -9
-21 -16 -26 -16 -5 0 -51 -16 -102 -36 l-94 -36 -47 48 c-26 27 -54 62 -62 79
-8 16 -55 70 -103 120 l-88 90 71 -123 c38 -68 70 -126 70 -128 0 -3 11 -22
25 -42 26 -38 36 -71 12 -38 -8 11 -20 17 -28 14 -18 -6 -77 24 -106 54 -57
59 -59 63 -59 119 0 30 -6 83 -14 119 l-15 65 -6 -65 c-4 -36 -7 -95 -8 -132
-1 -50 -5 -68 -14 -68 -24 0 -49 -37 -42 -60 6 -20 5 -21 -14 -11 -24 14 -27
4 -6 -23 8 -11 15 -32 15 -47 0 -15 11 -40 24 -56 12 -15 25 -33 27 -40 8 -25
154 -173 170 -173 33 0 50 13 65 49 8 20 14 50 12 66 -1 17 1 36 6 43 4 7 8
36 9 66 l1 53 54 -29 c30 -15 60 -28 68 -28 8 0 56 23 106 52 51 28 129 71
173 94 44 23 105 56 135 73 89 50 85 54 84 -126 0 -87 -4 -205 -9 -262 -7 -99
-9 -106 -40 -138 -17 -18 -35 -33 -39 -33 -4 0 -26 -16 -49 -35 -22 -19 -47
-35 -55 -35 -8 0 -30 -11 -48 -25 -18 -14 -37 -25 -43 -25 -5 0 -16 -8 -23
-19 -7 -10 -28 -22 -46 -26 -18 -4 -36 -13 -39 -21 -3 -8 -11 -14 -18 -14 -16
0 -112 -60 -140 -87 -11 -11 -28 -22 -37 -26 -12 -4 -17 -15 -16 -32 3 -30 37
-43 73 -27 49 23 59 12 56 -64 -1 -38 -6 -112 -11 -164 -5 -52 -10 -141 -10
-197 0 -65 -4 -103 -10 -103 -6 0 -24 10 -40 21 l-28 22 5 216 c3 119 3 214 0
210 -9 -7 -15 -120 -16 -280 l-1 -137 -25 -6 c-15 -4 -40 0 -58 8 -20 9 -56
14 -100 12 -63 -3 -72 -6 -138 -52 -38 -27 -79 -54 -90 -60 -36 -20 -89 -72
-89 -87 0 -15 -14 -44 -41 -87 -9 -14 -19 -50 -23 -80 -3 -35 -12 -60 -23 -67
-19 -14 -87 -18 -79 -4 10 15 14 313 6 434 -5 66 -13 124 -19 130 -9 9 -11
-64 -10 -286 1 -318 -1 -334 -47 -323 -12 3 -27 0 -33 -8 -6 -7 -32 -19 -56
-26 -25 -7 -55 -23 -67 -35 -29 -28 -111 -84 -161 -110 -45 -24 -24 -34 25
-12 43 19 136 47 155 47 8 0 42 13 76 28 126 59 211 81 279 73 72 -9 122 6
126 36 2 12 15 26 33 33 32 14 34 21 18 51 -5 11 -7 28 -4 39 9 29 85 100 114
106 14 3 50 15 79 25 56 20 141 25 158 10 5 -5 20 -11 34 -13 53 -7 97 -144
87 -271 -5 -53 -11 -76 -25 -87 -10 -8 -21 -23 -25 -32 -3 -10 -11 -18 -17
-18 -5 0 -10 -13 -10 -30 0 -26 4 -30 26 -30 17 0 23 -4 18 -12 -23 -36 96 69
123 108 49 76 28 351 -33 432 -54 70 -74 103 -74 122 0 21 24 27 35 10 14 -23
130 -5 166 26 8 8 24 14 34 14 10 0 41 13 69 28 28 16 63 32 79 36 52 13 177
78 177 92 0 8 7 25 15 38 8 12 15 33 14 47 -2 36 10 154 17 172 3 8 1 25 -5
36 -8 14 -8 26 -2 38 19 34 27 130 25 273 -2 79 -8 148 -13 153 -8 8 -24 -35
-46 -126 -4 -15 -11 -30 -16 -33 -5 -3 -9 -16 -9 -29 0 -13 -4 -26 -9 -29 -9
-6 -18 -58 -27 -156 -2 -30 -7 -66 -9 -80 -6 -35 -26 -160 -29 -190 -2 -14 -9
-24 -15 -22 -14 3 -171 -79 -171 -90 0 -4 -15 -8 -33 -8 -20 0 -39 -8 -50 -20
-9 -11 -28 -20 -42 -20 -14 0 -30 -9 -37 -20 -7 -11 -22 -20 -34 -20 -23 0
-54 -29 -54 -51 0 -8 -4 -20 -9 -28 -5 -7 -7 92 -5 230 2 134 4 251 4 259 0 8
10 20 23 26 81 40 184 97 212 119 19 14 37 25 42 25 8 0 75 47 160 112 54 41
87 106 79 156 -3 20 -8 286 -12 591 -3 305 -7 580 -8 612 -2 45 1 60 16 73 20
18 22 34 20 259 -1 115 -5 157 -19 185 -22 50 -94 116 -167 153 -91 47 -124
65 -138 77 -17 13 -74 45 -171 94 l-79 41 6 43 c3 24 2 44 -2 43 -4 0 -20 -16
-36 -35z m181 -160 c79 -53 142 -99 139 -101 -3 -3 -18 3 -33 13 -66 44 -99
61 -117 62 -5 0 -12 4 -15 9 -7 10 -42 30 -96 56 -22 11 -41 20 -43 22 -4 4
10 35 16 35 3 0 70 -43 149 -96z m198 -142 c-3 -3 -11 0 -18 7 -9 10 -8 11 6
5 10 -3 15 -9 12 -12z m35 -1327 c0 -5 -68 -35 -79 -35 -8 1 61 39 72 40 4 0
7 -2 7 -5z"/>
<path d="M14830 3970 c-14 -4 -18 -9 -10 -10 8 -1 0 -8 -17 -16 -40 -17 -45
-55 -12 -78 20 -13 25 -13 53 1 57 29 64 39 52 78 -11 36 -21 40 -66 25z"/>
<path d="M11992 3728 c-31 -97 -33 -110 -22 -145 15 -46 76 -168 102 -205 10
-15 36 -73 57 -130 45 -120 77 -188 91 -188 14 0 13 2 -16 67 -14 32 -55 132
-91 223 -36 91 -68 167 -73 170 -4 3 -18 25 -30 50 l-23 44 23 87 c34 133 21
153 -18 27z"/>
<path d="M8641 3767 c-47 -61 -93 -160 -85 -181 3 -8 17 -17 30 -20 20 -5 36
2 74 34 l50 41 -26 -57 c-43 -97 -19 -160 45 -113 34 25 36 45 2 42 -28 -4
-27 2 14 109 38 99 35 136 -7 75 -28 -41 -104 -107 -124 -107 -23 0 -16 25 36
127 56 109 54 103 40 103 -5 0 -27 -24 -49 -53z"/>
<path d="M13467 3779 c-114 -13 -303 -114 -281 -150 10 -17 -19 -9 -32 9 -12
16 -17 15 -71 -14 -38 -20 -59 -38 -61 -51 -4 -26 28 -39 57 -24 42 23 65 14
84 -33 25 -60 66 -102 83 -84 9 10 9 30 -2 93 -8 44 -12 85 -10 92 3 6 47 32
98 57 66 32 111 47 156 51 l62 7 0 -32 c0 -41 24 -60 65 -53 39 8 55 21 55 47
0 11 5 28 10 36 7 11 18 -4 45 -63 19 -43 35 -86 35 -96 0 -48 -41 -109 -117
-172 -43 -36 -87 -82 -98 -102 -11 -20 -23 -37 -28 -37 -5 0 -27 -13 -50 -29
-46 -32 -123 -154 -133 -212 -5 -27 3 -19 36 41 59 107 85 137 138 164 30 16
54 37 66 60 10 19 53 64 96 100 64 55 81 75 98 122 12 30 22 62 22 71 0 8 -19
55 -41 104 -44 93 -61 106 -92 72 -8 -10 -17 -27 -20 -38 -2 -11 -3 -4 -2 17
5 61 -13 66 -168 47z"/>
<path d="M8869 3199 c-8 -16 -8 -20 1 -14 26 16 75 -58 116 -173 18 -52 66
-112 88 -112 6 0 30 9 52 19 41 19 42 19 63 -2 19 -19 22 -20 37 -6 14 15 13
19 -11 47 -29 35 -56 39 -95 17 -39 -22 -42 -19 -39 40 3 62 -10 86 -36 65 -8
-7 -15 -20 -15 -29 -1 -9 -13 12 -27 47 -42 102 -107 151 -134 101z"/>
<path d="M12420 3037 c0 -2 13 -33 29 -68 15 -35 36 -89 46 -119 18 -57 35
-85 35 -60 0 10 12 16 34 17 19 1 47 9 63 18 27 15 27 16 -37 10 l-66 -6 -12
48 c-15 57 -64 155 -80 161 -7 2 -12 2 -12 -1z"/>
<path d="M12967 2954 c-178 -45 -266 -79 -249 -96 11 -11 291 30 399 57 28 7
54 11 57 8 2 -3 14 -2 25 2 26 8 28 43 4 61 -26 19 -49 16 -236 -32z"/>
<path d="M14696 2838 c-3 -40 -8 -122 -11 -183 -6 -124 -9 -161 -30 -401 -8
-94 -15 -176 -15 -181 0 -6 -28 -16 -62 -23 -35 -8 -65 -14 -68 -15 -3 0 -23
-5 -45 -10 -22 -5 -42 -9 -45 -10 -3 -1 -21 -5 -40 -9 -19 -4 -46 -11 -60 -15
-14 -5 -68 -21 -120 -36 -52 -15 -122 -36 -155 -47 -33 -11 -67 -22 -75 -24
-8 -2 -26 -6 -38 -10 -22 -6 -23 -5 -11 15 8 11 18 21 23 21 5 0 16 7 25 15
45 43 106 86 130 92 14 3 35 12 46 19 11 6 35 15 53 19 17 4 32 10 32 14 0 5
15 11 33 14 17 3 64 19 102 37 213 98 219 104 177 182 -15 28 -44 68 -65 91
-36 37 -38 44 -32 82 4 33 2 44 -10 48 -8 4 -15 15 -15 26 0 33 -47 61 -101
61 -59 0 -97 -16 -101 -43 -2 -12 -27 -34 -65 -56 -33 -20 -105 -63 -160 -96
-119 -73 -114 -71 -107 -48 4 10 -14 -1 -42 -27 -81 -75 -151 -161 -189 -233
l-26 -49 31 19 c29 16 104 94 160 166 15 19 26 25 33 18 9 -9 -25 -80 -56
-113 -74 -82 -188 -196 -260 -261 -48 -43 -85 -82 -82 -87 6 -10 -12 -23 -35
-27 -8 -1 -37 -5 -65 -8 -64 -8 -146 -26 -269 -59 -54 -14 -108 -28 -120 -30
-91 -17 -98 -20 -105 -40 -5 -11 -3 -61 4 -111 7 -49 15 -115 19 -145 4 -30
20 -136 37 -235 37 -225 33 -199 70 -395 18 -91 35 -197 38 -237 9 -109 25
-114 42 -12 7 44 7 77 0 106 -16 61 -29 123 -36 163 -3 19 -12 73 -21 120 -24
136 -44 252 -50 295 -3 22 -12 76 -19 120 -8 44 -19 125 -25 180 -6 55 -13
107 -16 115 -4 17 44 40 84 40 12 0 71 16 131 35 60 20 155 44 212 54 57 11
131 27 164 36 33 9 69 18 80 20 11 3 53 12 94 21 57 13 79 14 93 5 26 -16 49
-13 78 9 14 11 33 20 43 20 10 0 31 7 47 15 16 8 37 17 47 18 10 2 25 7 33 10
8 3 49 15 90 27 41 12 82 25 90 28 8 3 20 6 25 7 6 2 66 17 135 35 69 17 137
33 151 35 15 2 51 10 81 18 l55 14 0 -69 c0 -63 -2 -69 -19 -65 -21 6 -150
-23 -159 -35 -3 -5 -46 -22 -95 -39 -49 -17 -91 -33 -94 -36 -3 -3 20 -2 50 1
30 3 82 6 115 7 33 1 87 7 120 14 33 6 95 11 139 11 85 -1 81 2 113 -71 9 -22
25 -46 34 -53 10 -6 20 -25 24 -42 4 -16 11 -32 16 -35 5 -4 9 -14 9 -24 0 -9
14 -36 31 -59 17 -23 29 -47 27 -54 -2 -6 -29 -18 -59 -25 -30 -7 -63 -16 -74
-19 -11 -2 -33 -6 -50 -8 -59 -7 -257 -79 -283 -103 l-27 -24 -14 33 c-33 74
-144 296 -170 341 -15 27 -38 58 -50 70 -12 12 29 -82 94 -216 64 -131 114
-244 111 -252 -4 -13 6 -15 62 -12 37 2 76 9 87 14 11 6 40 17 65 23 82 23
115 33 135 41 25 10 97 29 150 40 22 5 58 12 80 16 36 7 41 12 49 46 8 31 6
42 -10 65 -11 15 -30 49 -43 75 -12 27 -31 58 -41 70 -11 11 -27 42 -35 68 -9
27 -27 64 -40 83 -13 19 -31 50 -40 70 -13 28 -25 37 -52 42 -21 4 -39 2 -46
-5 -6 -6 -24 -11 -39 -11 -27 0 -28 1 -28 58 0 68 11 85 63 102 49 15 41 25
-9 11 -21 -6 -39 -9 -41 -7 -7 6 -6 38 5 146 5 58 10 112 10 120 0 8 3 40 7
70 16 113 9 470 -9 487 -2 3 -7 -28 -10 -69z m-446 -380 c12 -10 32 -18 45
-18 13 0 30 -10 39 -25 19 -29 30 -31 70 -10 15 8 30 15 32 15 8 0 64 -121 64
-138 0 -13 -18 -26 -57 -45 -51 -23 -133 -57 -137 -57 -1 0 -1 15 -1 32 0 23
-5 34 -17 36 -23 4 -83 -25 -111 -54 -12 -13 -26 -24 -30 -24 -4 0 -13 -5 -20
-10 -63 -53 -61 -52 -68 -33 -4 10 -41 51 -83 92 -73 72 -75 75 -56 90 11 9
32 26 48 38 15 13 77 61 137 108 l110 85 7 -32 c3 -18 16 -41 28 -50z m-302
-288 c68 -66 88 -100 59 -100 -8 0 -22 -9 -32 -20 -10 -11 -24 -20 -32 -20 -7
0 -13 -4 -13 -10 0 -5 -13 -16 -30 -25 -18 -9 -30 -23 -30 -35 0 -12 -7 -20
-17 -20 -23 0 -78 -49 -87 -76 -5 -17 -18 -23 -59 -28 -67 -10 -79 -12 -97
-19 -8 -3 -33 -8 -55 -12 l-40 -6 122 118 c122 118 204 229 218 294 4 16 10
29 13 29 4 0 40 -31 80 -70z"/>
<path d="M13625 2794 c-17 -7 -56 -24 -87 -38 -31 -14 -59 -26 -62 -26 -3 0
-34 -13 -68 -29 -35 -16 -84 -37 -110 -46 -26 -10 -53 -24 -59 -31 -6 -8 -16
-11 -21 -8 -5 3 -17 -1 -26 -9 -9 -8 -28 -18 -42 -22 -21 -7 -85 -35 -205 -90
-55 -25 -103 -45 -109 -45 -3 0 -8 17 -12 37 -4 21 -14 49 -23 63 -56 91 -77
120 -88 124 -24 10 -84 -16 -125 -54 -24 -22 -54 -51 -69 -64 -14 -13 -34 -26
-46 -30 -11 -4 -28 -15 -38 -26 -10 -11 -22 -20 -28 -20 -5 0 -36 -18 -69 -40
-33 -22 -65 -40 -70 -40 -6 0 -31 -11 -57 -24 -25 -13 -73 -37 -106 -52 -33
-16 -64 -35 -68 -42 -5 -7 -12 -10 -18 -7 -5 4 -22 -3 -38 -15 -27 -19 -122
-43 -153 -39 -46 6 -48 -15 -13 -151 47 -184 58 -220 66 -220 5 0 9 -9 9 -20
0 -23 13 -76 53 -220 35 -126 66 -268 72 -329 4 -51 17 -66 61 -76 27 -5 38
-1 67 24 19 17 39 31 45 31 5 0 15 6 21 14 13 15 142 96 154 96 4 0 16 -20 27
-44 23 -51 41 -60 107 -50 59 9 204 69 216 89 5 9 17 13 30 10 26 -5 86 23
101 48 15 25 -27 60 -65 55 -22 -3 -31 4 -60 45 -29 42 -40 51 -71 54 -33 3
-37 1 -43 -25 -5 -25 0 -59 16 -121 3 -9 -14 -21 -46 -33 -27 -11 -58 -24 -67
-29 -28 -14 -48 0 -48 35 0 36 -18 75 -41 89 -19 12 -95 -21 -143 -63 -17 -15
-42 -31 -56 -35 -14 -4 -36 -17 -50 -30 -14 -13 -35 -26 -46 -29 -19 -6 -22
-2 -27 26 -2 18 -14 69 -26 112 -11 44 -21 87 -21 97 0 10 -6 38 -14 61 -18
55 -41 138 -60 208 -7 30 -26 98 -41 150 -37 131 -40 150 -24 151 8 1 21 3 29
4 27 3 160 67 347 166 37 20 91 48 118 62 89 47 163 99 225 160 l44 44 23 -34
c13 -19 23 -36 23 -39 0 -3 6 -20 14 -37 8 -18 17 -48 20 -68 10 -56 46 -67
110 -34 48 24 121 34 128 17 2 -5 17 -12 34 -15 26 -5 41 1 85 34 34 25 54 48
54 60 0 14 14 26 43 39 23 11 46 19 50 20 17 1 164 66 237 105 193 104 200
109 200 139 0 36 -28 48 -70 30z"/>
<path d="M14374 2770 c-25 -10 -42 -74 -24 -95 19 -23 49 -5 62 37 14 47 -2
72 -38 58z"/>
<path d="M13926 2695 c-8 -8 -17 -15 -19 -15 -11 0 -239 -112 -235 -115 2 -2
28 3 57 11 29 9 55 13 59 10 3 -4 -9 -20 -26 -36 -36 -33 -40 -51 -15 -80 22
-25 73 -26 127 -2 23 10 63 26 90 35 48 17 114 63 115 81 1 14 -51 66 -66 66
-7 0 -13 8 -13 18 0 39 -45 55 -74 27z"/>
<path d="M14100 2623 c0 -52 20 -61 49 -23 l21 29 -27 -2 c-15 -1 -28 3 -28
10 0 6 -3 15 -7 19 -5 4 -8 -11 -8 -33z"/>
<path d="M13265 2253 c-34 -7 -79 -26 -95 -38 -8 -7 -27 -15 -41 -19 -15 -3
-29 -14 -31 -24 -4 -14 -18 -21 -56 -26 -48 -6 -79 -25 -65 -39 3 -4 30 -7 59
-7 29 0 56 -4 59 -10 12 -19 73 -11 88 10 10 14 30 23 63 27 47 5 68 18 58 35
-3 4 2 20 10 36 10 19 11 33 5 45 -10 17 -17 18 -54 10z"/>
<path d="M14100 1825 c-7 -8 -17 -15 -22 -15 -5 0 -35 -12 -66 -27 -31 -15
-59 -28 -62 -29 -14 -3 -68 -26 -92 -39 -14 -8 -31 -15 -38 -15 -6 0 -30 -9
-52 -20 -23 -11 -45 -20 -49 -20 -4 0 -29 -10 -56 -22 -50 -22 -55 -24 -88
-32 -11 -2 -33 -10 -50 -17 -16 -6 -38 -13 -48 -14 -10 -1 -25 -9 -34 -17 -14
-14 -13 -18 5 -36 11 -11 24 -21 30 -23 11 -4 147 -281 184 -373 23 -60 43
-77 75 -65 19 7 111 32 203 55 8 2 58 15 110 28 52 14 133 32 180 41 47 9 97
21 113 27 31 12 36 41 8 60 -21 15 -94 239 -154 473 -12 44 -26 83 -31 87 -18
13 -53 9 -66 -7z m125 -280 c39 -121 79 -234 88 -252 9 -18 17 -34 17 -37 0
-2 -24 -7 -52 -11 -29 -4 -60 -9 -68 -10 -38 -8 -248 -63 -412 -109 l-86 -24
-17 46 c-22 60 -127 262 -166 319 -34 52 -35 53 -9 53 19 0 157 42 195 59 11
5 42 17 68 27 26 9 50 21 53 25 3 5 12 9 20 9 16 0 186 77 254 116 14 7 29 12
34 11 5 -2 41 -102 81 -222z"/>
<path d="M13200 1635 c-102 -15 -154 -36 -176 -71 -20 -30 -19 -40 55 -329 28
-110 51 -222 51 -248 0 -64 22 -105 57 -109 42 -5 316 16 331 25 13 9 17 49 5
61 -4 4 -9 19 -11 34 -2 14 -7 31 -12 37 -9 10 -15 34 -27 105 -3 19 -10 43
-14 52 -5 9 -11 33 -15 53 -3 20 -21 80 -41 133 -19 54 -36 104 -38 112 -2 8
-4 17 -5 20 -1 3 -2 8 -1 13 0 4 -3 7 -9 7 -5 0 -10 -7 -10 -17 0 -13 112
-467 136 -550 6 -21 3 -23 -27 -24 -19 0 -47 -2 -64 -4 -118 -12 -194 -14
-200 -5 -3 5 -8 33 -10 62 -2 29 -6 62 -8 73 -3 11 -8 40 -12 65 -4 25 -11 52
-15 60 -5 9 -15 47 -23 85 -8 39 -26 110 -38 158 -34 128 -33 128 183 153 63
7 105 37 78 54 -18 12 -32 11 -140 -5z"/>
<path d="M14208 1074 c-4 -3 -21 -8 -40 -10 -18 -3 -40 -8 -48 -11 -8 -3 -75
-18 -149 -32 -129 -26 -162 -41 -124 -55 25 -10 213 36 333 81 8 3 21 7 29 9
22 4 38 24 20 24 -9 0 -18 -3 -21 -6z"/>
<path d="M14241 1036 c-6 -8 -14 -29 -16 -47 -5 -38 -16 -47 -64 -47 -70 -1
-208 -65 -250 -115 -22 -27 -29 -20 -26 23 2 22 0 42 -4 45 -4 2 -9 -23 -10
-55 -1 -39 2 -60 9 -60 6 0 45 16 87 35 42 19 78 33 81 31 2 -3 15 0 29 5 35
13 88 21 148 23 62 1 78 25 72 104 -5 64 -30 90 -56 58z"/>
<path d="M13615 909 c-38 -11 -82 -22 -97 -25 -62 -12 -203 -65 -234 -89 -63
-49 -72 -80 -74 -270 0 -93 2 -166 6 -163 3 4 8 79 9 167 4 191 12 219 73 257
24 16 49 29 55 30 7 1 39 9 72 18 92 26 288 66 293 61 3 -2 -2 -80 -11 -172
-9 -93 -18 -204 -21 -248 -4 -77 -4 -79 9 -40 15 45 34 159 42 255 3 36 8 81
12 100 4 19 7 58 6 85 l0 50 -35 2 c-19 1 -66 -7 -105 -18z"/>
<path d="M14640 410 c-16 -10 -80 -38 -156 -69 -58 -24 -47 -27 22 -6 27 8 50
14 52 14 1 0 22 3 47 6 41 7 46 5 70 -23 29 -35 56 -46 85 -37 31 10 24 37
-23 83 -42 41 -67 50 -97 32z"/>
</g>
</svg>
