<?xml version="1.0" standalone="no"?>
<!DOCTYPE svg PUBLIC "-//W3C//DTD SVG 20010904//EN"
 "http://www.w3.org/TR/2001/REC-SVG-20010904/DTD/svg10.dtd">
<svg version="1.0" xmlns="http://www.w3.org/2000/svg"
 width="1000.000000pt" height="1000.000000pt" viewBox="0 0 1000.000000 1000.000000"
 preserveAspectRatio="xMidYMid meet">

<g transform="translate(0.000000,1000.000000) scale(0.100000,-0.100000)"
fill="#000000" stroke="none">
<path d="M6335 9957 c-14 -24 -25 -51 -25 -60 0 -24 27 -45 73 -58 118 -32
261 -137 296 -218 43 -101 25 -207 -69 -413 -33 -71 -60 -136 -60 -143 0 -7
-10 -35 -22 -62 -11 -26 -22 -64 -23 -83 -3 -37 -43 -141 -150 -390 -196 -453
-207 -492 -208 -705 0 -158 9 -218 59 -378 27 -84 37 -137 41 -212 7 -144 2
-154 -227 -425 -236 -280 -350 -560 -350 -858 1 -190 56 -413 105 -420 12 -2
29 -18 40 -38 40 -75 152 -143 193 -118 43 28 42 45 -14 194 -24 65 -28 90
-28 180 0 159 13 203 90 302 139 178 250 271 371 308 105 32 265 45 383 31
212 -26 341 -89 659 -320 102 -74 143 -110 188 -164 12 -15 30 -27 40 -27 59
0 128 96 139 197 12 93 -59 357 -127 478 -67 120 -227 255 -394 335 -76 36
-362 127 -472 150 -47 10 -53 15 -75 58 -14 26 -45 82 -71 126 -70 119 -86
230 -46 313 32 66 236 281 426 448 75 67 151 120 294 205 202 120 271 167 377
257 35 30 66 52 69 49 10 -10 64 49 88 98 l26 51 -7 -40 c-3 -22 -19 -94 -34
-160 -41 -175 -45 -212 -25 -241 33 -50 119 -21 202 69 74 81 171 253 212 373
44 131 136 662 148 851 4 59 10 90 16 86 6 -4 8 0 4 9 -12 34 50 67 136 72 76
5 121 26 142 66 23 44 19 117 -10 178 -14 30 -25 63 -25 73 0 12 -7 19 -20 19
-27 0 -26 -30 5 -105 48 -116 25 -177 -71 -190 -103 -13 -118 -17 -144 -44
l-28 -27 -6 57 c-7 76 -30 129 -70 166 l-33 31 -2 -48 c-1 -27 3 -51 9 -55 18
-11 11 -23 -23 -34 -52 -18 -179 -105 -226 -156 -54 -59 -106 -168 -128 -267
-13 -64 -15 -96 -7 -178 8 -84 7 -100 -5 -100 -8 0 -12 -3 -8 -6 7 -7 3 -11
-83 -88 -88 -79 -249 -194 -363 -260 -113 -65 -197 -119 -197 -127 0 -3 15
-14 33 -24 32 -17 34 -17 78 5 54 28 129 87 129 103 0 7 19 22 41 35 58 33
193 132 264 192 l60 51 3 -37 c2 -20 -1 -40 -6 -43 -5 -3 -17 -46 -27 -95 -10
-48 -25 -94 -32 -102 -8 -7 -14 -16 -13 -19 0 -3 0 -9 0 -15 0 -16 -120 -138
-199 -202 -74 -59 -373 -264 -379 -259 -1 1 -17 -1 -35 -5 -45 -9 -100 -49
-227 -165 l-110 -100 31 53 c17 29 37 60 43 68 7 8 17 22 21 30 8 13 6 13 -7
2 -27 -22 -100 -151 -92 -164 4 -6 3 -8 -3 -5 -6 4 -23 -17 -38 -46 -16 -28
-39 -62 -52 -75 -13 -13 -20 -29 -17 -35 4 -7 4 -9 0 -5 -8 6 -49 -27 -104
-82 -13 -14 -35 -49 -49 -79 -22 -46 -25 -63 -21 -130 6 -96 32 -167 96 -267
28 -44 54 -91 57 -106 9 -37 20 -43 95 -58 82 -15 362 -102 438 -136 82 -36
239 -144 299 -206 69 -71 116 -151 152 -262 69 -209 79 -309 38 -386 -26 -50
-57 -74 -65 -50 -9 27 -85 93 -203 176 -258 184 -386 254 -534 294 -195 52
-472 31 -632 -47 -62 -31 -174 -130 -217 -192 -16 -23 -34 -41 -40 -41 -14 0
-76 -81 -104 -137 -30 -58 -45 -160 -40 -276 4 -92 8 -113 46 -205 23 -57 39
-108 36 -114 -9 -14 -61 -2 -96 23 -17 12 -50 53 -74 90 -25 38 -52 72 -60 77
-27 15 -65 184 -71 317 -6 139 10 246 59 390 64 189 149 327 347 563 158 189
166 206 165 347 0 95 -5 123 -32 205 -59 181 -64 207 -69 391 -5 154 -3 185
15 255 34 136 106 298 77 174 -4 -14 12 20 33 75 22 55 78 192 125 305 46 113
88 220 92 238 5 25 11 32 25 27 21 -7 33 11 79 115 19 41 40 80 47 86 8 6 14
14 14 18 0 4 30 71 67 149 85 179 87 211 29 334 -31 65 -47 88 -80 109 -22 15
-63 45 -90 67 -60 46 -121 78 -198 103 -69 21 -74 40 -27 97 l30 37 -25 0
c-19 0 -31 -10 -51 -43z m2031 -387 c9 -178 -44 -642 -97 -855 -52 -207 -226
-477 -327 -504 -73 -21 -77 15 -22 249 47 204 64 377 55 570 -10 216 -9 247 9
321 43 167 132 273 311 371 l50 27 7 -27 c4 -15 10 -83 14 -152z m-1768 -545
c-6 -14 -13 -23 -15 -21 -5 5 15 46 22 46 3 0 -1 -11 -7 -25z m1361 -57 c-1
-40 -1 -41 -9 -15 -8 26 -4 57 6 57 2 0 4 -19 3 -42z"/>
<path d="M7036 9948 c-45 -70 -127 -336 -125 -408 l1 -45 8 50 c16 103 94 354
125 402 9 13 13 23 10 23 -2 0 -11 -10 -19 -22z"/>
<path d="M6986 8085 c-3 -9 -6 -22 -5 -28 0 -7 5 -1 10 12 5 13 8 26 5 28 -2
2 -6 -3 -10 -12z"/>
<path d="M4718 5855 c-2 -2 -21 -6 -43 -9 -138 -18 -258 -57 -385 -124 -117
-62 -217 -150 -283 -247 -22 -33 -44 -62 -47 -65 -4 -3 -20 -52 -35 -110 -33
-126 -30 -188 10 -279 51 -113 155 -189 317 -230 315 -81 782 19 1047 223 104
80 132 122 201 294 30 74 34 92 22 92 -8 0 -13 -3 -9 -6 7 -7 -31 -108 -73
-195 -51 -106 -140 -184 -309 -269 -191 -96 -400 -143 -631 -144 -162 0 -276
21 -371 70 -124 63 -202 179 -202 304 -1 82 45 251 82 300 121 164 350 299
606 356 87 19 265 21 355 4 62 -12 200 -58 220 -74 8 -7 26 -17 40 -23 44 -18
124 -99 149 -148 28 -56 39 -192 23 -287 -5 -32 -6 -55 -2 -53 8 5 17 58 26
152 6 72 -13 159 -48 221 -77 133 -312 237 -559 247 -53 2 -98 2 -101 0z"/>
<path d="M3803 4709 c4 -12 -2 -18 -23 -23 -66 -13 -132 -124 -116 -193 11
-46 74 -129 129 -172 71 -54 205 -117 306 -142 199 -50 350 7 442 166 45 79
37 135 -23 154 -18 5 -139 26 -268 46 -129 20 -254 41 -277 47 -50 12 -127 64
-155 105 -11 15 -18 21 -15 12z m33 -50 c26 -29 91 -65 140 -78 22 -6 155 -29
295 -51 223 -35 256 -43 272 -62 26 -32 17 -75 -32 -147 -71 -104 -153 -146
-281 -146 -195 1 -443 129 -527 272 -44 75 -22 157 57 211 41 27 52 28 76 1z"/>
<path d="M3370 4181 c-59 -14 -65 -16 -72 -26 -12 -16 -9 -28 6 -22 8 3 19 -7
29 -28 61 -127 221 -200 304 -139 39 29 44 95 11 143 -41 61 -69 74 -160 77
-46 2 -99 -1 -118 -5z m210 -26 c45 -23 70 -66 70 -120 0 -43 -2 -47 -35 -61
-19 -7 -46 -14 -60 -14 -59 0 -151 59 -198 127 -37 54 -37 66 -2 74 58 13 195
10 225 -6z"/>
<path d="M6614 3280 c-11 -4 -35 -25 -53 -46 -31 -35 -33 -41 -28 -93 2 -31 7
-63 11 -72 6 -15 2 -15 -46 -3 -29 8 -57 12 -63 10 -5 -2 8 -7 30 -11 22 -4
56 -16 76 -26 87 -43 192 -206 192 -296 0 -64 -33 -92 -223 -188 -259 -132
-509 -304 -590 -407 -22 -27 -53 -78 -70 -114 -17 -35 -42 -72 -56 -80 -13 -9
-63 -21 -112 -27 -157 -18 -326 7 -917 135 -279 61 -280 61 -335 104 -71 55
-145 89 -267 120 -155 40 -279 20 -378 -60 -63 -52 -89 -112 -83 -190 9 -102
46 -155 148 -206 88 -44 146 -52 450 -59 328 -8 319 -6 393 -100 64 -81 83
-129 96 -240 22 -179 59 -210 253 -211 115 0 283 23 411 56 33 8 91 18 129 21
66 6 70 5 108 -26 21 -17 41 -31 44 -31 3 0 26 16 52 35 25 19 53 35 61 35 9
0 32 -17 52 -38 52 -55 95 -82 163 -103 108 -34 199 -22 505 66 584 167 806
253 1040 404 138 88 174 148 108 181 -25 13 -83 15 -370 12 -482 -4 -617 12
-684 82 l-34 35 20 33 c29 51 139 121 353 225 222 109 283 148 358 227 93 98
128 216 102 340 -20 96 -93 161 -237 210 -128 44 -153 64 -222 183 -35 61 -47
73 -83 87 -89 32 -254 47 -304 26z m254 -21 c67 -14 94 -37 134 -112 52 -97
89 -128 203 -167 118 -41 191 -90 225 -150 21 -39 25 -58 25 -135 0 -78 -4
-97 -27 -145 -62 -125 -169 -211 -387 -311 -234 -107 -373 -196 -407 -260 -14
-28 -13 -32 6 -59 27 -38 64 -57 148 -77 55 -13 140 -16 477 -18 226 0 422 -4
437 -9 35 -10 44 -40 23 -72 -39 -60 -325 -223 -525 -299 -193 -74 -740 -236
-914 -271 -151 -31 -271 0 -372 96 -29 28 -58 50 -64 50 -18 0 -64 -27 -84
-49 -25 -28 -32 -27 -73 9 -44 39 -91 39 -266 1 -183 -41 -291 -54 -417 -49
-90 3 -114 7 -137 24 -42 30 -63 82 -73 180 -7 64 -19 106 -40 149 -34 70
-111 162 -149 177 -15 7 -149 14 -311 19 -310 8 -365 15 -453 62 -97 51 -137
113 -137 215 0 56 29 110 85 160 90 79 212 99 367 58 116 -30 206 -71 270
-124 32 -27 63 -42 100 -50 29 -6 179 -38 333 -72 464 -100 548 -113 725 -114
202 -1 218 6 274 120 29 58 58 98 111 150 95 94 347 260 541 357 83 42 165 87
182 102 76 64 62 168 -41 303 -23 30 -57 65 -76 79 l-36 24 30 -6 c25 -5 27
-4 8 4 -23 10 -43 63 -43 113 0 30 50 94 84 109 25 11 172 4 244 -12z"/>
</g>
</svg>
