<?xml version="1.0" standalone="no"?>
<!DOCTYPE svg PUBLIC "-//W3C//DTD SVG 20010904//EN"
 "http://www.w3.org/TR/2001/REC-SVG-20010904/DTD/svg10.dtd">
<svg version="1.0" xmlns="http://www.w3.org/2000/svg"
 width="1000.000000pt" height="1000.000000pt" viewBox="0 0 1000.000000 1000.000000"
 preserveAspectRatio="xMidYMid meet">

<g transform="translate(0.000000,1000.000000) scale(0.100000,-0.100000)"
fill="#000000" stroke="none">
<path d="M7077 9970 c-14 -16 -27 -34 -29 -40 -3 -9 -31 -8 -106 0 -62 7 -171
10 -270 7 -144 -4 -179 -8 -251 -31 -96 -30 -104 -35 -143 -95 -45 -71 -34
-101 45 -122 118 -32 261 -137 296 -218 36 -86 23 -218 -33 -329 -22 -43 -23
-50 -9 -75 13 -26 12 -33 -33 -125 -26 -53 -76 -136 -110 -183 -34 -48 -68
-97 -74 -110 -25 -47 -140 -185 -212 -255 -85 -83 -268 -199 -218 -139 11 13
9 13 -17 0 -80 -40 -360 -109 -416 -103 -23 3 -67 2 -97 -2 -30 -4 -80 -4
-110 1 -30 5 -93 14 -140 19 -47 5 -96 12 -110 16 -18 5 -22 4 -15 -5 6 -6 60
-16 120 -22 61 -6 112 -13 114 -15 8 -7 -211 3 -324 15 -105 11 -156 21 -200
41 -30 14 -162 41 -225 47 -30 2 -64 9 -76 14 -19 10 -221 6 -289 -5 -16 -3
-55 -7 -85 -10 -30 -3 -84 -17 -120 -32 -67 -27 -200 -108 -200 -121 0 -5 -19
-21 -41 -38 -23 -16 -55 -54 -71 -82 -16 -29 -34 -56 -39 -59 -34 -21 37 -143
111 -189 40 -25 195 -80 255 -90 22 -4 60 -13 85 -20 25 -7 97 -21 160 -30 63
-9 131 -22 150 -30 20 -7 62 -16 95 -20 33 -4 76 -15 95 -24 19 -10 60 -24 90
-31 78 -18 99 -29 148 -80 71 -74 146 -258 198 -485 24 -107 32 -158 54 -352
21 -189 80 -249 190 -193 89 45 193 187 205 280 15 118 16 182 6 296 -25 273
-29 423 -14 498 7 39 15 80 17 92 8 40 48 122 70 143 18 17 40 23 102 27 89 5
132 10 177 18 28 5 148 16 215 20 12 0 26 6 30 12 4 6 41 16 82 24 186 32 539
189 746 331 39 27 75 49 82 49 6 0 18 -9 26 -21 8 -12 19 -18 25 -15 6 4 19 1
29 -5 46 -29 109 16 153 109 17 37 44 83 60 103 41 52 162 148 228 181 48 25
51 28 22 23 -29 -4 -32 -3 -21 10 7 9 29 15 51 15 31 0 54 11 112 52 112 81
227 179 253 218 l24 35 0 -67 c0 -100 -35 -356 -69 -498 -42 -179 -46 -216
-26 -246 33 -50 119 -21 202 69 74 81 171 253 212 373 44 131 136 662 148 851
4 59 10 90 16 86 6 -4 8 0 4 9 -12 34 50 67 136 72 76 5 121 26 142 66 23 44
19 117 -10 178 -14 30 -25 64 -25 77 0 29 42 91 88 132 l37 32 -37 1 c-30 0
-41 -6 -66 -37 -69 -88 -75 -126 -37 -218 48 -116 25 -177 -71 -190 -103 -13
-118 -17 -144 -44 l-28 -27 -6 57 c-7 76 -30 129 -70 166 l-33 31 -2 -48 c-1
-27 3 -51 9 -55 18 -11 11 -23 -23 -34 -52 -18 -179 -105 -226 -156 -54 -59
-106 -168 -128 -267 -13 -64 -15 -96 -7 -178 8 -84 7 -100 -5 -100 -8 0 -12
-3 -8 -6 7 -7 3 -11 -83 -88 -71 -64 -262 -204 -289 -213 -9 -3 -7 3 8 15 l24
19 -30 6 c-33 6 -121 -33 -174 -78 -16 -13 -34 -25 -41 -28 -9 -3 -6 -12 11
-30 21 -23 22 -27 7 -33 -9 -3 -16 -12 -16 -19 0 -14 -58 -26 -66 -13 -6 10
-31 -3 -63 -33 -20 -19 -38 -23 -110 -27 -47 -2 -97 -7 -111 -12 -14 -5 -40
-12 -59 -15 -59 -10 -101 -46 -101 -87 0 -28 40 -58 77 -58 18 0 33 -3 33 -7
-2 -25 -551 -261 -665 -286 -27 -6 -52 -14 -55 -18 -3 -4 -33 -13 -67 -19 -35
-7 -60 -16 -58 -20 3 -4 -3 -11 -12 -14 -16 -7 -258 -42 -351 -52 -73 -8 -248
-62 -204 -64 9 0 2 -15 -18 -40 -17 -22 -42 -68 -56 -102 -29 -75 -58 -272
-50 -343 9 -76 28 -414 27 -467 -5 -142 -108 -322 -198 -347 -71 -20 -86 11
-108 231 -19 184 -36 279 -75 414 -52 179 -141 347 -214 404 -10 8 -50 32 -89
53 -38 20 -66 37 -61 37 19 0 -93 58 -126 65 -19 4 -41 11 -50 16 -14 7 -177
40 -277 54 -24 4 -45 10 -48 15 -3 4 -29 11 -58 15 -28 4 -81 13 -117 21 -36
8 -80 14 -97 14 -20 0 -41 8 -54 21 -16 16 -23 18 -29 9 -5 -9 -17 -7 -46 8
-56 28 -76 55 -76 99 0 31 7 44 39 73 53 48 90 75 143 103 25 13 77 40 115 61
90 48 180 64 350 60 129 -3 209 -13 315 -39 49 -12 176 -31 425 -64 39 -5 113
-7 165 -5 52 1 154 5 225 7 146 5 241 25 329 68 53 26 57 27 40 7 -18 -20 -18
-21 -1 -15 11 4 31 10 45 13 15 3 45 12 67 20 22 7 54 15 71 18 62 8 116 47
241 173 40 41 84 90 98 111 13 20 49 63 80 95 36 39 58 73 66 100 6 23 23 62
37 87 76 134 150 250 184 292 32 39 37 51 29 67 -8 14 -5 31 11 68 35 77 31
142 -16 240 -31 65 -47 88 -80 109 -22 15 -63 45 -90 67 -60 46 -121 78 -198
103 -72 22 -76 45 -20 102 30 32 52 43 122 63 78 22 104 24 300 24 223 0 270
-5 270 -30 0 -8 9 -15 20 -15 13 0 28 15 45 48 14 26 32 57 41 70 16 21 15 22
-4 22 -11 0 -31 -13 -45 -30z m1229 -550 c9 -178 -44 -642 -97 -855 -52 -207
-226 -477 -327 -504 -73 -21 -77 15 -22 249 47 204 64 377 55 570 -10 216 -9
247 9 321 43 167 132 273 311 371 l50 27 7 -27 c4 -15 10 -83 14 -152z m-1056
-1016 c0 -3 -15 -24 -34 -47 -18 -23 -37 -53 -41 -67 -10 -36 -52 -107 -77
-130 -28 -26 -72 -25 -117 2 -20 12 -38 25 -41 29 -11 14 -70 39 -93 39 -55 0
-53 46 3 75 17 9 30 13 30 11 0 -3 24 2 53 11 28 9 70 15 92 14 72 -3 131 10
156 33 31 28 69 45 69 30z m-340 -234 c0 -5 -15 -17 -32 -26 l-33 -16 30 26
c34 29 35 29 35 16z"/>
<path d="M6976 9798 c-45 -70 -127 -336 -125 -408 l1 -45 8 50 c16 103 94 354
125 402 9 13 13 23 10 23 -2 0 -11 -10 -19 -22z"/>
<path d="M4718 5855 c-2 -2 -21 -6 -43 -9 -138 -18 -258 -57 -385 -124 -117
-62 -217 -150 -283 -247 -22 -33 -44 -62 -47 -65 -4 -3 -20 -52 -35 -110 -33
-126 -30 -188 10 -279 51 -113 155 -189 317 -230 315 -81 782 19 1047 223 104
80 132 122 201 294 30 74 34 92 22 92 -8 0 -13 -3 -9 -6 7 -7 -31 -108 -73
-195 -51 -106 -140 -184 -309 -269 -191 -96 -400 -143 -631 -144 -162 0 -276
21 -371 70 -124 63 -202 179 -202 304 -1 82 45 251 82 300 121 164 350 299
606 356 87 19 265 21 355 4 62 -12 200 -58 220 -74 8 -7 26 -17 40 -23 44 -18
124 -99 149 -148 28 -56 39 -192 23 -287 -5 -32 -6 -55 -2 -53 8 5 17 58 26
152 6 72 -13 159 -48 221 -77 133 -312 237 -559 247 -53 2 -98 2 -101 0z"/>
<path d="M3803 4709 c4 -12 -2 -18 -23 -23 -66 -13 -132 -124 -116 -193 11
-46 74 -129 129 -172 71 -54 205 -117 306 -142 199 -50 350 7 442 166 45 79
37 135 -23 154 -18 5 -139 26 -268 46 -129 20 -254 41 -277 47 -50 12 -127 64
-155 105 -11 15 -18 21 -15 12z m33 -50 c26 -29 91 -65 140 -78 22 -6 155 -29
295 -51 223 -35 256 -43 272 -62 26 -32 17 -75 -32 -147 -71 -104 -153 -146
-281 -146 -195 1 -443 129 -527 272 -44 75 -22 157 57 211 41 27 52 28 76 1z"/>
<path d="M3370 4181 c-59 -14 -65 -16 -72 -26 -12 -16 -9 -28 6 -22 8 3 19 -7
29 -28 61 -127 221 -200 304 -139 39 29 44 95 11 143 -41 61 -69 74 -160 77
-46 2 -99 -1 -118 -5z m210 -26 c45 -23 70 -66 70 -120 0 -43 -2 -47 -35 -61
-19 -7 -46 -14 -60 -14 -59 0 -151 59 -198 127 -37 54 -37 66 -2 74 58 13 195
10 225 -6z"/>
<path d="M6614 3280 c-11 -4 -35 -25 -53 -46 -31 -35 -33 -41 -28 -93 2 -31 7
-63 11 -72 6 -15 2 -15 -46 -3 -29 8 -57 12 -63 10 -5 -2 8 -7 30 -11 22 -4
56 -16 76 -26 87 -43 192 -206 192 -296 0 -64 -33 -92 -223 -188 -259 -132
-509 -304 -590 -407 -22 -27 -53 -78 -70 -114 -17 -35 -42 -72 -56 -80 -13 -9
-63 -21 -112 -27 -157 -18 -326 7 -917 135 -279 61 -280 61 -335 104 -71 55
-145 89 -267 120 -155 40 -279 20 -378 -60 -63 -52 -89 -112 -83 -190 9 -102
46 -155 148 -206 88 -44 146 -52 450 -59 328 -8 319 -6 393 -100 64 -81 83
-129 96 -240 22 -179 59 -210 253 -211 115 0 283 23 411 56 33 8 91 18 129 21
66 6 70 5 108 -26 21 -17 41 -31 44 -31 3 0 26 16 52 35 25 19 53 35 61 35 9
0 32 -17 52 -38 52 -55 95 -82 163 -103 108 -34 199 -22 505 66 584 167 806
253 1040 404 138 88 174 148 108 181 -25 13 -83 15 -370 12 -482 -4 -617 12
-684 82 l-34 35 20 33 c29 51 139 121 353 225 222 109 283 148 358 227 93 98
128 216 102 340 -20 96 -93 161 -237 210 -128 44 -153 64 -222 183 -35 61 -47
73 -83 87 -89 32 -254 47 -304 26z m254 -21 c67 -14 94 -37 134 -112 52 -97
89 -128 203 -167 118 -41 191 -90 225 -150 21 -39 25 -58 25 -135 0 -78 -4
-97 -27 -145 -62 -125 -169 -211 -387 -311 -234 -107 -373 -196 -407 -260 -14
-28 -13 -32 6 -59 27 -38 64 -57 148 -77 55 -13 140 -16 477 -18 226 0 422 -4
437 -9 35 -10 44 -40 23 -72 -39 -60 -325 -223 -525 -299 -193 -74 -740 -236
-914 -271 -151 -31 -271 0 -372 96 -29 28 -58 50 -64 50 -18 0 -64 -27 -84
-49 -25 -28 -32 -27 -73 9 -44 39 -91 39 -266 1 -183 -41 -291 -54 -417 -49
-90 3 -114 7 -137 24 -42 30 -63 82 -73 180 -7 64 -19 106 -40 149 -34 70
-111 162 -149 177 -15 7 -149 14 -311 19 -310 8 -365 15 -453 62 -97 51 -137
113 -137 215 0 56 29 110 85 160 90 79 212 99 367 58 116 -30 206 -71 270
-124 32 -27 63 -42 100 -50 29 -6 179 -38 333 -72 464 -100 548 -113 725 -114
202 -1 218 6 274 120 29 58 58 98 111 150 95 94 347 260 541 357 83 42 165 87
182 102 76 64 62 168 -41 303 -23 30 -57 65 -76 79 l-36 24 30 -6 c25 -5 27
-4 8 4 -23 10 -43 63 -43 113 0 30 50 94 84 109 25 11 172 4 244 -12z"/>
</g>
</svg>
