<?xml version="1.0" standalone="no"?>
<!DOCTYPE svg PUBLIC "-//W3C//DTD SVG 20010904//EN"
 "http://www.w3.org/TR/2001/REC-SVG-20010904/DTD/svg10.dtd">
<svg version="1.0" xmlns="http://www.w3.org/2000/svg"
 width="1000.000000pt" height="1000.000000pt" viewBox="0 0 1000.000000 1000.000000"
 preserveAspectRatio="xMidYMid meet">

<g transform="translate(0.000000,1000.000000) scale(0.100000,-0.100000)"
fill="#000000" stroke="none">
<path d="M7077 9970 c-14 -16 -27 -34 -29 -40 -3 -9 -31 -8 -106 0 -62 7 -171
10 -270 7 -144 -4 -179 -8 -251 -31 -96 -30 -104 -35 -143 -95 -45 -71 -34
-101 45 -122 118 -32 261 -137 296 -218 43 -101 25 -207 -69 -413 -33 -71 -60
-136 -60 -143 0 -7 -10 -35 -22 -62 -12 -26 -22 -50 -23 -53 0 -3 -6 -14 -12
-25 -6 -11 -28 -69 -48 -130 -21 -60 -42 -116 -48 -122 -5 -7 -6 -13 -2 -13 4
0 3 -6 -3 -12 -5 -7 -19 -47 -30 -88 -12 -41 -29 -93 -38 -115 -10 -22 -17
-46 -15 -52 1 -7 -3 -13 -9 -13 -6 0 -10 -6 -9 -12 1 -7 -3 -25 -9 -40 -6 -14
-22 -66 -37 -115 -14 -48 -30 -96 -35 -105 -5 -10 -19 -50 -29 -91 -11 -40
-26 -87 -32 -103 -7 -16 -13 -31 -14 -34 -1 -3 -4 -12 -7 -20 -3 -8 -18 -55
-33 -105 -15 -49 -31 -99 -36 -110 -20 -45 -50 -189 -44 -214 5 -25 2 -29 -32
-39 -98 -28 -168 -34 -326 -30 -110 4 -192 1 -256 -9 -127 -18 -434 -81 -468
-95 -15 -6 -36 -10 -45 -9 -10 1 -18 -3 -18 -9 0 -6 -5 -8 -10 -5 -6 4 -18 1
-27 -7 -9 -7 -17 -12 -17 -10 -1 2 -14 -1 -29 -7 -16 -6 -31 -11 -35 -11 -6 0
-134 -56 -202 -88 -50 -24 -52 -59 -5 -101 20 -17 44 -31 53 -31 10 0 22 -4
28 -10 5 -5 43 -14 84 -21 41 -6 84 -15 95 -20 27 -12 236 -29 366 -29 58 0
109 -4 115 -9 5 -5 92 -19 194 -31 102 -12 192 -24 200 -27 8 -4 20 -7 25 -7
6 -1 28 -11 50 -23 54 -28 84 -64 129 -148 6 -11 20 -34 31 -50 11 -17 26 -39
33 -50 23 -36 89 -179 106 -230 10 -27 44 -106 78 -175 33 -69 67 -140 75
-157 20 -42 44 -49 91 -26 68 33 76 64 82 328 3 127 2 234 -2 239 -4 5 -4 22
-1 37 3 16 2 36 -2 46 -5 10 -7 28 -6 40 1 11 -2 24 -8 27 -6 4 -8 13 -4 21 3
9 0 22 -7 30 -7 8 -10 21 -7 29 3 8 3 17 -1 21 -4 4 -7 10 -8 13 0 4 -3 14 -7
22 -3 8 -13 37 -22 65 -9 27 -45 111 -81 188 -35 76 -62 142 -59 147 3 5 0 12
-6 15 -5 4 -8 13 -5 21 3 7 1 16 -4 19 -13 8 -13 35 0 35 5 0 12 -16 16 -35 3
-19 10 -37 14 -40 5 -3 1 21 -7 52 -10 40 -11 59 -4 61 6 2 11 8 11 13 0 6 -5
7 -10 4 -6 -4 -3 10 7 29 9 20 18 34 21 32 2 -2 -2 -14 -8 -26 -23 -42 -1 -30
46 26 144 170 183 210 320 328 171 149 364 339 364 358 0 8 9 20 20 28 11 8
20 20 20 27 0 23 21 24 55 3 47 -29 74 -21 117 32 43 54 94 159 89 182 -1 4 3
14 10 22 6 7 8 17 5 22 -8 13 59 64 140 108 79 43 154 100 154 117 0 7 19 23
43 36 111 64 325 235 363 291 l24 35 0 -67 c0 -100 -35 -356 -69 -498 -42
-179 -46 -216 -26 -246 33 -50 119 -21 202 69 74 81 171 253 212 373 44 131
136 662 148 851 4 59 10 90 16 86 6 -4 8 0 4 9 -12 34 50 67 136 72 76 5 121
26 142 66 23 44 19 117 -10 178 -14 30 -25 64 -25 77 0 29 42 91 88 132 l37
32 -37 1 c-30 0 -41 -6 -66 -37 -69 -88 -75 -126 -37 -218 48 -116 25 -177
-71 -190 -103 -13 -118 -17 -144 -44 l-28 -27 -6 57 c-7 76 -30 129 -70 166
l-33 31 -2 -48 c-1 -27 3 -51 9 -55 18 -11 11 -23 -23 -34 -52 -18 -179 -105
-226 -156 -54 -59 -106 -168 -128 -267 -13 -64 -15 -96 -7 -178 8 -84 7 -100
-5 -100 -8 0 -12 -3 -8 -6 7 -7 3 -11 -83 -88 -87 -78 -249 -194 -362 -259
-207 -120 -307 -192 -340 -245 -11 -18 -23 -31 -26 -28 -3 3 -10 2 -16 -4 -7
-5 -50 -23 -96 -40 -47 -17 -104 -42 -126 -55 -50 -29 -72 -72 -54 -105 11
-21 18 -22 71 -17 47 4 57 2 51 -8 -15 -29 -203 -245 -210 -242 -11 3 -300
-243 -386 -331 -44 -45 -84 -78 -89 -75 -5 3 -7 -5 -3 -18 3 -13 3 -18 0 -11
-9 20 -27 14 -21 -9 4 -15 2 -18 -7 -10 -16 13 -138 -95 -154 -136 -18 -50
-23 -93 -9 -93 7 0 30 -42 51 -92 21 -51 49 -109 61 -128 61 -94 127 -311 145
-475 13 -120 12 -482 -1 -490 -5 -4 -9 -15 -9 -25 0 -17 -43 -60 -59 -60 -4 0
-31 53 -60 118 -30 64 -65 142 -80 172 -14 30 -26 57 -26 60 0 3 -6 14 -12 25
-5 11 -16 38 -23 60 -12 36 -30 71 -67 130 -7 11 -22 36 -32 56 -11 19 -27 41
-35 48 -9 8 -16 18 -16 22 0 5 -17 32 -37 59 -56 75 -134 120 -209 120 -18 0
-36 5 -39 10 -3 6 -46 10 -94 10 -48 0 -91 3 -95 7 -3 4 -14 8 -24 9 -195 26
-291 34 -404 34 -76 0 -138 4 -138 8 0 4 -41 13 -90 20 -50 7 -98 16 -108 21
-9 5 -39 17 -67 28 -27 10 -51 26 -53 35 -6 31 231 143 378 178 52 13 100 27
106 31 6 5 14 6 17 3 3 -3 11 -2 18 2 7 4 25 9 39 11 14 1 84 14 155 28 220
43 300 50 422 38 86 -9 123 -9 183 2 131 23 173 49 191 119 5 23 14 50 19 61
5 11 18 56 29 100 11 44 25 94 32 110 7 17 13 35 14 40 0 6 4 16 8 22 4 7 19
50 33 95 13 46 27 90 31 98 3 8 7 20 8 25 0 6 6 23 13 38 7 16 12 33 12 40 0
21 55 182 65 189 5 4 6 10 2 14 -4 4 -3 12 2 18 5 6 24 58 41 116 18 58 35
110 39 115 3 6 6 12 7 15 0 3 6 17 12 32 6 15 18 52 27 82 9 30 28 72 42 93
27 39 118 218 146 286 9 20 21 37 26 37 6 0 11 5 11 10 0 6 30 75 67 153 85
179 87 211 29 334 -31 65 -47 88 -80 109 -22 15 -63 45 -90 67 -60 46 -121 78
-198 103 -72 22 -76 45 -20 102 30 32 52 43 122 63 78 22 104 24 300 24 223 0
270 -5 270 -30 0 -8 9 -15 20 -15 13 0 28 15 45 48 14 26 32 57 41 70 16 21
15 22 -4 22 -11 0 -31 -13 -45 -30z m1229 -550 c9 -178 -44 -642 -97 -855 -52
-207 -226 -477 -327 -504 -73 -21 -77 15 -22 249 47 204 64 377 55 570 -10
216 -9 247 9 321 43 167 132 273 311 371 l50 27 7 -27 c4 -15 10 -83 14 -152z
m-1768 -545 c-6 -14 -13 -23 -15 -21 -5 5 15 46 22 46 3 0 -1 -11 -7 -25z
m543 -631 c14 -13 21 -13 40 -4 21 12 21 11 15 -16 -13 -53 -48 -112 -91 -154
-48 -47 -72 -48 -96 -4 -13 24 -16 26 -64 19 -79 -12 -89 -11 -93 7 -2 9 5 25
15 35 15 14 237 131 252 133 3 0 12 -7 22 -16z"/>
<path d="M6976 9798 c-45 -70 -127 -336 -125 -408 l1 -45 8 50 c16 103 94 354
125 402 9 13 13 23 10 23 -2 0 -11 -10 -19 -22z"/>
<path d="M4718 5855 c-2 -2 -21 -6 -43 -9 -138 -18 -258 -57 -385 -124 -117
-62 -217 -150 -283 -247 -22 -33 -44 -62 -47 -65 -4 -3 -20 -52 -35 -110 -33
-126 -30 -188 10 -279 51 -113 155 -189 317 -230 315 -81 782 19 1047 223 104
80 132 122 201 294 30 74 34 92 22 92 -8 0 -13 -3 -9 -6 7 -7 -31 -108 -73
-195 -51 -106 -140 -184 -309 -269 -191 -96 -400 -143 -631 -144 -162 0 -276
21 -371 70 -124 63 -202 179 -202 304 -1 82 45 251 82 300 121 164 350 299
606 356 87 19 265 21 355 4 62 -12 200 -58 220 -74 8 -7 26 -17 40 -23 44 -18
124 -99 149 -148 28 -56 39 -192 23 -287 -5 -32 -6 -55 -2 -53 8 5 17 58 26
152 6 72 -13 159 -48 221 -77 133 -312 237 -559 247 -53 2 -98 2 -101 0z"/>
<path d="M3803 4709 c4 -12 -2 -18 -23 -23 -66 -13 -132 -124 -116 -193 11
-46 74 -129 129 -172 71 -54 205 -117 306 -142 199 -50 350 7 442 166 45 79
37 135 -23 154 -18 5 -139 26 -268 46 -129 20 -254 41 -277 47 -50 12 -127 64
-155 105 -11 15 -18 21 -15 12z m33 -50 c26 -29 91 -65 140 -78 22 -6 155 -29
295 -51 223 -35 256 -43 272 -62 26 -32 17 -75 -32 -147 -71 -104 -153 -146
-281 -146 -195 1 -443 129 -527 272 -44 75 -22 157 57 211 41 27 52 28 76 1z"/>
<path d="M3370 4181 c-59 -14 -65 -16 -72 -26 -12 -16 -9 -28 6 -22 8 3 19 -7
29 -28 61 -127 221 -200 304 -139 39 29 44 95 11 143 -41 61 -69 74 -160 77
-46 2 -99 -1 -118 -5z m210 -26 c45 -23 70 -66 70 -120 0 -43 -2 -47 -35 -61
-19 -7 -46 -14 -60 -14 -59 0 -151 59 -198 127 -37 54 -37 66 -2 74 58 13 195
10 225 -6z"/>
<path d="M6614 3280 c-11 -4 -35 -25 -53 -46 -31 -35 -33 -41 -28 -93 2 -31 7
-63 11 -72 6 -15 2 -15 -46 -3 -29 8 -57 12 -63 10 -5 -2 8 -7 30 -11 22 -4
56 -16 76 -26 87 -43 192 -206 192 -296 0 -64 -33 -92 -223 -188 -259 -132
-509 -304 -590 -407 -22 -27 -53 -78 -70 -114 -17 -35 -42 -72 -56 -80 -13 -9
-63 -21 -112 -27 -157 -18 -326 7 -917 135 -279 61 -280 61 -335 104 -71 55
-145 89 -267 120 -155 40 -279 20 -378 -60 -63 -52 -89 -112 -83 -190 9 -102
46 -155 148 -206 88 -44 146 -52 450 -59 328 -8 319 -6 393 -100 64 -81 83
-129 96 -240 22 -179 59 -210 253 -211 115 0 283 23 411 56 33 8 91 18 129 21
66 6 70 5 108 -26 21 -17 41 -31 44 -31 3 0 26 16 52 35 25 19 53 35 61 35 9
0 32 -17 52 -38 52 -55 95 -82 163 -103 108 -34 199 -22 505 66 584 167 806
253 1040 404 138 88 174 148 108 181 -25 13 -83 15 -370 12 -482 -4 -617 12
-684 82 l-34 35 20 33 c29 51 139 121 353 225 222 109 283 148 358 227 93 98
128 216 102 340 -20 96 -93 161 -237 210 -128 44 -153 64 -222 183 -35 61 -47
73 -83 87 -89 32 -254 47 -304 26z m254 -21 c67 -14 94 -37 134 -112 52 -97
89 -128 203 -167 118 -41 191 -90 225 -150 21 -39 25 -58 25 -135 0 -78 -4
-97 -27 -145 -62 -125 -169 -211 -387 -311 -234 -107 -373 -196 -407 -260 -14
-28 -13 -32 6 -59 27 -38 64 -57 148 -77 55 -13 140 -16 477 -18 226 0 422 -4
437 -9 35 -10 44 -40 23 -72 -39 -60 -325 -223 -525 -299 -193 -74 -740 -236
-914 -271 -151 -31 -271 0 -372 96 -29 28 -58 50 -64 50 -18 0 -64 -27 -84
-49 -25 -28 -32 -27 -73 9 -44 39 -91 39 -266 1 -183 -41 -291 -54 -417 -49
-90 3 -114 7 -137 24 -42 30 -63 82 -73 180 -7 64 -19 106 -40 149 -34 70
-111 162 -149 177 -15 7 -149 14 -311 19 -310 8 -365 15 -453 62 -97 51 -137
113 -137 215 0 56 29 110 85 160 90 79 212 99 367 58 116 -30 206 -71 270
-124 32 -27 63 -42 100 -50 29 -6 179 -38 333 -72 464 -100 548 -113 725 -114
202 -1 218 6 274 120 29 58 58 98 111 150 95 94 347 260 541 357 83 42 165 87
182 102 76 64 62 168 -41 303 -23 30 -57 65 -76 79 l-36 24 30 -6 c25 -5 27
-4 8 4 -23 10 -43 63 -43 113 0 30 50 94 84 109 25 11 172 4 244 -12z"/>
</g>
</svg>
